<?xml version="1.0" encoding="UTF-8"?>
<svg id="Layer_1" data-name="Layer 1" xmlns="http://www.w3.org/2000/svg" viewBox="0 0 953.27 292.79">
  <path d="m757.63,171.83c.34-6.48.53-12.97,1.06-19.44.34-4.14,1.71-7.38,7.09-6.98,1.41.11,2.93-2.05,4.51-3,1.32-.79,3.62-2.22,4.04-1.82,1.26,1.2,1.97,3.09,2.6,4.82.24.65-.23,1.63-.53,2.4-6.89,17.34-.53,32.21,8.92,46.33,5.07,7.58,10.22,7.21,15.52-.43,7.72-11.13,11.97-23.73,14.84-36.72,2.21-10.03,3.01-20.37,4.91-30.49.4-2.11,2.8-5.36,4.38-5.41,3.38-.12,3.83,3.3,3.25,6.01-2.87,13.31-5.4,26.73-9.08,39.82-2.54,9.03-6.46,17.73-10.38,26.29-1.75,3.82-4.71,7.24-7.67,10.31-4.12,4.25-9.01,5.06-14.55,2.12-1.87-.99-4.46-.84-6.71-.83-2.14.02-4.35,1.06-6.4.75-4.33-.65-7.06.46-9.19,4.58-1.84,3.56-5.08,3.37-6.69-.47-1.9-4.53-4.93-5.63-9.45-6.44-13.65-2.46-27.12-5.84-37.56-15.98-2.97-2.88-5.68-6.03-8.49-9.08-3.46-3.76-5.23-3.49-8.17.45-6.84,9.16-13.2,18.81-21.04,27.04-10.86,11.4-23.9,18.44-40.67,13.97-8.66-2.31-15.11-7.84-20.64-14.21-22.03-25.41-29.72-54.84-21.02-87.37,8.77-32.79,28.42-57.98,58.35-74.35,7.1-3.88,15.39-6.06,23.41-7.67,17.01-3.41,35.78,10.92,39.71,28.84,4.33,19.74,4.95,39.64.34,59.41-2.71,11.62-5.85,23.17-9.58,34.49-2.38,7.23-.65,13.01,4.36,17.73,10.76,10.11,22.68,18.49,37.65,21.24,2.26.41,4.61.37,6.91.56,3.65.3,5.18-1.75,5.4-5.03.47-7.13.84-14.28,1.25-21.41-.22-.01-.45-.02-.67-.04Zm-166.42-26.32c.92,5.11,1.69,12.1,3.49,18.8,4.3,15.95,13.05,29.31,24.97,40.68,9.27,8.83,22.18,12.81,35.33,6.99,13.59-6.02,22.05-17.16,30.14-28.92,6.13-8.9,8.99-16.93,4.98-28.56-7.8-22.62-3.33-45.47,4.82-67.4,1.64-4.4,5.99-7.74,8.71-11.82,1.34-2.01,2.92-4.85,2.46-6.88-1.99-8.83-6.29-16.46-14.14-21.56-13.4-8.69-26.88-6-39.79.71-20.05,10.42-34.62,26.56-45.98,45.9-9.13,15.55-13.52,32.36-15,52.06Zm105.24,9.57c.83-.05,1.65-.09,2.48-.14.75-1.91,1.79-3.77,2.21-5.75,2.17-10.05,4.79-20.06,6.07-30.23,1.25-9.95,1.08-20.09,1.49-30.14.03-.63-.22-1.33-.52-1.9-1.33-2.5-3.19-3.02-5.05-.74-1.24,1.52-2.09,3.39-2.93,5.19-6.8,14.68-8.64,30.29-7.72,46.19.34,5.9,2.59,11.68,3.96,17.52Zm75.21,27.44c-.7.02-1.4.03-2.09.05-.85,4.52-1.87,9.03-2.33,13.59-.05.49,3.27,2.08,4.71,1.75,1.61-.37,4.23-2.67,4.01-3.56-.97-4.05-2.78-7.9-4.29-11.83Z" stroke-width="0"/>
  <path d="m41.58,229.21c-1.95-27.82-3.96-55.63-5.78-83.46-.3-4.52-2.49-6.42-6.65-7.26-11.4-2.3-16.17-12.05-10.53-22.26,2.59-4.69,6.07-9.03,9.74-12.97,5.47-5.87,6.51-12.88,6.5-20.34,0-9.82-.26-19.64-.07-29.45.13-6.46.76-12.91,1.37-19.35.36-3.76-1.08-5.43-4.42-3.91-9.91,4.49-18.45,10.71-22.9,21.11-4.07,9.53-1.34,19.31,6.71,25.89,3.21,2.63,6.47,5.29,9.23,8.35.96,1.07.51,3.41.71,5.17-1.87,0-4.51.81-5.49-.13-5.75-5.45-11.73-10.85-16.46-17.15-6.12-8.15-4.01-22.69,3.79-31.56,6.89-7.84,15.01-14.1,24.87-17.81,3.68-1.38,4.44-4.16,4.27-7.57-.2-4.14-.74-8.3-.47-12.4.1-1.44,2.15-2.76,3.31-4.13,1.18,1.4,3.1,2.67,3.36,4.22.42,2.54-.08,5.28-.48,7.89-.85,5.52,1.27,7.27,6.71,6.19,11.71-2.34,23.42-5.54,35.25-6.2,24.68-1.37,48.88,2.05,71.12,13.66,7.3,3.81,13.92,9.11,20.34,14.36,3.57,2.92,6.82,4.05,11.33,3.28,14.74-2.54,29.54-4.78,44.32-7.11,1.47-.23,3.1-.69,4.44-.3,1.65.48,3.08,1.74,4.61,2.66-1.32,1.61-2.43,4.33-3.99,4.62-4.54.83-9.27.65-13.92.94-10.12.65-20.25,1.16-30.34,2.1-6.82.63-7.12,2.24-3.37,8.16,3.78,5.96,8.34,11.96,10.08,18.59,4.18,15.92-2.58,30.38-16.27,39.67-14.08,9.54-29.6,15.66-45.84,20.14-25.65,7.08-51.83,10.15-78.41,9.83-3.97-.05-7.95-.75-11.91-1.26-4.14-.53-6.23.5-5.66,5.35,2.41,20.81,4.58,41.64,6.84,62.47,1.26,11.58,2.54,23.16,3.77,34.74.16,1.48.47,3.18-.08,4.44-.87,2.02-2.06,4.85-3.73,5.36-3.19.97-5.43-1.47-5.82-4.63-.81-6.59-1.27-13.22-1.87-19.83.59-.05,1.18-.09,1.77-.14Zm28.02-91.15l.02-.37c1.99,0,3.99.05,5.98,0,17.66-.53,35.07-2.78,52.26-6.99,19.03-4.67,37.68-10.3,53.03-23.09,9.32-7.77,16.4-17.78,13.05-30.41-2.23-8.4-7.7-15.98-12.07-23.74-2.18-3.86-6-4.9-10.37-4.02-3.91.79-7.84,1.49-11.79,2.07-23.79,3.5-46.62,10.49-68.88,19.37-15.62,6.23-30.99,13.06-44.56,23.18-2.77,2.07-6.46,5.17-6.66,8-.65,9.57-.08,19.24.36,28.85.16,3.52,2.3,5.63,6.22,5.79,7.81.32,15.6.9,23.4,1.37Zm-28.12-79.35c-.55,0-1.09,0-1.64.01,0,8.98-.05,17.96.05,26.94.02,1.52.64,3.04.98,4.55,1.55-.35,3.31-.35,4.62-1.11,17.82-10.46,36.34-19.18,55.94-26.02,20.03-6.99,40.55-11.47,61.18-15.83,2.27-.48,4.63-.92,6.65-1.96.68-.35.99-3.41.5-3.73-8.49-5.49-16.58-12.23-25.88-15.68-11.71-4.35-24.32-6.63-36.73-8.61-20.27-3.24-40.15-.07-59.61,5.96-3.81,1.18-6.18,3.57-6.1,8.03.15,9.14.05,18.29.05,27.44Zm-7.37,63.36c0-4.71.15-8.05-.07-11.36-.09-1.29-1-2.53-1.54-3.8-1.02.7-2.3,1.21-3.02,2.15-1.73,2.22-3.38,4.55-4.75,7.01-4.7,8.44-1.94,12.18,5.58,16.44,2.69,1.52,4.54.63,4.29-2.86-.21-2.98-.39-5.97-.49-7.58Z" stroke-width="0"/>
  <path d="m139.7,213.53c-1.81.98-2.63,1.76-3.48,1.81-1.57.1-4.09.3-4.56-.51-.8-1.36-1.07-4.15-.2-5.14,2.26-2.57,5.44-4.3,7.9-6.73,1.52-1.5,2.95-3.52,3.43-5.54,2.17-9.06,3.63-18.29,6.07-27.27,1.41-5.2,3.97-10.14,6.47-14.97.77-1.49,3.65-3.44,4.5-3.02,2.01.99,4.49,3.1,4.81,5.08,1.51,9.5,2.68,19.09,3.35,28.69.4,5.79,1,6.54,6.68,6.05,9.11-.78,18.25-1.21,27.38-1.58,7.22-.29,7.66-.93,8.87-7.79,1.58-8.95,3.36-17.93,5.9-26.64,3.26-11.15,14.77-17.76,26.24-15.88,8.61,1.41,16,5.52,22.75,10.8,3.39,2.65,6.19,3.61,10.23.78,2.71-1.89,6.46-2.56,9.85-3.07,1.27-.19,2.85,1.6,4.29,2.49-.9,1.43-1.48,3.32-2.76,4.17-1.74,1.16-4.03,1.48-6.06,2.23-5.33,1.95-5.77,3.04-3.44,8.03.91,1.96,1.65,4,2.58,5.94,5.43,11.32.83,20.3-10.32,25.73-7.68,3.74-16.15,5.05-24.78,3.02-10.11-2.38-13.6-9.83-9.31-19.31,4.01-8.87,11.51-14.06,19.44-18.7,6.83-3.99,7.15-5.95.87-10.49-9.74-7.03-22.19-6.75-29.37.63-2.24,2.3-2.65,3.88.19,6.52,2.02,1.87,3.77,5.57,3.45,8.18-3.4,27.23-.04,54.54-1.26,81.78-.28,6.31-.49,12.63-1.12,18.91-.34,3.42-1.92,7.27-5.93,6.59-2.16-.37-4.96-3.63-5.45-5.99-1.89-9.27-3.38-18.67-4.24-28.09-1.13-12.43-1.64-24.92-2.15-37.39-.19-4.79-1.92-7.09-6.94-6.7-9.76.76-19.54,1.32-29.31,2-3.74.26-4.64,2.29-3.95,5.83,2.29,11.75,4.43,23.54,6.48,35.33.39,2.25.71,4.8.02,6.86-.55,1.64-2.7,2.74-4.14,4.08-1.17-1.52-3.15-2.93-3.38-4.58-1.82-12.81-3.27-25.67-4.92-38.5-.84-6.55-2.84-7.12-9.04-4.88-7.52,2.72-10.18,7.86-9.71,15.24.56,8.77,1.25,17.53,1.92,26.3.11,1.49.83,3.05.54,4.43-.44,2.16-1.49,4.19-2.29,6.28-1.69-1.92-4.71-3.74-4.85-5.76-.64-9.12-.43-18.29-.61-27.45-.05-2.37-.39-4.73-.66-7.77Zm114.54-19.2l.47.93c4.94-2.07,10.24-3.58,14.75-6.35,6.88-4.23,7.91-10.56,3.88-17.57-.57-1-1.03-2.08-1.44-3.16-1.66-4.42-5.12-5.67-8.65-3.22-6.59,4.58-13.3,9.3-18.78,15.08-5.85,6.18-3.09,12.36,5.31,13.92,1.45.27,2.96.25,4.45.37Zm-33.2,60.35l1.21-.08c.35-1.18.97-2.36,1.01-3.55.5-16.26,1.04-32.52,1.15-48.78.01-1.62-2.59-4.37-4.31-4.66-3.2-.55-3.99,2.38-3.81,5.08,1.05,15.73,2.14,31.45,3.33,47.16.12,1.64.94,3.23,1.44,4.84Zm-61.41-87.42c-.48-.05-.97-.09-1.45-.14-.71.83-1.79,1.56-2.08,2.51-2.41,8.11-4.79,16.23-6.8,24.44-.19.78,2.26,3.22,3.37,3.15,8.86-.54,11.48-4.23,9.85-13.11-.42-2.29-.66-4.6-1.06-6.9-.58-3.33-1.22-6.65-1.84-9.97Zm62.53-2.31c-.61,0-1.23,0-1.84-.01-.79,1.9-1.96,3.73-2.29,5.71-.75,4.39-.98,8.87-1.61,13.28-.41,2.88.23,5.58,3.3,5.29,1.66-.16,4.13-2.86,4.36-4.66.6-4.55.34-9.26.03-13.88-.13-1.94-1.27-3.82-1.95-5.73Z" stroke-width="0"/>
  <path d="m312.99,197.49c-1.29,12.71-2.81,25.4-3.8,38.13-1.26,16.27-2.02,32.57-3.12,48.85-.24,3.52.18,8.51-4.87,8.32-4.44-.16-3.5-4.92-3.76-8.05-1.17-13.92-2.4-27.85-3.25-41.79-1.18-19.28-2.35-38.58,2.22-57.67,2.57-10.74,7.51-20.15,14.72-28.47,3.37-3.89,7.31-6.16,12.58-5.85,2.66.16,5.43.62,7.97.07,3.09-.67,6.31-1.77,8.87-3.55,3.66-2.54,6.7-5.97,10.17-8.81,1.37-1.12,3.14-2.09,4.84-2.33,1.19-.17,2.95.7,3.74,1.68.51.64.14,2.81-.58,3.44-3.36,2.93-6.88,5.7-10.52,8.27-5.16,3.65-5.18,4.7-.24,8.42,12.01,9.03,19.33,21,21.07,35.93.91,7.86-4.84,15.44-12.67,15.78-9.03.4-18.24-.35-27.15-1.9-3.79-.66-7.05-4.55-10.46-7.1-1.53-1.14-2.83-2.58-4.23-3.88-.51.17-1.01.34-1.52.51Zm33.57,8.91c.15-.41.31-.82.46-1.23,9.95.3,15.88-5.88,14.25-15.55-2.05-12.19-9.92-20.71-19.18-28.06-3.55-2.81-7-1.62-9.59,1.61-3.11,3.88-6.25,7.81-8.78,12.07-5.74,9.7-5.28,18.31,2.4,23.05,6.14,3.79,13.58,5.48,20.44,8.1Zm-34.44-31.94c-.43-.7-1.14-2.61-1.67-2.56-1.32.12-3.27.82-3.71,1.84-2.41,5.58-5.22,11.17-6.45,17.05-3.35,16.1-2.53,32.43-1.28,48.71.11,1.38,1.25,2.68,1.91,4.02.91-1.22,2.4-2.34,2.63-3.68.91-5.39,1.38-10.86,2.09-16.29,2.11-16.15,4.26-32.29,6.49-49.1Zm7.69-5.01c2.81-3.34,5.07-5.91,7.15-8.62.3-.39-.03-1.84-.46-2.06-.76-.41-1.89-.51-2.75-.3-3.66.92-5.15,4.39-3.94,10.98Z" stroke-width="0"/>
  <path d="m858.3,170.52c-.78,2.56-1.93,5.07-2.27,7.68-1.49,11.54-2.74,23.11-4.09,34.68-.08.66.06,1.5-.3,1.95-1.54,1.93-3.23,3.75-4.86,5.61-1.55-1.78-4.15-3.41-4.44-5.38-.92-6.2-1.6-12.57-1.23-18.81.77-13.09,2.08-26.16,3.56-39.19.53-4.73,1.85-9.45,3.44-13.95.6-1.69,2.88-3.76,4.56-3.91,4.14-.38,5.61-2.19,6.4-6.12.35-1.71,3.28-4.08,5.02-4.06,3.31.05,3.68,3.46,2.66,5.73-5.41,11.95-2.98,23.78,0,35.66,3.81,15.13,7.43,30.32,11.57,45.36.77,2.81,3.58,5.07,5.44,7.58,1.29-2.73,3.42-5.36,3.74-8.2,2.57-22.3,4.89-44.63,7.06-66.97.52-5.37-.06-10.85.42-16.22.16-1.78,2.06-3.39,3.17-5.09,1.68,1.31,3.68,2.37,4.9,4.02.73.98.41,2.9.25,4.36-2.09,18.83-3.95,37.69-6.48,56.45-1.71,12.64-4.37,25.16-6.67,37.72-.2,1.12-.7,2.23-1.26,3.24-2.4,4.37-5.69,5.17-8.26,1.06-3.89-6.23-7.56-12.91-9.61-19.9-3.68-12.58-6.06-25.54-9.04-38.33-.39-1.67-1.1-3.27-1.67-4.9-.67-.02-1.34-.05-2.01-.07Zm-1.31-16.91c-.59-1.01-1.43-2.45-2.27-3.89-1.17,1.3-2.99,2.43-3.38,3.93-1.46,5.53-2.58,11.17-3.52,16.81-.24,1.46.66,3.12,1.04,4.68,1.26-1.13,3.24-2.06,3.65-3.44,1.68-5.67,2.89-11.49,4.47-18.09Z" stroke-width="0"/>
  <path d="m475.03,167.37c-7.48,0-14.97,0-22.45,0-3.48,0-5.06,1.72-3.99,5.1,3.68,11.55,7.61,23.02,11.17,34.6.7,2.29,1.13,5.69-.06,7.26-1.21,1.6-5.09,2.8-6.9,2.04-7.14-2.98-14.02-6.62-20.8-10.37-5.37-2.97-10.34-6.64-15.68-9.66-5.19-2.93-5.92-2.33-7.35,3.31-2.16,8.52-4.51,17-6.9,25.46-.71,2.5-1.4,5.9-5.04,4.78-3.83-1.18-3.23-4.54-2.21-7.53,3-8.76,6.08-17.51,9.14-26.25,1.6-4.59.72-8.17-3.25-11.47-6.43-5.33-5.68-10.32,1.67-14.31.88-.48,1.78-1.23,2.69-1.27,8.25-.3,9.72-6.33,11.51-12.69,2.73-9.72,5.89-19.34,9.31-28.84.71-1.98,3.19-4.25,5.14-4.55,1.53-.24,4.52,2.01,5.11,3.74,2.88,8.46,5.57,17.03,7.55,25.74,2.37,10.39,2.01,10.2,12.9,9.32,11.61-.94,23.26-1.35,34.89-1.93,3.11-.15,6.71-.04,6.5,4.16-.21,4.25-4.05,3.68-6.97,3.58-5.32-.17-10.64-.57-15.96-.87,0,.22,0,.43-.01.65Zm-64.67,16.5c1.65,2.43,2.39,4.61,3.91,5.6,10.43,6.81,20.92,13.52,31.65,19.84,1.72,1.02,4.79.28,7.01-.38.74-.22,1.38-2.93,1.04-4.23-2.59-9.85-5.46-19.63-8.2-29.45-1.41-5.07-2.91-10.08-9.83-8.97-5.92.95-12.74.67-17.43,3.66-3.96,2.53-5.43,8.96-8.15,13.93Zm13.32-18.37c4.59-1.01,7.81-2.07,11.1-2.36,4.11-.36,4.63-2.44,3.7-5.76-1.57-5.6-3.05-11.24-4.75-16.8-.33-1.08-1.48-1.92-2.25-2.86-.87.91-2.13,1.67-2.54,2.75-2.66,6.98-5.29,13.98-7.5,21.11-.33,1.06,1.57,2.82,2.25,3.93Z" stroke-width="0"/>
  <path d="m535.42,176.13c1.59,16.23,3.2,32.46,4.75,48.69.14,1.47.4,3.16-.16,4.39-.53,1.15-2.01,2.3-3.24,2.52-.79.14-2.38-1.24-2.73-2.24-.86-2.49-1.61-5.14-1.71-7.75-.68-17.97-1.18-35.95-1.75-53.93-.24-7.66-.64-15.31-.71-22.97-.02-2.03.64-4.21,1.55-6.04.33-.67,2.89-1.13,3.41-.62,1.17,1.12,2.39,2.92,2.38,4.43-.02,6.16-.59,12.31-.77,18.47-.15,4.99-.03,9.99-.03,14.99-.33.03-.66.05-1,.08Z" stroke-width="0"/>
  <path d="m542.28,95.79c-1.06,10.7-8.83,16.93-18.54,14.98-1.34-.27-2.92.98-4.44,1.21-2.02.32-4.09.33-6.14.48.03-1.86,0-3.73.14-5.58.05-.6.89-1.18.87-1.74-.34-7.88,5.54-11.33,10.63-15.56,3.31-2.75,6.69-6.3,10.78-3.37,2.99,2.14,4.52,6.31,6.7,9.57Zm-11.73-2.96c-2.15,3.63-3.63,5.98-4.84,8.47-.1.2,2.36,2.02,2.48,1.9,1.87-1.8,3.71-3.69,5.13-5.84.29-.43-1.2-2.04-2.77-4.53Z" stroke-width="0"/>
  <path d="m939.55,207.48c-.98-2.66-2.39-4.72-2.4-6.79-.07-14.61.13-29.23.29-43.84.01-1.32-.11-2.87.51-3.91,1.13-1.9,2.77-3.5,4.2-5.22.97,1.86,2.76,3.72,2.76,5.59.02,5.79-.97,11.58-.96,17.38.01,8.44.66,16.87.82,25.31.07,4.05.41,8.41-5.23,11.49Z" stroke-width="0"/>
  <path d="m953.27,104.15c-.6,11.97-5.68,16.35-15.99,14.71-1.12-.18-2.97-3.06-2.62-3.97,2.45-6.33,5.12-12.61,8.34-18.57.8-1.48,3.93-2.44,5.89-2.29,1.23.09,2.69,2.55,3.28,4.22.82,2.3.92,4.86,1.09,5.89Z" stroke-width="0"/>
</svg>