<?xml version="1.0" encoding="UTF-8"?>
<svg id="Layer_1" data-name="Layer 1" xmlns="http://www.w3.org/2000/svg" viewBox="0 0 1605.06 270.53">
  <path d="m919.48,180.75c9.84,3.9,16.49.63,22.96-7.73,2.53-3.27,4.9-6.22,4.2-10.64-.48-3.05.33-7.61-1.38-8.89-4.44-3.32-8.44-7.65-15.1-7.72-8.67-.09-17.16,1.02-24.36,5.33-10.4,6.23-20.65,13.36-18.88,28.18.33,2.79.05,5.66.05,8.49,0,15,10.44,25.48,25.4,25.48,6.67,0,13.34.2,20-.05,19.07-.69,35.07-8,46.41-23.54,3.57-4.9,6.55-10.72,6-17.58-.46-5.8.35-11.7-.19-17.48-1.11-12.03-2.78-24.22-11.35-33.5-5.93-6.41-13.1-11.69-19.87-17.3-1-.83-2.8-.95-4.24-.96-19.33-.06-38.69-.62-57.99.26-7.36.34-14.75,3.58-21.79,6.35-7.19,2.83-14.06,6.54-20.88,10.2-8.01,4.3-16.16,8.48-23.64,13.6-7.86,5.37-14.95,11.85-22.46,17.74-3.63,2.84-7.33,5.63-11.19,8.13-8.51,5.5-16.85,11.36-25.82,15.99-6.25,3.22-13.44,4.6-20.19,6.88-5.94,2.01-11.79,4.29-17.78,6.13-2.48.76-5.21.96-7.83.96-67.17.05-134.33.04-201.5.05-2.12,0-4.24,0-6.56,0,0,6.78-.16,12.93.03,19.06.32,10.35-3.99,17.88-12.18,24.26-8.47,6.59-17.61,10.79-28.07,12.52-4.67.77-9.28,2.05-13.97,2.55-23,2.45-30.08-8.73-28.1-28.47.35-3.54.98-7.29,2.54-10.41,4.4-8.81,12.68-13.56,21.11-17.43,8.64-3.96,17.78-6.84,26.79-9.95,2.3-.79,4.9-.82,7.38-.95,2.91-.15,5.83-.04,9.61-.04-6.23-10.34-12.37-18.98-23.67-22.6-4.19-1.34-7.88-4.2-11.93-6.08-2.7-1.25-5.59-2.73-8.45-2.85-8.82-.37-17.68.23-26.49-.23-10.41-.55-20.12,2.23-29.79,5.27-14.53,4.57-28.5,10.6-41.74,18.1-6.62,3.75-12.59,8.62-18.94,12.87-7.56,5.07-15.06,10.26-22.86,14.95-6.1,3.66-12.75,6.4-18.88,10.02-2.41,1.43-4.06,4.14-6.06,6.27-.99,1.06-1.81,2.5-3.03,3.09-7.43,3.6-15.04,6.84-22.41,10.56-3.13,1.58-5.81,4.04-8.71,6.08-.67.47-1.35,1.06-2.11,1.27-7.11,1.93-14.25,3.79-21.38,5.67-.64.17-1.42.12-1.92.48-12.92,9.2-26.98,7.94-41.36,4.8-6.09-1.33-12.31-2.31-18.52-2.81-2.28-.18-5.02,1-7.01,2.35-9.02,6.12-15.41,15.74-25.99,19.75-3.82,1.45-7.9,2.92-11.9,3.02-13.66.36-27.34.44-40.99,0-12.94-.42-26.04-.6-38.72-2.88-8.37-1.51-16.98-5.34-23.82-10.38-5.19-3.83-7.92-11.12-11.41-17.07-1.91-3.26-2.99-7-4.7-10.39-5.45-10.78-4.63-21.62-.58-32.53,1.01-2.72,3.38-4.47,5.79-2.71,1.52,1.1,2.78,4.51,2.2,6.23-3.44,10.18-2.98,19.7,2.58,29.06,2.69,4.52,5.11,9.3,6.87,14.24,2.02,5.68,6.39,7.62,11.44,9.31,3.22,1.08,6.24,2.78,9.38,4.11,1.65.7,3.36,1.66,5.07,1.72,24.42.92,48.86,1.49,73.27,2.62,9.98.46,17.1-4.68,23.91-10.57,2.96-2.55,4.98-6.19,7.43-9.33.51.12,1.02.24,1.53.36-2.51-.76-5.15-1.23-7.49-2.35-2.93-1.4-5.71-3.18-8.37-5.06-5.46-3.84-11.42-7.27-15.99-12-3.1-3.21-5.26-8.21-5.91-12.68-.99-6.82-.78-13.85,2.57-20.47,3.08-6.07,2.94-13.34,8.12-18.85,3.12-3.32,5.88-5.4,10.44-5.51,9.17-.24,18.36-.33,27,3.01,3.54,1.37,7.11,3.89,9.45,6.85,3.72,4.69,7.82,9.46,6.87,16.47-.62,4.58.31,9.37-.25,13.97-.49,3.98-1.89,7.9-3.26,11.71-2.23,6.19-4.76,12.27-7.56,19.41,11.87,1.59,23.41,3.43,35.01,4.59,7.06.71,13.8-1.05,19.61-5.51.65-.5,1.44-.88,2.22-1.11,6.62-1.92,13.33-3.56,19.84-5.78,3.03-1.03,5.6-3.32,8.51-4.79,8.29-4.18,16.87-7.83,24.88-12.49,4.91-2.85,8.63-7.71,13.48-10.71,11.69-7.22,23.9-13.6,35.57-20.84,9.29-5.77,17.97-12.52,27.18-18.41,3.84-2.45,8.48-3.6,12.56-5.71,13.78-7.11,28.45-11.63,43.47-15.09,2.89-.67,5.94-.9,8.91-.93,9.83-.11,19.72.58,29.48-.24,8.4-.71,15.1,2.5,21.89,6.33,4.58,2.58,9.08,5.33,13.72,7.79,9.53,5.04,15.41,13.36,19.78,22.7,1.64,3.5,3.59,3.99,6.82,3.99,58-.06,116-.04,174-.04,4.17,0,8.33.02,12.5,0,13.05-.06,25.77-.13,38.63-4.7,14.16-5.03,28.06-9.99,40.52-18.53,3.7-2.53,8.04-4.17,11.57-6.88,7.84-6.01,15.06-12.87,23.11-18.58,8.06-5.72,16.8-10.5,25.28-15.63,5.93-3.58,11.68-7.61,17.97-10.42,7.25-3.24,15.23-4.83,22.46-8.11,8.61-3.92,17.49-3.34,26.42-3.36,14.17-.03,28.35.45,42.49-.19,7.36-.34,12.86,2.24,17.98,6.78,7.43,6.57,15.86,12.17,20.64,21.3,1.28,2.44,2.66,4.86,3.6,7.43,3.67,10.02,5.88,20.29,4.96,31.07-.27,3.14-.16,6.34-.02,9.5.88,19.24-9.96,31.41-24.71,41.31-13.08,8.77-27.55,11.72-43.07,10.91-5.49-.29-11,.1-16.5-.08-11.53-.38-19.17-6.45-25.96-15.62-9.23-12.48-4.66-26.02-4.49-38.98.11-8.36,8.46-13.32,14.46-18.84,12.33-11.36,27.39-12.33,42.78-11.16,3.7.28,7.19,3.52,10.73,5.48,1.13.63,2.22,1.41,3.16,2.29,1.54,1.45,3.49,2.8,4.31,4.63,5.53,12.28-1.23,29.05-12.38,36.77-7.71,5.34-15.43,5.02-23.64,5.05-4.73.02-7.52-2.4-6.97-7.04.58-4.81.77-10.81,3.68-13.88,2.97-3.13,9.01-3.41,13.8-4.56.22-.05,2.34,3.99,1.78,5.44-.71,1.86-3.21,3.06-4.99,4.49-1.96,1.57-3.97,3.08-5.96,4.61Zm-416.77,22.66c0-3,.02-6,0-9-.02-3.67-1.83-4.81-5.53-5.43-11.03-1.86-20.33,3.83-30.23,6.48-6.36,1.7-12.18,5.61-18.05,8.85-6.9,3.81-12.07,8.87-10.89,17.8.28,2.13-.02,4.33.06,6.49.2,5.2,5.08,9.82,10.31,10.06,12.1.57,23.45-2.15,34.62-6.74,14.23-5.86,19.81-13.37,19.72-28.52Zm-343.48,30.61c3.74-8.45,7.29-16.39,10.76-24.37.38-.88.45-1.94.45-2.92.05-5.49.14-10.99,0-16.48-.11-4.34-5.93-12.66-9.96-13.44-6.9-1.34-13.91-2.27-20.91-2.89-4.92-.43-10.09,4.79-11.08,9.71-.87,4.33-1.98,8.71-3.74,12.75-3.17,7.28-1.6,15.99,4.54,20.99,3.17,2.58,7.18,4.39,9.69,7.46,5.39,6.59,13.3,6.28,20.25,9.2Z" stroke-width="0"/>
  <path d="m1604.69,106.64c0,8-.02,16,0,24,.01,5.85-.49,11.29-3.75,16.71-3.18,5.27-3.86,12.03-6.96,17.37-5.21,8.97-12.07,17-17.14,26.04-6.87,12.23-19.72,16.9-29.8,24.99-4.3,3.45-10.96,3.78-15.77,6.78-10.29,6.41-22.07,4.72-33.02,7.33-11.8,2.81-23.76,3.14-35.62,2.24-20.31-1.54-40.68-3.21-59.98-10.78-3-1.18-6.47-1.49-9.74-1.6-7.79-.27-15.54.29-23.09-2.9-4.03-1.7-8.77-1.67-13.16-2.6-2.25-.47-4.43-1.3-6.62-2.01-5.46-1.77-10.9-4.99-16.37-5.04-8.55-.07-15.18-4.67-22.65-7.12-7.96-2.61-15.74-5.9-23.31-9.49-7.88-3.74-15.35-8.31-23.12-12.28-3.63-1.86-7.51-3.23-11.34-4.68-2.76-1.05-5.62-1.85-8.44-2.77-2.16-.71-4.34-1.38-6.48-2.18-5.7-2.14-11.4-4.3-17.07-6.53-4.79-1.88-9.48-4.02-14.32-5.74-1.63-.58-3.6-.14-5.39-.36-4.38-.54-9.27-.17-12.99-2.06-4.23-2.15-8.22-3-12.76-2.94-8.66.13-17.35-.3-25.99.15-6.55.34-13.11,1.4-19.54,2.71-1.98.4-3.55,2.74-5.37,4.11-5.01,3.78-10.23,7.31-15.04,11.33-6.27,5.24-8.48,12.87-9.63,20.4-.99,6.52.19,13.33-.31,19.96-.68,9.09,4.58,15.71,9.7,21.58,7.05,8.08,16.77,12.36,27.88,12.63,1.76.04,3.48,1.02,5.26,1.38,5.97,1.23,11.93,2.58,17.95,3.52,6.66,1.05,13.36,1.93,20.07,2.45,4.52.35,10.66-4.84,11.89-9.31.31-1.12.46-2.42,1.14-3.27,4.04-5.08,4.1-10.95,3.98-17.02-.16-8.02-4.05-13.11-10.63-17.47-6.72-4.46-13.7-5.26-21.28-4.9-3.65.18-7.4.34-10.95-.33-1.59-.3-3.58-2.5-3.9-4.13-.22-1.1,2.14-3.86,3.41-3.9,9.3-.29,19.33-2.25,27.73.54,9.17,3.05,19.41,7.85,22.81,18.89,1.28,4.16.71,8.85,1.52,13.19,1.81,9.67-3.14,17.65-7.15,25.34-3.65,6.99-9.84,12.3-19.27,11.42-13.81-1.3-27.61-2.15-40.9-6.82-5.09-1.79-10.79-1.79-15.91-3.52-10.57-3.56-19.25-8.89-25.64-19.28-5.1-8.3-7.02-16.06-6.58-25.18.22-4.49.27-9.01-.03-13.49-.39-5.99,1.88-11.24,3.41-16.83,2.28-8.32,8.52-11.87,14.8-16.06,3.55-2.37,6.86-5.33,9.61-8.6,5.67-6.72,13.89-7.55,21.23-7.97,16.75-.94,33.64-.8,50.39.16,7.19.41,14.34,3.57,21.27,6.14,8.37,3.11,16.47,6.96,24.73,10.37,1.34.55,2.92.57,4.4.75,1.32.16,2.91-.22,3.94.38,9.92,5.8,21.93,6.64,31.18,14.65,5.51,4.77,13.48,6.75,20.47,9.72,10.17,4.32,20.31,8.77,30.72,12.42,5.37,1.88,11.3,2.16,16.98,3.18,1.47.26,3.22.17,4.36.94,9.01,6.12,20.37,4.32,29.82,8.97,1.53.75,3.61.55,5.43.51,9.35-.2,18.22.94,27.34,4.07,10.85,3.73,22.22,6.43,34.14,6.33,11.55-.1,23.12,2.09,34.68,2.05,8.53-.02,17.05-1.97,25.57-3.13,2.3-.31,4.57-1.3,6.85-1.28,5.34.06,9.87-1.96,14.65-4.06,12.12-5.33,23.55-11.86,34.19-19.57,4.54-3.29,7.9-8.43,11.17-13.16,5.27-7.61,10.39-15.37,14.87-23.46,2.52-4.55,3.01-10.22,5.52-14.78,2.73-4.96,3.18-9.92,3.14-15.29-.13-14.33-.47-28.68.09-42.99.53-13.52-5.34-24.61-12.41-35.06-7.36-10.86-16.35-20.5-27.25-28.06-2.09-1.45-4.67-2.32-7.14-3.05-3.3-.97-6.78-1.32-10.07-2.3-24.14-7.18-48.83-9.25-73.86-7.97-3.04.16-6.06,1.5-8.99,2.56-6.48,2.34-12.74,5.52-19.38,7.15-10.63,2.61-16.07,12.5-25.31,16.86-1.94.92-3.83,1.98-5.83,2.75-3.29,1.27-6.39,2.35-7.24,6.6-.33,1.67-2.32,3.15-3.79,4.44-5.79,5.09-11.35,10.35-14.15,17.79-.69,1.82-1.44,3.77-1.47,5.67-.15,10.16-.12,20.33-.02,30.5.01,1.6.28,3.44,1.1,4.74,4.74,7.49,9.76,14.79,14.5,22.27,1.38,2.18,1.6,5.29,3.32,7,5.73,5.71,11.59,11.39,18.03,16.25,3.95,2.99,9.07,4.43,13.63,6.63,3.68,1.78,7.2,3.96,11,5.44,13.79,5.4,27.91,8.49,42.95,7.15,8.6-.77,17.33-.44,25.98-.03,5.96.28,10.45-1.96,13.89-6.34,3.87-4.92,7.62-9.99,10.83-15.35,2.92-4.87,5.07-10.21,7.54-15.35.29-.59.63-1.23.66-1.86.89-15.84,1.77-31.68,2.52-47.52.06-1.37-.65-2.91-1.35-4.17-4.66-8.43-9.6-16.7-14.08-25.22-3.1-5.9-9.04-7.32-14.26-9.71-4.43-2.03-9.23-3.73-14.02-4.39-6-.82-12.34-1.4-18.21-.3-8.06,1.51-16.36,3.67-23.55,7.45-7.34,3.86-16.97,4.13-21.84,11.87-2.61,4.14-4.43,9.15-5.17,13.99-.88,5.7-.18,11.63-.21,17.47-.03,5.39,2.23,9.66,6.47,12.84,5.67,4.25,11.41,8.4,17.18,12.52,5.07,3.62,10.65,5.77,16.99,5.71,6-.06,12.05-.48,17.99.11,7.18.72,10.52-3.38,13.43-8.77,1.06-1.96,2.59-3.67,3.87-5.52.53-.76,1.23-1.54,1.4-2.4,1.64-8.47-3.16-18.37-10.84-22.14-1.26-.62-2.9-.59-4.37-.6-7.83-.06-15.67-.02-23.5-.03-1.33,0-2.92.38-3.94-.21-1.68-.97-2.98-2.59-4.45-3.93,1.46-1.52,2.88-4.3,4.38-4.34,11.15-.33,22.41-.95,33.42.34,4.51.53,8.7,5.3,12.69,8.56,9.12,7.46,4.33,17.83,5.24,27,.09.92-.27,2.1-.84,2.82-4.39,5.47-8.75,10.99-13.47,16.17-1.13,1.24-3.6,1.72-5.47,1.74-10.83.16-21.81,1.15-32.44-.31-6.66-.92-13.13-5.1-19.06-8.83-6.05-3.8-11.24-8.94-16.97-13.27-4.71-3.56-5.99-8.86-6.38-13.95-.67-8.78-.31-17.65-.14-26.48.14-7.47,10.05-20.02,17.12-22.2,1.89-.58,3.66-1.55,5.53-2.21,11.64-4.13,23.05-9.33,35.02-11.95,8.75-1.91,18.4-2.99,27.25,1.87,2.53,1.39,5.63,1.79,8.51,2.5,11.65,2.9,19.63,9.53,24.11,21.06,2.48,6.38,7.14,11.89,10.62,17.9,1.11,1.92,2.2,4.18,2.25,6.31.23,9.83.78,19.73-.1,29.48-.88,9.76-1.86,19.95-5.43,28.91-5.52,13.88-12.78,27.26-25.32,36.53-2.11,1.56-5.01,2.84-7.57,2.88-18,.24-36,.3-53.99-.03-3.62-.07-7.21-2-10.8-3.14-4.22-1.33-8.52-2.46-12.59-4.16-6.84-2.87-14.09-5.29-20.14-9.4-9.51-6.46-18.94-13.41-26.93-21.59-5.51-5.64-8.54-13.7-12.67-20.69-1.24-2.1-2.28-4.35-3.73-6.3-2.85-3.83-4.79-7.73-4.62-12.8.33-9.32.49-18.68,0-27.99-.51-9.67,4.49-16.79,9.82-23.8,2.29-3.01,5.46-5.36,8.19-8.04.82-.8,2.18-1.78,2.14-2.61-.3-5.89,3.83-7.4,8.19-9.06,7.17-2.73,13.92-6.05,18.88-12.36,5.44-6.93,14.22-8.07,21.67-11.37,6.27-2.77,13.03-4.46,19.62-6.5,2.19-.68,4.49-1.37,6.75-1.39,11.16-.14,22.35-.46,33.49.09,7.42.37,14.84,1.82,22.15,3.29,10.84,2.18,21.91,3.92,32.27,7.57,6.61,2.32,12.48,7.33,18.07,11.87,9.63,7.82,17.05,17.72,23.34,28.31,6.68,11.25,11.65,23.09,10.21,36.8-.64,6.1-.11,12.32-.11,18.49Z" stroke-width="0"/>
</svg>