<?xml version="1.0" encoding="UTF-8"?>
<svg id="Layer_1" data-name="Layer 1" xmlns="http://www.w3.org/2000/svg" viewBox="0 0 1399.85 46.13">
  <path d="m732.31.12c219.33,0,438.66,0,657.98,0,2,0,4.19-.42,5.94.26,1.54.59,3.29,2.31,3.6,3.81.2.94-1.89,3.05-3.31,3.48-2.15.65-4.61.36-6.94.36-325.49.04-650.98-.13-976.48.25-81.82.1-163.64,1.92-245.46,3.1-27.32.4-54.66.9-81.96,2.06-23.11.99-46.18,3.01-69.27,4.57-2.16.15-4.41.64-6.46.22-1.49-.3-2.73-1.85-4.09-2.84,1.1-1.42,2-3.8,3.34-4.09,5.03-1.08,10.18-1.79,15.32-2.08,24.78-1.4,49.55-3.23,74.36-3.79,67.47-1.52,134.95-2.94,202.44-3.55,104.15-.95,208.31-1.25,312.47-1.71,39.5-.17,79-.03,118.5-.03v-.02Z" stroke-width="0"/>
  <path d="m634.07,45.19c-208.16.29-416.32.59-624.48.87-2.16,0-4.48.29-6.43-.39C1.77,45.19-.01,43.28,0,42.03c.01-1.25,1.84-3.05,3.25-3.58,1.78-.66,3.94-.3,5.94-.3,154.5-.05,309,.1,463.49-.18,181.33-.33,362.65-.85,543.98-1.67,44.65-.2,89.29-2.14,133.95-2.77,37.16-.52,74.33-.29,111.49-.39,2.77,0,5.93.14,5.98,3.7.06,4.24-3.55,4.18-6.58,4.19-35.5.08-71.02-.72-106.49.32-173.63,5.08-347.29,1.84-520.94,3.84Z" stroke-width="0"/>
</svg>