<?xml version="1.0" encoding="UTF-8"?>
<svg id="Layer_1" data-name="Layer 1" xmlns="http://www.w3.org/2000/svg" viewBox="0 0 296.71 298.59">
  
  <title>PAP</title>

  <defs>
    <g id="Mask">
      <g id="_1-P-2" data-name="1-P">
        <polyline points="26.28 91.69 20.5 86.31 13.5 79.98 7.83 73.81 4.5 66.98 4.5 58.15 6.5 50.08 10.83 43.98 18.5 36.65 25.5 31.65 33 27.81 38.67 25.15 44.11 22.59 53.22 19.81 65.89 17.81 74.44 16.04 85.89 15.37 96.56 15.37 104.33 15.37 113.44 16.37 122.11 18.15 133.56 20.93 142.89 23.59 153.78 28.15 163.11 33.59 173.33 41.48 181 48.15 186.17 55.98 190.83 62.98 193.83 68.48 196.5 76.15 197.83 82.31 197 90.31 193.83 99.31 190 104.48 182.33 111.31 170.78 119.31 160.17 123.81 148.67 127.96 132.83 132.31 117.84 136.15 101.17 138.48 83.33 140.72 67.33 140.72 48.5 139.98 40.11 139 27.67 135.65 23.19 131.31 20.33 127.96 19.67 122.98 21.17 116.65 26.67 110.98 31 105.48 44 94.54 52.67 88.65 63.83 82.15 99.83 66.65 123.83 59.15 157 51.31 202.33 44.15 241.1 39.61" fill="none" stroke="#e90000" stroke-miterlimit="10" stroke-width="9"/>
        <polyline points="40.17 .1 38.33 86.48 38.33 115.48 40.62 160.93 44 196.21 48.27 254.76 41.08 229.31" fill="none" stroke="#e90000" stroke-miterlimit="10" stroke-width="9"/>
      </g>
      <g id="_2-AP-2" data-name="2-AP">
        <polyline id="A" points="145.25 256.05 143.89 225.93 147 194.15 151.22 175.48 160.11 156.81 161.44 155.7 175.08 252.06" fill="none" stroke="#e90000" stroke-miterlimit="10" stroke-width="9"/>
        <polyline id="A-H" points="130.25 216.05 145.92 203.55 160.51 198.63 175.1 196.68 204.45 194.8 226.33 193.65" fill="none" stroke="#e90000" stroke-miterlimit="10" stroke-width="11"/>
        <path id="P" d="m223.83,160.93s5,4.43,4.83,11.91-1.5,20.81-1.5,20.81v10.5l.17,17.33-.17,30-1.99,15s-1.43,11.79-5.18,3.5-4.17-28.5-4.17-28.5l-2.17-37.83v-22.17s6.33-26.83,9.33-28.17,2.5-7,14.83-8,16.83,1.33,19,3,8.33,5.61,9.33,7.39,8,10.18,8,10.18l5,12.15-.83,8.62-7.17,7-10.5,3.83-11.5,1.67-8.83-3.83-2.67-7.33,3.43-7.54,7.07-7.6,10.33-6.02s17.61-12.61,26.67-13.89,10.5-1.56,10.5-1.56" fill="none" stroke="#e90000" stroke-miterlimit="10" stroke-width="11"/>
      </g>
    </g>
  </defs>
  
  <g id="Letters">
    <path id="_1-P" data-name="1-P" d="m42.36,230.15c-1.95-27.82-3.96-55.63-5.78-83.46-.3-4.52-2.49-6.42-6.65-7.26-11.4-2.3-16.17-12.05-10.53-22.26,2.59-4.69,6.07-9.03,9.74-12.97,5.47-5.87,6.51-12.88,6.5-20.34,0-9.82-.26-19.64-.07-29.45.13-6.46.76-12.91,1.37-19.35.36-3.76-1.08-5.43-4.42-3.91-9.91,4.49-18.45,10.71-22.9,21.11-4.07,9.53-1.34,19.31,6.71,25.89,3.21,2.63,6.47,5.29,9.23,8.35.96,1.07.51,3.41.71,5.17-1.87,0-4.51.81-5.49-.13-5.75-5.45-11.73-10.85-16.46-17.15-6.12-8.15-4.01-22.69,3.79-31.56,6.89-7.84,15.01-14.1,24.87-17.81,3.68-1.38,4.44-4.16,4.27-7.57-.2-4.14-.74-8.3-.47-12.4.1-1.44,2.15-2.76,3.31-4.13,1.18,1.4,3.1,2.67,3.36,4.22.42,2.54-.08,5.28-.48,7.89-.85,5.52,1.27,7.27,6.71,6.19,11.71-2.34,23.42-5.54,35.25-6.2,24.68-1.37,48.88,2.05,71.12,13.66,7.3,3.81,13.92,9.11,20.34,14.36,3.57,2.92,6.82,4.05,11.33,3.28,14.74-2.54,29.54-4.78,44.32-7.11,1.47-.23,3.1-.69,4.44-.3,1.65.48,3.08,1.74,4.61,2.66-1.32,1.61-2.43,4.33-3.99,4.62-4.54.83-9.27.65-13.92.94-10.12.65-20.25,1.16-30.34,2.1-6.82.63-7.12,2.24-3.37,8.16,3.78,5.96,8.34,11.96,10.08,18.59,4.18,15.92-2.58,30.38-16.27,39.67-14.08,9.54-29.6,15.66-45.84,20.14-25.65,7.08-51.83,10.15-78.41,9.83-3.97-.05-7.95-.75-11.91-1.26-4.14-.53-6.23.5-5.66,5.35,2.41,20.81,4.58,41.64,6.84,62.47,1.26,11.58,2.54,23.16,3.77,34.74.16,1.48.47,3.18-.08,4.44-.87,2.02-2.06,4.85-3.73,5.36-3.19.97-5.43-1.47-5.82-4.63-.81-6.59-1.27-13.22-1.87-19.83.59-.05,1.18-.09,1.77-.14Zm28.02-91.15l.02-.37c1.99,0,3.99.05,5.98,0,17.66-.53,35.07-2.78,52.26-6.99,19.03-4.67,37.68-10.3,53.03-23.09,9.32-7.77,16.4-17.78,13.05-30.41-2.23-8.4-7.7-15.98-12.07-23.74-2.18-3.86-6-4.9-10.37-4.02-3.91.79-7.84,1.49-11.79,2.07-23.79,3.5-46.62,10.49-68.88,19.37-15.62,6.23-30.99,13.06-44.56,23.18-2.77,2.07-6.46,5.17-6.66,8-.65,9.57-.08,19.24.36,28.85.16,3.52,2.3,5.63,6.22,5.79,7.81.32,15.6.9,23.4,1.37Zm-28.12-79.35c-.55,0-1.09,0-1.64.01,0,8.98-.05,17.96.05,26.94.02,1.52.64,3.04.98,4.55,1.55-.35,3.31-.35,4.62-1.11,17.82-10.46,36.34-19.18,55.94-26.02,20.03-6.99,40.55-11.47,61.18-15.83,2.27-.48,4.63-.92,6.65-1.96.68-.35.99-3.41.5-3.73-8.49-5.49-16.58-12.23-25.88-15.68-11.71-4.35-24.32-6.63-36.73-8.61-20.27-3.24-40.15-.07-59.61,5.96-3.81,1.18-6.18,3.57-6.1,8.03.15,9.14.05,18.29.05,27.44Zm-7.37,63.36c0-4.71.15-8.05-.07-11.36-.09-1.29-1-2.53-1.54-3.8-1.02.7-2.3,1.21-3.02,2.15-1.73,2.22-3.38,4.55-4.75,7.01-4.7,8.44-1.94,12.18,5.58,16.44,2.69,1.52,4.54.63,4.29-2.86-.21-2.98-.39-5.97-.49-7.58Z" stroke-width="0"/>
    <path id="_2-AP" data-name="2-AP" d="m140.48,214.47c-1.81.98-2.63,1.76-3.48,1.81-1.57.1-4.09.3-4.56-.51-.8-1.36-1.07-4.15-.2-5.14,2.26-2.57,5.44-4.3,7.9-6.73,1.52-1.5,2.95-3.52,3.43-5.54,2.17-9.06,3.63-18.29,6.07-27.27,1.41-5.2,3.97-10.14,6.47-14.97.77-1.49,3.65-3.44,4.5-3.02,2.01.99,4.49,3.1,4.81,5.08,1.51,9.5,2.68,19.09,3.35,28.69.4,5.79,1,6.54,6.68,6.05,9.11-.78,18.25-1.21,27.38-1.58,7.22-.29,7.66-.93,8.87-7.79,1.58-8.95,3.36-17.93,5.9-26.64,3.26-11.15,14.77-17.76,26.24-15.88,8.61,1.41,16,5.52,22.75,10.8,3.39,2.65,6.19,3.61,10.23.78,2.71-1.89,6.46-2.56,9.85-3.07,1.27-.19,2.85,1.6,4.29,2.49-.9,1.43-1.48,3.32-2.76,4.17-1.74,1.16-4.03,1.48-6.06,2.23-5.33,1.95-5.77,3.04-3.44,8.03.91,1.96,1.65,4,2.58,5.94,5.43,11.32.83,20.3-10.32,25.73-7.68,3.74-16.15,5.05-24.78,3.02-10.11-2.38-13.6-9.83-9.31-19.31,4.01-8.87,11.51-14.06,19.44-18.7,6.83-3.99,7.15-5.95.87-10.49-9.74-7.03-22.19-6.75-29.37.63-2.24,2.3-2.65,3.88.19,6.52,2.02,1.87,3.77,5.57,3.45,8.18-3.4,27.23-.04,54.54-1.26,81.78-.28,6.31-.49,12.63-1.12,18.91-.34,3.42-1.92,7.27-5.93,6.59-2.16-.37-4.96-3.63-5.45-5.99-1.89-9.27-3.38-18.67-4.24-28.09-1.13-12.43-1.64-24.92-2.15-37.39-.19-4.79-1.92-7.09-6.94-6.7-9.76.76-19.54,1.32-29.31,2-3.74.26-4.64,2.29-3.95,5.83,2.29,11.75,4.43,23.54,6.48,35.33.39,2.25.71,4.8.02,6.86-.55,1.64-2.7,2.74-4.14,4.08-1.17-1.52-3.15-2.93-3.38-4.58-1.82-12.81-3.27-25.67-4.92-38.5-.84-6.55-2.84-7.12-9.04-4.88-7.52,2.72-10.18,7.86-9.71,15.24.56,8.77,1.25,17.53,1.92,26.3.11,1.49.83,3.05.54,4.43-.44,2.16-1.49,4.19-2.29,6.28-1.69-1.92-4.71-3.74-4.85-5.76-.64-9.12-.43-18.29-.61-27.45-.05-2.37-.39-4.73-.66-7.77Zm114.54-19.2l.47.93c4.94-2.07,10.24-3.58,14.75-6.35,6.88-4.23,7.91-10.56,3.88-17.57-.57-1-1.03-2.08-1.44-3.16-1.66-4.42-5.12-5.67-8.65-3.22-6.59,4.58-13.3,9.3-18.78,15.08-5.85,6.18-3.09,12.36,5.31,13.92,1.45.27,2.96.25,4.45.37Zm-33.2,60.35l1.21-.08c.35-1.18.97-2.36,1.01-3.55.5-16.26,1.04-32.52,1.15-48.78.01-1.62-2.59-4.37-4.31-4.66-3.2-.55-3.99,2.38-3.81,5.08,1.05,15.73,2.14,31.45,3.33,47.16.12,1.64.94,3.23,1.44,4.84Zm-61.41-87.42c-.48-.05-.97-.09-1.45-.14-.71.83-1.79,1.56-2.08,2.51-2.41,8.11-4.79,16.23-6.8,24.44-.19.78,2.26,3.22,3.37,3.15,8.86-.54,11.48-4.23,9.85-13.11-.42-2.29-.66-4.6-1.06-6.9-.58-3.33-1.22-6.65-1.84-9.97Zm62.53-2.31c-.61,0-1.23,0-1.84-.01-.79,1.9-1.96,3.73-2.29,5.71-.75,4.39-.98,8.87-1.61,13.28-.41,2.88.23,5.58,3.3,5.29,1.66-.16,4.13-2.86,4.36-4.66.6-4.55.34-9.26.03-13.88-.13-1.94-1.27-3.82-1.95-5.73Z" stroke-width="0"/>
  </g>

</svg>