<?xml version="1.0" encoding="UTF-8"?>
<svg id="Layer_1" data-name="Layer 1" xmlns="http://www.w3.org/2000/svg" viewBox="0 0 857.77 121.87">
  <path d="m499.91,22.45c-5.49,0-11-.21-16.47.15-1.37.09-3.61,1.88-3.76,3.09-.92,7.76-1.5,15.56-1.83,23.37-.05,1.13,1.6,2.85,2.85,3.39,1.76.76,3.89.95,5.84.89,14.26-.46,28.59-.35,42.23-5.75,3.18-1.26,6.99-2.36,8.64,2.58,1.81,5.39.63,8.76-4.58,10.29-4.58,1.34-9.43,2.03-14.21,2.37-11.79.85-23.6,1.41-35.41,1.92-4.89.21-8.01,1.74-8.83,7.24-1.11,7.39-2.97,14.66-4.52,21.98-.82,3.88.56,5.34,4.68,5.27,22.53-.36,44.91-1.87,66.62-8.51,3.67-1.12,6.54-1.08,8.43,2.69,2,3.99.09,6.97-3.05,8.91-2.31,1.42-5.2,2.25-7.92,2.6-18.81,2.45-37.67,4.58-56.47,7.09-5.58.74-11.04,2.4-16.57,3.57-6.68,1.41-11.03-1.27-10.58-8.06.61-9.39,2.2-18.8,4.27-27.99,4.3-19.1,5.71-38.47,6.47-57.93.31-8.05,7.4-14.3,15.45-13.08,21.18,3.22,42.11,2.53,62.74-3.66,1.75-.52,3.56-.85,5.34-1.24,3.89-.86,7.41-.1,8.28,4.13.8,3.94-1.07,7.4-5.23,8.44-5.95,1.49-11.98,2.91-18.06,3.62-11.4,1.33-22.85,2.14-34.29,3.16-.02-.18-.04-.35-.05-.53Z" stroke-width="0"/>
  <path d="m130.51,32.71c-5.1,0-9.73.23-14.32-.08-3.03-.2-4.64-2.19-4.57-5.46.06-3.08.54-5.59,4.18-6.34,16.59-3.43,33.11-7.25,49.77-10.3,9.25-1.69,18.62-.9,27.59,2.39,8.77,3.22,11.86,8.12,11.79,17.41-.1,13.61-6.87,23.31-17.55,30.78-5.04,3.53-10.24,6.82-15.9,10.58,11.67,10.47,24.14,19.15,38.31,25.19,5.02,2.14,10.4,3.45,15.59,5.21,2.24.76,5.9-.37,5.64,3.93-.23,3.85-2.37,6.47-6.1,6.77-3.93.31-8.11.41-11.86-.6-19.96-5.38-36.32-16.87-51.24-30.81-2.49-2.32-6.01-3.59-9.16-5.12-.97-.47-2.32-.1-3.46-.31-3.39-.64-8.03.27-8.01-5.25.02-4.25,4.83-8,9.55-7.63,2.3.18,4.58,1.29,6.84,1.24,3.16-.08,6.8,0,9.36-1.49,9.57-5.58,18.01-12.64,24.18-22.01,5.89-8.95,4.03-15.14-6.33-17.41-6.95-1.53-14.51-1.27-21.67-.57-6.21.61-12.34,2.72-18.33,4.7-1.71.56-3.85,2.85-4.04,4.53-2.16,19.86-4.08,39.75-5.78,59.66-.29,3.39.77,6.9,1.2,10.35.25,1.98,1.22,4.26.55,5.86-.98,2.34-2.79,5.21-4.89,5.9-1.57.52-5.59-1.68-6.02-3.32-1.48-5.68-3-11.75-2.46-17.48,1.89-20.04,4.64-40.01,7.11-60.31Z" stroke-width="0"/>
  <path d="m240.85,80.53c1.23-5.89,1.76-10.74,3.27-15.26,6.84-20.5,18.19-38.17,34.91-51.93,5.56-4.57,12.23-8,18.82-11.03,6.52-3.01,13.33-3.46,19.95.95,2.97,1.98,6.87,2.49,10.11,4.13,11.38,5.75,19.83,14.44,25.21,26.03,4,8.61,2.82,17.52-.14,25.83-2.69,7.56-6.15,15.3-11.08,21.54-14.05,17.77-32.92,28.75-55.11,32.42-16.89,2.8-34.32-3.54-41.36-18.46-2.22-4.7-3.25-9.96-4.59-14.21Zm42.29,22.75c5.29-1.17,9.01-1.5,12.35-2.81,18.51-7.28,33.43-19.23,43.82-36.2,10.42-17.01,5.6-34.8-11.65-44.8-2.04-1.18-4.87-1.15-7.36-1.39-6.87-.68-13.81-2.46-20.49,1.02-.13.07-.36.04-.49-.03-5.36-3.06-9.43.09-12.98,3.25-15.36,13.68-26.42,30.27-31.99,50.16-2.87,10.25,1,19.64,10.5,24.5,6.06,3.1,12.97,4.54,18.27,6.32Z" stroke-width="0"/>
  <path d="m677.78,61.7c4.46,2.44,4.72,5.32,3.31,8.27-1.2,2.52-2.67,5.1-4.63,7.03-17.85,17.6-37.57,32.57-61.81,40.1-7.3,2.27-15.39,3.01-23.07,2.79-14.54-.42-24.34-10.42-25.84-24.93-2.01-19.37,4.06-36.6,15.04-52.09,12.89-18.2,30.01-31.04,51.61-37.37,11.43-3.35,19.51-.26,24.25,8.86.31.59.63,1.18.87,1.8,2.3,6.09-7.73,22.92-14.21,23.29-1.96.11-5.14-1.19-5.76-2.68-.85-2.05-.58-5.37.6-7.29,2.39-3.89,5.72-7.21,8.77-10.9-5.13-3.6-10.01-2.9-14.8-1.08-25.98,9.85-43.23,28-51.37,54.62-2.45,8-4.06,16.17-2.02,24.59,1.69,6.97,6.25,11.23,13.37,12.39,8.68,1.42,16.94-.47,24.88-3.69,22.13-8.99,40.4-23.65,57.7-39.69,1.21-1.12,2.06-2.63,3.11-4.01Z" stroke-width="0"/>
  <path d="m21.96,18.58c-5.2,1.72-10.33,3.68-15.63,5.04-1.92.49-4.21-.47-6.34-.77.44-2.5.02-5.9,1.5-7.29,2.66-2.51,6.26-4.47,9.81-5.5C27.86,5.23,44.82,2.77,62.08,3.84c7.75.48,15.64,1.36,23.09,3.45,13.36,3.74,16.62,11.68,11.32,24.36-3.29,7.85-9.14,13.44-15.8,18.26-16.81,12.16-34.93,21.92-54.65,28.44-4.1,1.36-5.5,3.34-5.14,7.49.73,8.45,1.16,16.94,1.65,25.41.12,1.99.63,4.3-.16,5.91-.96,1.96-2.9,4.25-4.8,4.68-1.52.34-4.79-1.53-5.26-3.05-1.65-5.35-3.01-10.92-3.44-16.49-1.89-24.51,2.17-48.43,8.1-72.07,1.01-4.04,3.27-7.77,4.96-11.64,8.79,1.03,10.02,2.88,7.38,11.27-.75,2.38-1.84,4.67-2.31,7.1-1.92,9.98-3.66,19.99-5.47,30,.52.3,1.04.6,1.56.9,11.29-5.13,22.93-9.63,33.77-15.59,8.2-4.51,15.69-10.51,22.87-16.59,3.24-2.74,5.26-7.13,7.31-11.04,1.85-3.52.15-6.27-3.47-7.33-3.65-1.07-7.42-1.83-11.19-2.31-17.04-2.2-33.79.1-50.45,3.59Z" stroke-width="0"/>
  <path d="m849.11,32.88c-2.03-10.8-5.67-13.71-16.63-13.89-11.73-.2-22.88,1.96-33,8.12-12.04,7.33-12.9,16.1-1.08,23.78,7.34,4.77,16.43,6.85,24.72,10.17,7.08,2.84,14.57,4.97,21.11,8.75,11.43,6.61,12.89,17.32,4.12,27.21-10.93,12.34-25.35,18.51-41.12,22-9.88,2.18-19.7,3.45-29.38-1-3-1.38-4.99-3.01-4.25-6.82,1.01-5.18,2.37-6.32,7.51-4.85,20.01,5.74,37.35-.49,53.58-11.78,1.08-.75,2.04-1.72,2.95-2.69,5.01-5.35,4.62-9.35-1.79-12.67-4.24-2.2-8.92-3.6-13.45-5.19-7.68-2.7-15.8-4.51-23-8.14-6.22-3.14-12.35-7.51-16.85-12.76-8.11-9.46-6.53-21.57,2.87-29.72,10.24-8.88,22.44-13.93,35.77-15.15,8.15-.74,16.65-.26,24.71,1.22,10.04,1.85,13.91,9.34,10.85,18.03-1.25,3.54-3.39,5.65-7.64,5.39Z" stroke-width="0"/>
  <path d="m709.96,91.32c2.02-19.19,4.13-39.38,6.26-59.57.14-1.32.3-2.65.49-3.96.51-3.46-.62-4.9-4.4-4.36-10.87,1.56-21.78,2.91-32.68,4.25-2.3.28-4.83.79-6.92.13-2.02-.64-4.59-2.33-5.16-4.13-.99-3.07,1.49-4.85,4.48-5.26,8.74-1.18,17.49-2.23,26.23-3.39,21.44-2.85,42.87-5.78,64.33-8.55,3.77-.49,7.64-.6,11.44-.38,4.11.24,6.84,3.58,6.38,7.39-.52,4.33-3.92,5.62-7.32,4.94-13.49-2.69-26.41,1.79-39.6,2.67-3.76.25-5.7,2.48-5.93,6.15-1.44,22.76-2.97,45.52-4.17,68.3-.21,3.91,1.12,7.89,1.57,11.85.55,4.82-1.86,9.4-5.23,9.48-4.62.12-7.03-3.25-7.77-7.11-1.08-5.69-1.3-11.54-2-18.44Z" stroke-width="0"/>
  <path d="m418.22,33.82c0-7.49,0-14.98,0-22.47,0-3.6,3.15-7.18,6.63-7.4,4.1-.26,6.04,1.97,6.64,5.85,3.18,20.54,4.13,41.15.19,61.64-2.53,13.17-8.75,24.68-18.81,33.91-9.77,8.97-21.65,8.97-33.46,7.15-7.07-1.09-13.93-4.07-20.65-6.78-3.44-1.39-5.63-4.56-3.69-8.56,1.97-4.06,5.69-5.17,9.74-3.84,5.21,1.71,10.24,3.94,15.35,5.93,12.82,4.99,25.33.47,31.88-11.64,5.79-10.7,6.96-22.48,7.48-34.32.29-6.48.05-12.98.05-19.47-.46,0-.92,0-1.38,0Z" stroke-width="0"/>
</svg>