<?xml version="1.0" standalone="no"?>
<!DOCTYPE svg PUBLIC "-//W3C//DTD SVG 1.1//EN" "http://www.w3.org/Graphics/SVG/1.1/DTD/svg11.dtd" >
<svg xmlns="http://www.w3.org/2000/svg" xmlns:xlink="http://www.w3.org/1999/xlink" version="1.1">
<metadata>
Created by FontForge 20201107 at Fri Apr 19 00:30:47 2019
 By 
</metadata>
<defs>
<font id="KoskoRegular-Regular" horiz-adv-x="370" >
  <font-face 
    font-family="Kosko Regular"
    font-weight="400"
    font-stretch="normal"
    units-per-em="1000"
    panose-1="2 0 5 3 0 0 0 0 0 0"
    ascent="800"
    descent="-200"
    x-height="533"
    cap-height="788"
    bbox="33 -320 990 891"
    underline-thickness="50"
    underline-position="-200"
    unicode-range="U+000D-0491"
  />
<missing-glyph horiz-adv-x="364" 
d="M33 0v666h265v-666h-265zM66 33h199v600h-199v-600z" />
    <glyph glyph-name=".notdef" horiz-adv-x="364" 
d="M33 0v666h265v-666h-265zM66 33h199v600h-199v-600z" />
    <glyph glyph-name=".null" 
 />
    <glyph glyph-name=".null" 
 />
    <glyph glyph-name="nonmarkingreturn" horiz-adv-x="333" 
 />
    <glyph glyph-name="CR" unicode="&#xd;" 
 />
    <glyph glyph-name="space" unicode=" " 
 />
    <glyph glyph-name="exclam" unicode="!" horiz-adv-x="268" 
d="M63 50q10 11 25 11q16 0 28.5 -10.5t12.5 -26.5q0 -14 -21.5 -35t-35.5 -21q-25 0 -25 36q0 27 16 46zM173 785q8 13 26 13q16 0 22 -11q1 -1 1 -8q0 -38 -25 -185q-31 -180 -38 -271q-5 -66 -11.5 -87.5t-24.5 -21.5q-1 0 -3 0.5t-4 0.5l-19 2l1 76q2 89 34 277
q35 205 41 215z" />
    <glyph glyph-name="quotedbl" unicode="&#x22;" horiz-adv-x="270" 
d="M179 823q10 13 22 13q11 0 18.5 -10.5t7.5 -26.5q0 -9 -1 -13q-6 -23 -10 -106q-5 -80 -17 -87q-7 -4 -13 -4q-21 0 -32 39q-2 10 -2 24q0 41 9 101t18 70zM56 820q7 14 21 14q16 0 22 -11t6 -47q0 -11 -2 -57q-3 -60 -6.5 -78t-11.5 -23q-7 -4 -15 -4q-20 0 -26 23
q-2 12 -2 33q0 40 4.5 90t9.5 60z" />
    <glyph glyph-name="numbersign" unicode="#" horiz-adv-x="616" 
d="M408 338q1 2 1 4q0 6 -16 7.5t-71 1.5q-91 0 -93 -6q-8 -32 -17 -83l-4 -19l89 4q89 4 92 7l8 37q7 32 11 47zM217 524q9 6 17 6q9 0 18 -10q6 -8 6 -25q0 -19 -9 -63l-5 -24h76q77 0 94 8t25 50q13 66 34 66q9 0 20 -11q7 -7 7 -20q0 -10 -3 -26q-5 -35 -5 -44
q0 -8 2.5 -11.5t7 -4t15.5 -0.5q53 0 53 -31q0 -16 -12 -21t-49 -5h-38l-8 -37q-8 -35 -8 -45q0 -13 8 -17t33 -6q42 -4 51 -8.5t9 -19.5q0 -17 -9 -22t-41 -5h-16h-20q-20 0 -25.5 -3t-7.5 -12q0 -4 -2.5 -15t-6 -29.5t-5.5 -31.5q-9 -48 -17.5 -64.5t-23.5 -16.5
q-25 0 -25 26q0 12 7 45q11 51 11 72v23h-68h-36.5t-26.5 -1.5t-20.5 -1.5t-13 -4.5t-10 -6.5t-5 -11t-4.5 -14.5t-3 -19.5q-16 -93 -43 -93t-27 30q0 12 7 47q2 12 5.5 27t5 23t1.5 9q0 5 -40 5q-41 0 -49 12q-3 5 -3 10q0 12 14.5 22t33.5 10q36 0 47 7t15 31q1 10 4.5 30
t4.5 25l4 24l-43 -5q-24 -2 -28 -2q-19 0 -32 12t-13 17q0 4 3 10q10 15 68 21l59 7l13 53q12 51 22 59z" />
    <glyph glyph-name="dollar" unicode="$" horiz-adv-x="385" 
d="M182 611q7 13 23 13q11 0 19 -8q9 -9 9 -40t11 -31q17 0 38 -14.5t21 -30.5q0 -10 -8 -18t-15 -8q-5 0 -20 5q-21 8 -51 8q-32 0 -46 -10q-26 -18 -26 -61q0 -12 3 -21q5 -14 22.5 -27.5t63.5 -35.5q31 -15 57 -36q22 -19 40 -56t18 -65q0 -39 -26 -74t-60 -43
q-13 -3 -17.5 -10t-9.5 -32q-4 -26 -8.5 -31.5t-19.5 -5.5q-16 0 -18.5 4.5t-4.5 28.5q-1 23 -6 30t-26 15q-27 10 -59.5 34.5t-37.5 37.5q-1 2 -1 7q0 10 8 18.5t18 8.5q13 0 47 -25q44 -31 81 -31q19 0 33 5q27 7 40 32q8 19 8 36q0 60 -70 94q-98 46 -118 87
q-14 27 -14 60q0 35 18 65.5t50 46.5q17 9 22 16t5 23q0 25 7 39z" />
    <glyph glyph-name="percent" unicode="%" horiz-adv-x="862" 
d="M741 112q-18 22 -28 22t-32.5 -27t-27.5 -44q-1 -2 -1 -7q0 -15 16 -26t38 -11q15 0 22.5 4.5t16.5 18.5q13 20 13 34q0 16 -17 36zM689 188q23 10 41 10q38 0 66 -58q20 -45 20 -68q0 -21 -14 -51q-28 -60 -96 -60q-47 0 -80 23.5t-33 57.5q0 43 28 86.5t68 59.5z
M233 347q12 27 12 45q0 38 -58 38q-22 0 -32.5 -4.5t-26.5 -20.5t-20.5 -27t-4.5 -35q0 -23 3 -31.5t15 -17.5q20 -16 37 -16t40 21.5t35 47.5zM150 485q16 7 46 7q2 0 7 -0.5t8 -0.5q26 -3 37.5 -9t30.5 -25q16 -16 20.5 -24t4.5 -22q0 -13 -1 -23q-4 -59 -41 -107t-84 -57
q-6 -1 -17 -1q-55 0 -92 37q-17 17 -20.5 27.5t-3.5 44.5q0 59 24.5 95t80.5 58zM739 761q21 22 30 22q6 0 20 -7q13 -8 13 -19q0 -16 -21 -37q-20 -20 -40 -58q-17 -34 -58 -100t-59 -100q-24 -45 -49.5 -88.5t-57.5 -98.5t-54 -93q-37 -62 -98 -162q-42 -63 -76 -128
q-47 -85 -66.5 -113t-32.5 -28q-5 0 -13 5q-14 9 -14 23q0 19 26 58q26 40 58.5 98t59.5 102q43 66 106 176q157 273 204 350q24 40 72 124q26 50 50 74z" />
    <glyph glyph-name="ampersand" unicode="&#x26;" horiz-adv-x="771" 
d="M375 334q-16 38 -21 38q-10 0 -62.5 -39.5t-90.5 -75.5q-98 -92 -98 -136q0 -18 14 -38t57.5 -54t69.5 -44q15 -7 40 -7q44 0 99 23t96 61l34 30l-22 27q-18 23 -58 97t-58 118zM521 704q-25 7 -48 7q-33 0 -50 -17q-26 -26 -42.5 -71t-16.5 -86q0 -39 15 -60q6 -8 11 -8
q6 0 34 16q113 65 133 105q16 29 16 55q0 45 -52 59zM415 759q21 9 55 9q32 0 66 -7q71 -15 93 -88q5 -20 5 -30q0 -15 -10 -45q-15 -48 -52.5 -83t-131.5 -88l-34 -19l20 -49q21 -50 59 -118.5t53 -83.5l16 -16l49 48q40 38 57 51.5t27 13.5q7 0 17 -7q19 -11 19 -20
t-63 -68l-64 -60l15 -27q17 -30 45 -61q29 -32 29 -52q0 -15 -18 -18h-4q-37 0 -82 68q-25 38 -30 38q-3 0 -38 -31q-45 -42 -111 -69.5t-121 -27.5q-3 0 -8 0.5t-7 0.5q-44 4 -90 34q-131 86 -131 169q0 42 31 86q24 35 88.5 93.5t117.5 94.5q48 33 48 43q0 3 -1 4
q-23 54 -23 103q0 19 3 37q10 57 41 108.5t65 66.5z" />
    <glyph glyph-name="quotesingle" unicode="'" horiz-adv-x="162" 
d="M70 838q9 10 25 10q18 0 23 -11v-3q1 -2 1 -4q0 -26 -10 -98q-15 -96 -27 -103q-5 -4 -13 -4q-24 0 -27 39v8q0 33 10.5 95t17.5 71z" />
    <glyph glyph-name="parenleft" unicode="(" horiz-adv-x="412" 
d="M324 -198q-4 0 -27.5 18t-28.5 18q-14 0 -70 54t-80 90q-29 41 -54 102q-13 33 -16.5 53t-3.5 70v42q0 73 3.5 105t16.5 81q16 58 49 140.5t52 110.5q52 76 116 124q40 29 58 29q13 0 21 -13q5 -8 5 -13q0 -18 -45 -47q-62 -41 -115 -133t-84 -213q-18 -71 -19 -171
q0 -66 3 -88.5t16 -55.5q17 -45 44 -87q20 -32 69 -80.5t62 -48.5t33.5 -20.5t20.5 -33.5t-8 -23t-18 -10z" />
    <glyph glyph-name="parenright" unicode=")" horiz-adv-x="369" 
d="M74 797q5 3 10 3q35 0 84 -85q31 -49 62 -97q41 -62 68 -152q18 -57 22 -82.5t4 -76.5v-47q0 -81 -3 -106t-17 -63q-50 -132 -132 -236q-71 -88 -98 -88q-10 0 -18 8t-8 18q0 18 30 47q75 79 127 179q42 81 52 120.5t10 124.5q0 67 -3.5 95t-19.5 80q-20 66 -33 94.5
t-45 73.5q-17 24 -39 61t-41 62q-24 28 -24 47q0 13 12 20z" />
    <glyph glyph-name="asterisk" unicode="*" horiz-adv-x="297" 
d="M135 720q12 12 22 12q23 0 23 -37q0 -18 9 -18q1 0 13 2q7 2 19 2q31 0 31 -25q0 -18 -26 -28l-25 -11l14 -25q15 -24 15 -44q0 -15 -11 -20q-6 -3 -13 -3q-23 0 -37 32q-10 24 -21 24q-12 0 -33 -28q-22 -28 -39 -28q-10 0 -19 10q-5 7 -5 14q0 21 26 49q13 13 13 17
q0 3 -10 3q-13 0 -25 12.5t-12 24.5q0 10 5.5 13t23.5 3h12h17q14 0 17 2.5t3 14.5q0 19 13 32z" />
    <glyph glyph-name="plus" unicode="+" horiz-adv-x="515" 
d="M241 555q16 11 21 11q6 0 18 -13q10 -10 10 -50q0 -34 -1 -59l-3 -94l77 5q36 2 46 2q60 0 60 -25v-5q-3 -19 -27.5 -26.5t-86.5 -7.5q-51 0 -65.5 -2t-17.5 -10q-5 -12 -7 -94q-2 -80 -6 -88q-5 -8 -16 -8q-19 0 -29 18q-10 16 -10 53q0 26 1 44l3 80h-66q-53 0 -75 8.5
t-22 27.5q0 23 63 23q4 0 13.5 -0.5t15.5 -0.5q36 -2 44 -2q30 0 37 12.5t7 59.5v34q0 69 2.5 84t13.5 23z" />
    <glyph glyph-name="comma" unicode="," horiz-adv-x="205" 
d="M95 -138q13 26 18.5 33t14.5 7h6q29 -3 29 -24q0 -15 -15 -45q-19 -37 -37 -92q-17 -51 -28 -58q-5 -3 -11 -3q-10 0 -19 9t-9 22q0 18 16 65t35 86z" />
    <glyph glyph-name="hyphen" unicode="-" horiz-adv-x="476" 
d="M186 345q100 2 172 4h8q36 0 51.5 -7t15.5 -24q0 -21 -30.5 -25.5t-168.5 -4.5q-121 1 -151.5 3t-34.5 10q-8 12 5 27q9 10 29.5 12.5t103.5 4.5z" />
    <glyph glyph-name="period" unicode="." horiz-adv-x="157" 
d="M58 -46q13 13 20 13q6 0 23 -11q14 -11 14 -20q0 -3 -2 -11q-8 -36 -36 -36q-15 0 -24 9.5t-9 23.5q0 18 14 32z" />
    <glyph glyph-name="slash" unicode="/" horiz-adv-x="685" 
d="M550 721q20 31 29 39.5t22 8.5q37 0 37 -24q0 -20 -27 -47q-29 -31 -44 -63q-45 -93 -121 -212q-64 -98 -161 -283q-50 -92 -63 -112q-17 -23 -52 -84.5t-44 -82.5q-9 -24 -28 -34q-12 -6 -18 -6q-8 0 -18 7q-15 11 -15 20q2 8 65 113q66 110 94 162q71 136 195 339
q119 196 119 205q0 6 30 54z" />
    <glyph glyph-name="zero" unicode="0" horiz-adv-x="578" 
d="M357 690q-26 22 -56 22q-63 0 -108 -91q-81 -159 -90 -408q-1 -20 -1 -56q0 -71 8.5 -114t31.5 -84q22 -42 46.5 -60t57.5 -18q26 0 37 6t44 38q71 68 109.5 190t39.5 280q0 83 -11 119q-11 35 -11 50q0 12 -28.5 58t-35.5 46q-6 0 -33 22zM238 754q33 14 68 14
q27 0 51 -9q29 -12 66.5 -42t41.5 -43q6 -18 20 -32q13 -17 31 -87q17 -68 17 -120q0 -11 -2 -77q-2 -83 -6.5 -118.5t-17.5 -87.5q-51 -190 -141 -276q-53 -52 -125 -52q-52 0 -88.5 26.5t-64.5 85.5q-25 51 -34.5 97t-9.5 121q0 37 1 58q5 139 27 240.5t68 193.5
q26 52 44.5 72t53.5 36z" />
    <glyph glyph-name="one" unicode="1" horiz-adv-x="394" 
d="M250 724q49 45 71 45q12 0 21 -11q5 -7 5 -16q0 -8 -5 -36q-8 -45 -15 -110q-6 -57 -22 -173q-15 -126 -25 -311q-11 -202 -19 -221q-6 -18 -23 -18q-19 0 -24 20q-2 6 -2 43q0 83 12 252.5t27 279.5q18 133 16 162l-2 25l-79 -74q-96 -90 -114 -90q-5 0 -7 1
q-18 7 -18 29q0 7 3 11q7 13 200 192z" />
    <glyph glyph-name="two" unicode="2" horiz-adv-x="504" 
d="M263 746q30 8 49 8q30 0 52 -22q48 -48 48 -124q0 -78 -51 -206q-28 -69 -56.5 -118t-98.5 -151q-69 -100 -95 -169l-7 -18l166 5q96 2 110 2q51 0 64 -5.5t13 -22.5q0 -10 -4.5 -15t-24.5 -9t-52 -6t-96 -4q-142 -4 -154 -4q-54 0 -67 7t-13 32v12q0 32 26.5 88.5
t70.5 116.5q64 89 117 182q15 26 40.5 88.5t37.5 102.5q11 40 11 91q0 34 -3 47t-13 25q-12 15 -23 15q-9 0 -24 -4q-49 -13 -67 -75q-10 -37 -16.5 -49.5t-17.5 -12.5q-31 0 -31 44q0 33 19 70q31 62 90 79z" />
    <glyph glyph-name="three" unicode="3" horiz-adv-x="613" 
d="M332 760q76 7 107 7q25 0 54 -6q34 -7 53.5 -21.5t19.5 -32.5q0 -17 -62.5 -88.5t-124.5 -125.5l-60 -52l32 -5q111 -17 161 -116q17 -34 21 -52t4 -57q0 -115 -49 -203q-17 -30 -60 -66t-89 -58q-33 -16 -82 -16q-53 0 -105 20t-81 54q-24 29 -24 51q0 21 23 24h7
q14 0 27 -23q16 -24 33 -36q15 -10 60.5 -21.5t70.5 -11.5q40 0 122 59q40 29 64.5 91.5t24.5 126.5q0 48 -17 87q-21 47 -56 68t-91 21q-16 0 -24 -1q-7 -1 -20 -1q-58 0 -58 35q0 17 92 96q61 53 125 118t64 75q0 4 -45 4q-71 0 -135 -8q-42 -5 -58 -5q-20 0 -27.5 5
t-7.5 16q0 24 21.5 33t89.5 15z" />
    <glyph glyph-name="four" unicode="4" horiz-adv-x="494" 
d="M193 765q14 11 20 11q8 0 22 -13q13 -12 13 -17q0 -3 -8 -19q-13 -22 -31 -112q-17 -86 -51 -193q-38 -129 -40 -136q-10 -44 -11 -47q-1 -2 -1 -6q0 -5 17 -5q3 0 51 2q68 3 137 13l66 8l5 45q5 56 8 197q4 110 9 138.5t22 28.5q6 0 10 -1q13 -1 15 -15t4 -95v-25
q0 -88 -6 -180q-3 -48 -3 -76t3 -34q7 -16 0 -28q-8 -17 -12 -153q-3 -138 -11 -148q-7 -9 -18 -9q-18 0 -24 19q-7 17 -7 148v129l-27 -4q-132 -18 -217 -18q-45 0 -57.5 3t-19.5 14q-6 9 -6 20q0 15 13 76q21 96 46 170q32 101 62 245q13 57 27 67z" />
    <glyph glyph-name="five" unicode="5" horiz-adv-x="630" 
d="M263 769q14 6 27 2q9 -4 119 -8q109 -3 122 -14q11 -10 11 -25q0 -13 -8 -18q-6 -3 -79 -3h-46l-115 3l-17 -108q-18 -116 -20 -126l-4 -18l64 -5q56 -4 108 -17.5t74 -29.5q18 -13 42 -49t35 -66q9 -27 9 -76q0 -62 -12 -107q-20 -72 -71.5 -138t-117.5 -105
q-22 -13 -38.5 -16t-69.5 -3q-54 0 -71 3t-44 18q-40 23 -57 47q-18 25 -40 49q-17 18 -17 37q0 23 22 23q16 0 34 -17q23 -23 45 -51q17 -20 30 -29t38 -16q37 -10 64 -10q53 0 90 26q114 79 148 212q9 34 9 69q0 92 -56 143q-19 17 -71.5 29t-107.5 12q-56 0 -78.5 6
t-27.5 22v2q-1 2 -1 4q0 26 11 68q16 65 26 150q11 79 18 101t23 29z" />
    <glyph glyph-name="six" unicode="6" horiz-adv-x="614" 
d="M374 274q-44 10 -89 10q-57 0 -82 -16q-11 -7 -57 -57q-31 -34 -37.5 -47t-6.5 -37q0 -90 54 -142q64 -60 137 -60q37 0 82.5 17.5t69.5 40.5q29 28 46.5 75.5t17.5 91.5q0 42 -15 61q-33 43 -120 63zM332 770q30 11 72 11q60 0 109 -23t49 -54q0 -22 -14 -32
q-4 -3 -9 -3q-7 0 -24 15q-23 21 -67 32q-33 9 -45 9q-13 0 -42 -9q-27 -8 -43 -19t-46 -43q-50 -52 -87 -132q-32 -67 -46.5 -111t-21.5 -98l-5 -48l34 31q53 48 142 48q52 0 112 -16q50 -13 76 -27t53 -43q40 -44 40 -107q0 -13 -4 -47q-23 -158 -168 -215
q-60 -24 -110 -24q-88 0 -172 81q-25 25 -35.5 41.5t-20.5 48.5q-15 49 -15 121q0 65 14 157q13 82 27.5 127t51.5 118q23 45 42 72t55 64t55 51.5t43 23.5z" />
    <glyph glyph-name="seven" unicode="7" horiz-adv-x="603" 
d="M55 763q6 7 18.5 9.5t51.5 2.5q8 0 138 -2q225 -4 277 -15q17 -3 17 -21q0 -23 -23 -44q-33 -31 -83.5 -103t-86.5 -138q-32 -60 -80 -144q-33 -53 -50 -123q-6 -21 -21.5 -74.5t-25 -92.5t-14.5 -75q-7 -49 -19 -67q-10 -16 -26 -16q-11 0 -18 8.5t-7 21.5q0 7 1 11
q1 5 15 76q8 48 25 101q11 36 30 110q12 51 24 79.5t42 79.5q14 25 81 145q48 90 98 155q36 43 36 58q0 2 -1 3q-6 6 -146 6h-43q-21 0 -60 -0.5t-54 -0.5q-74 0 -84 2q-21 5 -21 26q0 11 9 22z" />
    <glyph glyph-name="eight" unicode="8" horiz-adv-x="574" 
d="M327 354q-30 15 -55 15q-55 0 -104 -74q-66 -103 -66 -178q0 -31 9 -59q10 -40 20 -55q19 -29 74.5 -55.5t94.5 -26.5q9 0 13 1q148 26 159 242q1 17 1 41q0 33 -18 66q-17 32 -36 47.5t-47 20.5q-24 3 -45 15zM368 664q-14 11 -36 11q-34 0 -66 -24q-29 -21 -47 -56
t-18 -65q0 -18 8 -31q11 -17 49.5 -36t61.5 -19t55.5 22.5t39.5 44.5q8 22 8 65q0 38 -7 59q-7 19 -20 19q-15 0 -28 10zM264 721q21 11 53 11q3 0 10.5 -0.5t12.5 -0.5q76 -4 108.5 -41t32.5 -119q0 -58 -10.5 -84t-44.5 -56l-41 -34l29 -9q24 -7 41 -21.5t39 -46.5
q21 -31 28.5 -56.5t7.5 -67.5q0 -25 -1 -40q-9 -203 -137 -267q-54 -26 -99 -26q-39 0 -83 18q-41 17 -61 29t-45 36q-59 56 -59 168q0 58 19 108q20 55 53.5 105.5t62.5 68.5l32 21l-24 22q-46 40 -46 92q0 26 11 65q9 32 43 69.5t68 55.5z" />
    <glyph glyph-name="nine" unicode="9" horiz-adv-x="579" 
d="M424 711q-8 15 -15.5 18.5t-33.5 3.5q-52 0 -98.5 -36t-80.5 -103q-28 -56 -28 -85q0 -15 1 -25q6 -82 47 -110q21 -13 57 -13q45 0 93 19q29 12 40 22t30 42q40 69 40 145q0 45 -17 81q-11 20 -17 20q-8 0 -18 21zM317 787q27 10 43 10t44 -7q34 -7 67.5 -36t46.5 -64
q16 -43 16 -196q0 -78 -6 -140q-5 -62 -17 -113t-46 -153q-17 -50 -28.5 -72.5t-35.5 -51.5q-32 -38 -67 -55.5t-102 -28.5q-23 -4 -47 -4q-82 0 -125 82q-13 23 -13 34q0 6 3 11q8 14 23 14q16 0 28 -16q27 -39 44.5 -53t43.5 -14q23 0 63 9t54 16.5t39 33.5q39 41 54 80
q22 59 44.5 143.5t25.5 119.5l4 47l-26 -22q-23 -20 -66 -37.5t-81 -21.5q-6 -1 -17 -1q-35 0 -69 11.5t-53 30.5q-23 24 -38.5 67t-15.5 86q0 30 5.5 49t24.5 60q32 66 79.5 114.5t100.5 67.5z" />
    <glyph glyph-name="colon" unicode=":" horiz-adv-x="196" 
d="M58 108q15 19 36 19q13 0 22 -8t9 -21q0 -10 -6 -22q-14 -27 -39 -27q-12 0 -23 9q-13 12 -13 22q0 11 14 28zM94 544q15 15 30 15q12 0 19.5 -10t7.5 -27q0 -16 -14.5 -28t-31.5 -12h-6q-19 3 -19 27q0 21 14 35z" />
    <glyph glyph-name="semicolon" unicode=";" horiz-adv-x="234" 
d="M107 125q10 16 31 16q27 0 27 -19q0 -17 -36.5 -86t-47.5 -73q-2 -1 -7 -1q-9 0 -19 8t-10 19q0 12 21.5 59.5t40.5 76.5zM119 577q18 19 38 19q13 0 22 -9.5t9 -25.5q0 -14 -21.5 -36.5t-35.5 -22.5q-29 0 -29 34q0 23 17 41z" />
    <glyph glyph-name="less" unicode="&#x3c;" horiz-adv-x="443" 
d="M329 497q35 26 46 26q7 0 15 -8q7 -7 7 -17q0 -35 -104 -99q-42 -27 -91 -67q-52 -42 -73 -58q-9 -6 -9 -10q0 -7 19 -26q20 -20 73 -58.5t91 -59.5q44 -25 44 -54q0 -5 -1 -7q-4 -12 -23 -12t-38 13q-11 8 -78 52q-49 32 -105.5 83t-56.5 63q0 13 14 29q10 14 74.5 65
t119.5 89q43 30 76 56z" />
    <glyph glyph-name="equal" unicode="=" horiz-adv-x="476" 
d="M151 246q94 8 159 8h14q76 -1 83 -13q8 -13 0 -25q-4 -8 -20.5 -11.5t-62.5 -6.5q-24 -2 -89 -5.5t-74 -4.5q-48 -2 -57 -2q-33 0 -43.5 6.5t-10.5 25.5q0 18 2 18q1 1 99 10zM205 409q152 4 171 5h8q28 0 37 -10q11 -11 11 -17q0 -8 -8 -17q-9 -12 -118 -19
q-123 -7 -171 -7q-64 0 -78 7q-14 8 -14 20q0 22 27.5 28.5t134.5 9.5z" />
    <glyph glyph-name="greater" unicode="&#x3e;" horiz-adv-x="426" 
d="M59 551q9 9 18 9t101 -82t148 -140q56 -59 56 -77q0 -16 -31.5 -44.5t-108.5 -83.5q-69 -49 -91 -68q-19 -17 -53 -35q-28 -15 -35 -15q-6 0 -12 6q-10 10 -5 26q7 23 101 86q31 21 100.5 74t69.5 56q0 5 -74 77t-129 121q-62 55 -62 75q0 8 7 15z" />
    <glyph glyph-name="question" unicode="?" horiz-adv-x="510" 
d="M112 7q14 11 41 11q21 0 29 -8t8 -22q0 -17 -12 -28q-32 -26 -52 -26q-25 0 -28 36v7q0 20 14 30zM201 791q17 4 50 4q68 0 115 -15q32 -12 58 -41q40 -46 40 -110q0 -105 -99 -189q-26 -21 -61 -55t-61 -53q-44 -36 -65 -108q-4 -13 -9 -17t-18 -4q-16 0 -19 5t-3 31
q2 81 78 140q40 30 103 91q95 94 95 160q0 27 -13 52q-14 28 -44 39.5t-89 11.5q-62 0 -74 -7q-11 -8 -40 -19q-28 -11 -40 -31q-19 -32 -34 -32q-5 0 -11 3q-14 6 -14 31q0 14 6.5 25t25.5 29q32 30 42 30q9 0 31 11q28 14 50 18z" />
    <glyph glyph-name="at" unicode="@" horiz-adv-x="936" 
d="M573 415q-15 14 -25 18t-32 4q-94 -2 -147 -86q-33 -51 -33 -93q0 -52 45 -77q28 -17 45 -17q20 0 56 27q14 11 29.5 26.5t35 41t32 58.5t12.5 67q0 13 -18 31zM424 685q52 11 86 11q63 0 159 -40q45 -18 88 -58t65 -85q23 -46 23 -114q0 -97 -45 -184
q-23 -46 -63.5 -74.5t-78.5 -28.5q-32 0 -52 21q-19 19 -26 39l-8 20l-38 -32q-62 -55 -107 -55q-21 0 -48 11q-53 23 -76 56.5t-23 88.5q0 84 67 156q72 78 167 78q76 0 119 -52q18 -21 18 -55q0 -32 -15 -92q-12 -47 -12 -59q0 -11 9 -34q12 -33 28 -33q19 0 48.5 24.5
t41.5 50.5q35 74 35 145q0 75 -41.5 133.5t-118.5 88.5q-60 24 -118 24q-71 0 -163 -38q-137 -57 -214 -258q-28 -74 -28 -107q0 -6 2 -40q6 -109 66 -181q17 -19 68 -45t98 -39q58 -16 134 -16q60 0 117 11q70 14 118.5 43t96.5 85q46 52 63 52q8 0 16 -9q6 -7 6 -16
q0 -25 -66 -90q-57 -57 -109.5 -84.5t-129.5 -40.5q-45 -8 -109 -8q-90 0 -150 16q-53 14 -110 44t-81 56q-88 97 -88 230q0 66 22 131q54 158 138.5 241t218.5 112z" />
    <glyph glyph-name="A" unicode="A" horiz-adv-x="788" 
d="M438 509q-27 112 -30 120l-6 13l-4 -13q-2 -5 -16.5 -38t-28.5 -67t-21 -54q-20 -55 -29 -73q-13 -27 -33.5 -86t-20.5 -69q0 -7 50 -7q10 0 88 2q139 6 140 7q3 3 -30 79q-31 72 -59 186zM380 739q9 14 25 13q10 -1 16 -10t16 -37q23 -66 54 -196q22 -94 115 -314
q25 -59 49 -131q22 -66 57 -134q29 -58 29 -73q0 -13 -18 -15h-3q-14 0 -26 16q-18 26 -45 83.5t-40 98.5q-19 60 -38 104l-20 47l-130 -4q-147 -6 -164 -8q-25 -3 -31.5 -8t-17.5 -29q-8 -18 -35 -98.5t-40 -104.5q-22 -47 -32 -76q-16 -41 -31 -41q-6 0 -14 6q-9 8 -9 21
q0 27 31 96q28 65 48 126q15 46 41 111t41 110q42 126 111 287q24 59 38 101q15 45 23 59z" />
    <glyph glyph-name="B" unicode="B" horiz-adv-x="557" 
d="M271 301q-39 9 -102 11l-65 3l-4 -90q-1 -22 -2.5 -52.5t-3 -64t-2.5 -46.5t-1 -39q0 -114 22 -133q11 -8 65 -8q60 0 100.5 15.5t82.5 54.5q102 95 102 182q0 18 -2 27q-8 41 -62.5 81t-127.5 59zM243 683q-58 19 -85 23q-10 2 -13 2q-11 0 -14.5 -23t-9.5 -125
q-8 -139 -10 -153l-4 -32l41 -5q9 -1 24 -1q27 0 69 13q137 44 137 146q0 20 -6 44q-10 42 -39 67t-90 44zM88 749q9 11 39 11q43 0 117 -23q55 -17 76 -28t50 -36q23 -21 33.5 -39t18.5 -50q9 -36 9 -59q0 -27 -12 -58q-10 -26 -40 -60t-53 -46q-15 -7 -15 -12t52 -27
q51 -21 90 -60q40 -42 49 -63q12 -26 12 -66q0 -34 -10 -69q-15 -49 -76 -116.5t-109 -88.5q-69 -30 -147 -30q-54 0 -86 16q-16 7 -22 14.5t-12 28.5q-9 33 -9 147q0 184 21 465q1 22 4.5 79t5.5 79q4 80 14 91z" />
    <glyph glyph-name="C" unicode="C" horiz-adv-x="641" 
d="M269 741q33 18 55.5 23.5t70.5 7.5h7q71 0 131.5 -22.5t60.5 -48.5q0 -6 -5 -13q-8 -8 -14 -8q-8 0 -55 19q-31 13 -49 16t-64 4h-22q-31 0 -44.5 -3t-35.5 -15q-75 -38 -138 -146q-33 -56 -55 -141q-20 -76 -20 -120q0 -28 1 -48q4 -113 38 -187.5t105 -127.5
q28 -20 81 -31q31 -6 60 -6q59 0 108 28q41 23 69 23q18 0 23 -8q5 -7 5 -11q0 -15 -65 -47q-75 -37 -137 -37q-34 0 -77 9q-50 11 -74.5 24t-67.5 52q-62 55 -96 165q-15 48 -18 72t-3 98q0 73 3 100t17 78q26 96 85.5 183.5t119.5 117.5z" />
    <glyph glyph-name="D" unicode="D" horiz-adv-x="659" 
d="M232 706q-39 10 -88 14l-48 4v-478q0 -117 -1 -191v-39q0 -100 5 -120q5 -17 9 -21t19 -4q19 0 106 31t116 48q24 14 89 82t82 97q16 28 31 86.5t15 95.5q0 39 -10.5 88.5t-24.5 76.5q-40 78 -125 142.5t-175 87.5zM56 764q8 9 31 9q4 0 48 -2q89 -5 154 -27.5t140 -75.5
q43 -30 87 -80.5t64 -94.5q36 -77 36 -179q0 -114 -42 -195q-23 -43 -93 -117.5t-111 -98.5q-17 -11 -106 -45q-82 -31 -136 -35q-11 -1 -28 -1q-24 0 -31 9t-16 45q-12 51 -12 390v160q1 321 15 338z" />
    <glyph glyph-name="E" unicode="E" horiz-adv-x="627" 
d="M417 776q3 3 42 3q71 0 92 -7q29 -9 29 -28q0 -8 -5 -13q-6 -7 -44 -7h-27h-12q-54 0 -172 -8l-121 -8l-4 -54q-7 -72 -20 -136q-15 -83 -14 -84q2 -2 160 -9t201 -11t50 -14q7 -11 0 -22q-6 -11 -52 -11q-16 0 -203 7q-112 4 -124 4q-37 0 -41 -4q-4 -6 -8 -64
q-9 -93 -16 -142q-26 -181 -26 -243q0 -36 9 -36l222 -2q88 0 134 -1.5t73.5 -4.5t34.5 -8t7 -14t-3 -13.5t-19.5 -7.5t-47 -4t-90.5 -1h-86q-198 1 -236.5 7t-48.5 39q-4 18 -4 32q0 19 8 101q6 63 17.5 148t17.5 146q8 84 23 164q19 111 22 145q13 123 28 138
q10 10 130 15q122 6 124 8z" />
    <glyph glyph-name="F" unicode="F" horiz-adv-x="541" 
d="M279 785q31 1 70 2.5t63 2.5t30 1h5q47 0 47 -24q0 -19 -27.5 -24t-154.5 -9q-166 -6 -187 -10q-19 -4 -23 -9t-7 -27q-4 -36 -4 -149l-1 -117l191 3q108 2 122 2q69 0 77 -9q8 -10 6 -22q-3 -18 -38 -22.5t-177 -4.5h-183l5 -99q12 -247 12 -384q0 -56 -3 -60
q-6 -12 -25 -12q-12 0 -16 7q-12 20 -19 561q-1 56 -1 148q0 215 17 232q16 16 221 23z" />
    <glyph glyph-name="G" unicode="G" horiz-adv-x="817" 
d="M485 805q22 2 59 2q93 0 172 -44q46 -25 46 -43q0 -10 -15 -17q-6 -3 -11 -3q-10 0 -39 16q-37 22 -71.5 30t-88.5 8h-11q-58 0 -122.5 -14t-102.5 -35q-35 -19 -78.5 -71.5t-71.5 -108.5q-33 -67 -42.5 -115t-10.5 -148v-45q0 -46 3 -62t13 -40q19 -40 52 -86t60 -69
q74 -64 248 -89q20 -2 29 -2q52 0 109 54q73 71 97 168q15 60 15 139q0 35 -5 52l-7 21l-146 -2h-49q-188 0 -224 15q-14 6 -14 23q0 10 6 16q7 7 22 7q10 0 52 -5q66 -6 182 -6h35h59q97 0 103 -3q37 -17 37 -115q0 -229 -134 -353q-38 -35 -64.5 -49t-63.5 -14
q-31 0 -101 13q-130 25 -205 81.5t-136 174.5q-18 34 -21 50.5t-5 79.5q0 7 -0.5 19.5t-0.5 18.5q0 137 25 207q32 93 93.5 177t121.5 116q81 43 201 51z" />
    <glyph glyph-name="H" unicode="H" horiz-adv-x="583" 
d="M498 781q7 18 25 18q10 0 16 -8q2 -2 2 -34q0 -64 -5 -154q-9 -182 -11 -426q-4 -241 -6 -263q-5 -22 -25 -22q-9 0 -14 5q-9 7 -9 133q0 14 0.5 56t0.5 70l2 251h-66q-47 0 -141.5 -11t-114.5 -12l-52 -4l-3 -101q-2 -58 -2 -76q0 -76 17 -213q5 -47 5 -64
q0 -21 -5.5 -28.5t-18.5 -7.5h-3q-14 0 -19 19t-16 120q-12 105 -12 181q0 60 6 150q3 45 10 240q6 147 10 156q5 11 22 9l18 -1l-2 -167l-1 -166l42 3q195 24 247 24q67 0 75 5q10 6 15 154q5 145 13 164z" />
    <glyph glyph-name="I" unicode="I" horiz-adv-x="177" 
d="M85 782q8 11 21 11q11 0 19 -8.5t8 -20.5q0 -6 -3 -13q-7 -21 -7 -78q0 -65 -7 -152q-6 -93 -11 -363q-4 -217 -9 -262.5t-27 -48.5q-1 0 -3.5 -0.5t-3.5 -0.5q-18 0 -18 34q0 16 3 44q7 58 7 232q0 173 9 339q12 219 12 222q2 52 10 65z" />
    <glyph glyph-name="J" unicode="J" horiz-adv-x="481" 
d="M389 752q4 7 16 7q19 0 25 -14q10 -26 10 -226q0 -51 -2 -209l-5 -251l-20 -51q-41 -103 -103 -138q-23 -13 -37 -16.5t-49 -3.5q-36 0 -48.5 3.5t-37.5 20.5q-49 32 -67 72t-24 130q-2 28 -2 37q0 29 6.5 40t21.5 11q25 0 25 -36q0 -8 -1 -12v-5q0 -24 7 -80l10 -67
l31 -30q38 -35 77 -35q14 0 36 5q55 14 92 93q24 51 30 109t6 248v89v88q0 217 3 221z" />
    <glyph glyph-name="K" unicode="K" horiz-adv-x="628" 
d="M58 733q7 7 14 7q9 0 19 -10q10 -9 10 -66q0 -60 -7 -173q-5 -80 -5 -101q0 -27 4 -31h1q23 0 281 256q100 99 113 99h1q14 -1 14 -17q0 -21 -22 -47q-24 -29 -302 -293l-47 -44l14 -11q27 -21 92 -77t89 -75q42 -33 116.5 -101t102.5 -98q35 -38 35 -52q0 -7 -6 -13
q-7 -7 -14 -7q-17 0 -69 52q-29 29 -232 211q-39 35 -65 53q-31 20 -31 26q0 5 -28.5 24.5t-35.5 19.5q-6 0 -6 -208q0 -153 -1.5 -182t-11.5 -38q-13 -11 -23 -5q-7 4 -9.5 53.5t-5.5 263.5q-2 168 -2 229q0 122 3 159q6 86 6 133q0 55 8 63z" />
    <glyph glyph-name="L" unicode="L" horiz-adv-x="526" 
d="M115 780q11 10 20 10t20 -12q8 -10 8 -15q0 -2 -4 -14q-8 -21 -18 -127.5t-15 -229.5q-8 -160 -9 -165q-1 -6 -9.5 -138t-10.5 -145l-4 -27l181 -2q133 -2 159 -3.5t36 -11.5q13 -13 7 -25q-3 -7 -19 -9t-73 -2q-65 0 -113 1q-197 2 -209 8t-15 18q-1 2 -1 20
q0 85 17 291q5 54 13.5 223.5t15.5 235.5q7 69 11 90.5t12 28.5z" />
    <glyph glyph-name="M" unicode="M" horiz-adv-x="980" 
d="M689 745q24 25 42 25q25 0 32 -49q1 -5 5.5 -41t7.5 -59q7 -51 36 -153.5t37 -151.5q3 -18 19.5 -104t24.5 -131q6 -36 26 -99q15 -42 15 -65q0 -17 -25 -17q-8 0 -13 4q-9 7 -28 67t-25 99q-5 42 -22 125t-23 118q-14 78 -38 152q-27 75 -35 150q-9 79 -12 79
q-6 0 -78.5 -98t-94.5 -137q-22 -37 -36 -52t-28 -15q-16 0 -39 22.5t-45 59.5q-14 24 -52 76.5t-55 83.5q-27 47 -30 47q-2 0 -14 -47q-62 -233 -67 -274q-3 -34 -17.5 -119.5t-17.5 -108.5q-5 -54 -25 -120q-19 -70 -19 -80q0 -12 -8 -19.5t-20 -7.5h-5q-6 1 -8.5 3t-4 7
t-1.5 17v13q2 47 17 90q16 51 27 129q6 55 15.5 101.5t15.5 94.5q8 66 32 155q56 207 64 223q12 27 28 27q23 0 60 -69q34 -60 70 -110q24 -31 55 -80q14 -25 29 -40q6 -6 10 -6q5 0 22 25q48 73 83 119q78 103 113 141z" />
    <glyph glyph-name="N" unicode="N" horiz-adv-x="725" 
d="M635 771q11 8 19 8q10 0 17 -8t7 -20q0 -1 -0.5 -3.5t-0.5 -4.5t-9 -101q-1 -18 -13.5 -160t-12.5 -201q0 -49 -8.5 -172t-14.5 -168q-9 -60 -31 -66q-2 -1 -8 -1q-11 0 -22 5.5t-11 11.5t-23 33q-22 25 -48 81q-12 26 -33 68.5t-37.5 78.5t-30.5 72q-48 120 -126 241
q-42 67 -63 120q-28 65 -31 68h-1q-9 0 -25 -223q-3 -36 -7 -83.5t-6 -71.5t-3.5 -66t-2.5 -93q-1 -223 -36 -223q-7 0 -16 9q-11 11 -11 26q0 8 5 50q7 60 7 157q0 61 2.5 104t8 100.5t8.5 103.5q15 223 38 275q14 34 36 34q6 0 9 -2q14 -9 67 -134q24 -57 59 -113
q84 -130 134 -258q21 -54 38 -84q3 -5 27 -58.5t47.5 -97.5t32.5 -44q2 0 3 1q4 4 13.5 138.5t9.5 186.5q0 47 4.5 112t12 152.5t9.5 112.5q8 100 17 107z" />
    <glyph glyph-name="O" unicode="O" horiz-adv-x="867" 
d="M523 697q-48 17 -55 17q-1 0 -7.5 -1t-19.5 -2t-24 -2q-52 -6 -92 -18q-28 -9 -43 -19t-43 -38q-55 -56 -118 -185q-13 -26 -15 -48t-2 -124v-136l47 -76q32 -49 46 -65.5t34 -27.5q64 -35 162 -35q22 0 33 1q81 4 131.5 26.5t98.5 77.5q37 42 52.5 71.5t36.5 94.5
q25 79 25 131q0 48 -22 113q-19 57 -36.5 89t-49.5 66q-58 61 -139 90zM389 759q31 5 71 5q45 0 58 -8q22 -11 52 -22q51 -19 109 -72.5t86 -108.5q11 -20 36 -100q23 -77 23 -120q0 -41 -20 -104t-29 -94q-10 -31 -25.5 -55.5t-53.5 -68.5q-62 -69 -126 -97.5t-158 -28.5
q-185 0 -254 81q-18 22 -60 88q-33 55 -43.5 89.5t-10.5 98.5q0 35 1 56q3 91 12.5 125.5t55.5 119.5q75 137 142 174q51 30 134 42z" />
    <glyph glyph-name="P" unicode="P" horiz-adv-x="633" 
d="M446 721q-30 10 -91 10q-64 0 -125 -11t-75 -27q-9 -11 -16 -97q-20 -206 -20 -221q0 -7 1 -7q3 -3 47 -12q28 -5 60 -5q93 0 140 21q64 28 111 77t57 98q4 17 4 41q0 42 -11 70q-6 14 -32.5 35t-49.5 28zM266 778q54 6 95 6q99 0 165 -50q37 -28 49.5 -57.5t12.5 -88.5
v-10q0 -46 -10 -73.5t-43 -70.5q-25 -33 -77.5 -68.5t-96.5 -49.5q-56 -17 -137 -17q-42 0 -70 6l-42 9l-5 -23q-4 -18 -6 -181q-1 -148 -7.5 -193t-27.5 -45q-10 0 -16 8q-7 10 -7 129q0 174 11 275q24 227 29 285q9 114 16 132q8 28 53 48.5t114 28.5z" />
    <glyph glyph-name="Q" unicode="Q" horiz-adv-x="881" 
d="M548 676q-65 17 -100 17q-25 0 -49 -6q-149 -35 -233 -176q-25 -41 -36.5 -70.5t-22.5 -83.5q-14 -72 -14 -133q0 -96 31 -179q38 -98 234 -164q44 -14 82 -14q81 0 160 57l17 12l-17 33q-12 24 -41 73q-23 35 -23 54q0 17 20 17q28 0 77 -90q20 -38 29 -38q2 0 3 1
q14 11 48 74t44 94q12 41 21.5 103t9.5 101q0 78 -30 157q-46 117 -210 161zM399 740q27 5 51 5q111 0 216 -59q87 -49 127 -122.5t44 -193.5q0 -4 0.5 -13t0.5 -14q0 -223 -133 -390l-18 -23l32 -50q27 -42 27 -57q0 -12 -16 -18q-1 0 -2.5 -0.5t-2.5 -0.5q-19 0 -54 54
q-22 33 -26 33q-5 0 -20 -12q-35 -21 -65 -36q-32 -16 -49 -20t-62 -6q-6 0 -16.5 -0.5t-14.5 -0.5q-35 0 -64.5 9.5t-105.5 43.5q-114 51 -159 130t-45 228q0 106 19 177.5t68 146.5q23 36 60.5 74.5t70.5 60.5q19 13 63.5 30.5t73.5 23.5z" />
    <glyph glyph-name="R" unicode="R" horiz-adv-x="594" 
d="M387 714q-28 15 -45 18.5t-59 5.5q-6 0 -17 0.5t-15 0.5q-42 0 -122 -17l-35 -8l1 -172l2 -172l55 -2h12q77 0 149.5 27t124.5 75q57 54 57 99q0 39 -36 85q-30 39 -72 60zM158 781q50 9 110 9h4q74 0 133.5 -26t94.5 -74q24 -33 33 -54.5t12 -52.5q1 -5 1 -16
q0 -117 -171 -200q-62 -32 -73 -32q-8 0 -8 -8q0 -11 12 -24q34 -42 67 -119q15 -38 71 -117q71 -103 87.5 -129.5t16.5 -37.5q0 -13 -12 -21q-6 -2 -9 -2q-17 0 -57 59q-20 31 -77 113q-47 67 -70 118q-17 41 -50 92q-30 47 -30 51q0 6 -76 6h-76l1 -231v-67
q0 -166 -3 -170q-4 -7 -14 -7q-16 0 -25 15q-9 13 -9 258v187q1 429 11 444q7 11 28 18.5t78 17.5z" />
    <glyph glyph-name="S" unicode="S" horiz-adv-x="636" 
d="M339 763q43 15 69 15q25 0 71.5 -6t67.5 -13q25 -8 25 -27q0 -9 -7 -16q-6 -6 -16 -6q-13 0 -34 4q-45 8 -80 8q-102 0 -161 -51q-29 -26 -39.5 -51t-13.5 -75q-1 -12 -1 -32q0 -48 20.5 -71t86.5 -50q93 -39 146 -88.5t98 -139.5q15 -29 18.5 -44t3.5 -46q0 -45 -12 -72
q-22 -50 -91 -93t-134 -48q-8 -1 -25 -1q-102 0 -161 28q-33 15 -77.5 55t-44.5 54q0 10 7 16.5t16 6.5q6 0 12 -3q14 -8 44 -38q28 -28 58.5 -41.5t78.5 -21.5q24 -4 53 -4q107 0 181 66q44 41 44 95q0 46 -54 133q-49 77 -155 126q-67 31 -88.5 44t-41.5 33t-27 38t-7 55
q0 27 1 44q3 59 13.5 87.5t43.5 61.5q28 28 47.5 40t64.5 28z" />
    <glyph glyph-name="T" unicode="T" horiz-adv-x="767" 
d="M679 756q4 4 10 4q16 0 26 -15q5 -8 5 -15q0 -17 -22 -25q-11 -4 -171 -6q-157 -2 -161 -6q-5 -5 -10 -167q-4 -161 -11 -248q-4 -41 -4 -87q0 -20 1 -25q1 -7 1 -33q0 -63 -7.5 -165.5t-13.5 -112.5q-9 -14 -18 -14q-8 0 -19 12q-8 8 -8 25q0 18 4 51q7 82 7 199
q0 135 9 223q10 98 10 213v126l-124 1q-85 2 -106.5 4t-25.5 9q-7 11 0 22q6 9 80.5 13t367.5 10q179 5 180 7z" />
    <glyph glyph-name="U" unicode="U" horiz-adv-x="603" 
d="M89 663q6 7 13 7q9 0 17 -9q5 -7 5 -19q0 -13 -4 -36q-8 -53 -17 -176q-8 -125 -8 -197q0 -137 28 -201t99 -101q36 -19 52 -23t51 -4h51l26 27q73 75 97 287q7 65 11 247q3 183 9 192q6 7 15 7q17 0 23 -17q4 -11 4 -103q0 -221 -11 -323q-16 -140 -60 -243
q-22 -53 -54 -84.5t-67 -36.5q-20 -4 -44 -4q-57 0 -122 33q-87 45 -123 124t-36 235q0 52 5 135q8 141 17 203.5t23 79.5z" />
    <glyph glyph-name="V" unicode="V" horiz-adv-x="772" 
d="M53 752q7 7 18 7t18 -8t7 -21q0 -17 23 -77q25 -71 34 -119q15 -75 76 -228q30 -75 58 -155q19 -54 51.5 -128t37.5 -75q4 0 15 33q12 36 33 78q33 65 122 320q22 63 44 122t37 103q47 140 69 147q9 4 20 -2q9 -6 9 -22q0 -21 -17 -55q-14 -28 -31 -81
q-10 -34 -37 -103.5t-37 -101.5q-13 -43 -48 -134t-39 -103q-21 -61 -45 -111q-31 -65 -45 -105q-18 -47 -25.5 -60t-19.5 -13q-1 0 -3.5 0.5t-4.5 0.5q-17 1 -30 24q-20 38 -55 116.5t-40 98.5q-7 29 -67 183q-56 142 -75 222q-12 55 -38 129q-22 60 -22 93q0 18 7 25z" />
    <glyph glyph-name="W" unicode="W" horiz-adv-x="959" 
d="M863 695q0 11 7.5 18.5t17.5 7.5q13 0 20 -13q4 -7 4 -18q0 -24 -24 -83q-20 -52 -40 -117q-33 -105 -122 -340t-106 -260q-16 -24 -36 -24t-47 27t-43 81q-19 56 -38 107l-22 52l-19 -33q-11 -21 -63 -127q-45 -92 -56 -103t-23 -11q-30 0 -56 59q-25 57 -97.5 375.5
t-72.5 370.5q0 23 19 24q17 1 25 -12q7 -14 34 -157q20 -108 77.5 -346.5t64.5 -238.5t77 139q74 145 86 152q8 5 16 5q22 0 28 -27q8 -40 48.5 -153.5t49.5 -122.5q3 -3 6 -3q6 0 31 62q34 86 109.5 291.5t87.5 247.5q22 71 37 109q20 49 20 61z" />
    <glyph glyph-name="X" unicode="X" horiz-adv-x="681" 
d="M512 679q12 24 35 52t41 28q8 0 14 -6q7 -7 7 -15q0 -11 -15 -29q-18 -22 -33 -52t-47.5 -80.5t-49.5 -84.5q-34 -64 -73 -121q-40 -58 -40 -70q0 -13 41 -70q37 -52 64 -95q26 -42 51 -70q15 -17 55.5 -74.5t55.5 -73.5q16 -17 16 -33q0 -19 -20 -19q-11 0 -26 9
q-17 11 -58 70q-54 75 -69 92q-29 32 -43 61q-9 19 -49.5 76t-41.5 58l-10 17l-20 -33q-83 -136 -89 -145q-42 -65 -66 -108q-37 -66 -48.5 -82t-23.5 -16q-14 0 -21 12q-2 4 -2 8q0 14 30 71q34 66 69 116q22 32 46.5 73.5t39.5 65.5q22 34 39 64l17 28l-43 64
q-128 198 -159 264q-23 51 -31 57q-6 4 -6 17q0 17 9 24q7 6 16 6q23 0 39 -36q32 -77 85 -161q17 -26 67 -107q25 -43 38 -57l15 -18l35 52q33 48 55 94q12 25 52.5 90t51.5 87z" />
    <glyph glyph-name="Y" unicode="Y" horiz-adv-x="748" 
d="M57 772q11 7 16 7q19 0 65 -89q45 -90 114 -179q24 -30 57 -89q28 -53 49 -75q17 -20 22 -20q3 0 8 7q2 3 8.5 12t18 25t18.5 26q38 51 62 95q25 45 75 118q50 71 52 84q2 14 21 43.5t27 31.5q2 1 7 1q10 0 17 -7t7 -17q0 -14 -22 -49t-22 -42q0 -11 -46 -76
q-49 -73 -73 -114q-38 -63 -64 -98q-58 -79 -65 -93q-9 -22 -11 -85q-1 -19 -1 -31q-6 -122 -14 -161q-10 -60 -10 -105q0 -52 -10 -61q-10 -10 -18 -10q-7 0 -14 7t-7 75q0 58 6 88t11 157l6 129l-33 44q-20 26 -58.5 89.5t-63.5 93.5q-33 41 -77 120q-50 88 -56 97
q-13 23 -13 33q0 12 11 18z" />
    <glyph glyph-name="Z" unicode="Z" horiz-adv-x="825" 
d="M258 762q132 3 225 3q166 0 230.5 -11t64.5 -38q0 -14 -46 -62q-141 -149 -230 -263q-181 -232 -226 -281q-32 -35 -64 -77.5t-55 -69.5q-48 -57 -48 -64q0 -6 41.5 -7.5t184.5 -1.5q308 0 356 -16q10 -3 10 -19q0 -15 -9 -22q-4 -4 -24 -4q-25 0 -72 4q-84 7 -305 7
q-142 0 -182 1.5t-49 8.5q-13 9 -13 25q0 41 75 125q21 25 58 74.5t67 82.5q35 38 79 90.5t61 77.5q28 41 105 134t132 153q75 80 75 89q0 4 -132.5 6t-267.5 5.5t-139 10.5q-7 10 -7 17q0 11 23 15.5t82 6.5z" />
    <glyph glyph-name="bracketleft" unicode="[" horiz-adv-x="415" 
d="M194 704q82 5 111 5q38 0 50.5 -5.5t12.5 -20.5q0 -18 -21.5 -24.5t-93.5 -9.5q-97 -6 -106 -15q-10 -10 -10 -55q0 -31 -14 -189q-13 -127 -19 -283l-5 -139l38 -1q34 0 100 -8q61 -9 71 -24q7 -12 7 -15q0 -4 -9 -13q-11 -10 -28 -10q-5 0 -25 2q-40 5 -116 11
q-46 3 -62 6.5t-23 12.5q-8 11 -8 56q0 32 3 109q4 155 18 293q14 154 14 192q0 81 18 100.5t97 24.5z" />
    <glyph glyph-name="backslash" unicode="\" horiz-adv-x="562" 
d="M52 801q5 5 22 3q11 -2 21.5 -17.5t32.5 -67.5q38 -91 59 -148q68 -184 126 -303q11 -22 79.5 -165t91.5 -188q31 -62 31 -83q0 -14 -11 -23q-7 -5 -13 -5q-15 0 -26 20q-22 40 -137 282t-115 248q0 3 -33 82q-21 46 -51 128t-53 130q-29 64 -29 91q0 9 5 16z" />
    <glyph glyph-name="bracketright" unicode="]" horiz-adv-x="319" 
d="M59 755q11 7 88 7q104 0 117 -10q8 -6 10 -41.5t2 -187.5v-226q-2 -445 -9 -458t-39 -18.5t-112 -6.5l-69 -1v22q0 15 5.5 18.5t34.5 7.5q32 3 84 5q47 2 48 7q3 5 6.5 235t3.5 403q0 131 -2 145l-5 55l-83 2q-63 2 -74.5 4t-12.5 15q-2 18 7 23z" />
    <glyph glyph-name="underscore" unicode="_" horiz-adv-x="588" 
d="M300 -46q170 4 189 5h9q32 0 39 -7q9 -9 9 -21q0 -11 -9 -19q-11 -8 -239 -16q-160 -5 -187 -5q-47 0 -58 11q-10 10 -10 16q0 3 4 13q5 10 15 12.5t42 3.5q9 0 79 2.5t117 4.5z" />
    <glyph glyph-name="a" unicode="a" horiz-adv-x="479" 
d="M286 328l-53 148h-1q-3 0 -20 -56q-10 -37 -24 -74l-14 -33h21q15 0 53 6t38 9zM209 552q15 19 29 19q10 0 16 -8q8 -8 35 -86q9 -24 62 -160.5t72 -201.5q12 -39 12 -48q0 -8 -6 -17q-12 -15 -20 -15q-7 0 -13 8q-7 9 -36 98q-30 92 -38.5 112t-19.5 20q-6 0 -10 -1
q-17 -3 -82 -7q-60 -4 -64 -15q0 -3 -3 -10.5t-8 -20.5t-9 -23q-15 -41 -27 -97q-13 -64 -32 -64q-5 0 -12 4q-10 7 -10 31v9q1 35 12.5 73t53.5 145q50 128 66 181q16 54 32 74z" />
    <glyph glyph-name="b" unicode="b" horiz-adv-x="406" 
d="M234 240q-33 16 -79 20l-48 4l-4 -28q-9 -67 -9 -143q0 -33 3 -38q6 -7 46 -11q2 0 8 -0.5t9 -0.5q33 0 65.5 9t47.5 22q13 13 25 41.5t12 46.5v6q-4 18 -25 38t-51 34zM180 530q-38 10 -56 10h-21l4 -109q5 -109 7 -111q3 -3 18 -3q47 0 93 16q74 27 74 84q0 46 -52 82
q-29 21 -67 31zM65 585q9 9 23 9q1 0 4.5 -0.5t5.5 -0.5q3 0 55 -6q82 -9 139.5 -58t57.5 -111v-11q-3 -31 -22 -61t-43 -42l-24 -13l15 -9q39 -25 63 -61t24 -70q0 -19 -15.5 -55t-30.5 -53q-21 -23 -66 -37t-93 -14q-33 0 -62 8q-32 10 -42.5 25.5t-10.5 56.5q0 24 1 38
q5 82 8 259q2 123 4.5 161t8.5 45z" />
    <glyph glyph-name="c" unicode="c" horiz-adv-x="450" 
d="M190 549q30 15 59 15q28 0 67 -12q26 -8 34.5 -13.5t10.5 -15.5q5 -17 -5 -26q-5 -5 -12 -5q-10 0 -43 10q-36 11 -56 11q-8 0 -11 -1q-15 -3 -48 -26t-48 -40q-27 -34 -40 -106q-3 -18 -3 -35q0 -59 34 -121q10 -19 20.5 -28.5t31.5 -20.5q37 -17 68 -17q53 0 95 45
q28 29 42 29q7 0 15 -8q5 -7 5 -14q0 -23 -37 -55q-54 -49 -119 -49q-42 0 -91 22q-39 18 -55 37t-37 71q-23 56 -23 117q0 76 38 139t108 97z" />
    <glyph glyph-name="d" unicode="d" horiz-adv-x="417" 
d="M158 480q-55 15 -61 15q-2 0 -2 -33q0 -65 7 -201l8 -163h22q25 0 60.5 18.5t64.5 46.5q36 35 48.5 61.5t14.5 72.5v18q0 36 -10 58.5t-37 47.5q-29 26 -48 35.5t-67 23.5zM45 547q6 11 16 11q13 0 83 -19q65 -17 99.5 -34.5t68.5 -49.5q35 -35 48.5 -65.5t13.5 -78.5v-6
q0 -38 -3.5 -54t-19.5 -48q-23 -47 -60 -80q-41 -36 -92.5 -59t-88.5 -23q-27 0 -39 12q-14 13 -14 38q0 2 -10 234q-5 132 -5 172q0 44 3 50z" />
    <glyph glyph-name="e" unicode="e" horiz-adv-x="373" 
d="M146 560q84 8 131 8q39 0 45 -10q6 -13 -2 -25q-7 -10 -34 -14t-134 -11l-65 -4l4 -32q4 -36 4 -67v-34l91 4q53 3 70 3q16 0 20 -2t6 -9q2 -6 2 -9q0 -36 -115 -36q-52 0 -64 -4q-7 -2 -8.5 -21t-1.5 -88q0 -103 4 -119q3 -10 9.5 -12.5t31.5 -2.5q32 0 98 8q44 4 50 4
q13 0 25 -4q16 -8 16 -22q0 -10 -8 -16q-10 -8 -67.5 -13.5t-113.5 -5.5q-62 0 -72 7q-14 11 -18.5 60t-6.5 214q-1 51 -1 121q0 98 9 110q7 10 21.5 13.5t73.5 8.5z" />
    <glyph glyph-name="f" unicode="f" horiz-adv-x="394" 
d="M99 549q10 9 21 11t51 2h56q75 -2 94.5 -4t23.5 -9q7 -11 0 -22q-5 -8 -24 -10.5t-85 -3.5l-102 -1v-109l90 3q18 1 50 1q46 0 54 -3q19 -6 19 -24t-19 -24q-9 -3 -70 -3h-37l-92 1l-5 -36q0 -5 -14 -120.5t-14 -137.5q0 -14 -3 -19.5t-13 -7.5q-4 -1 -10 -1
q-25 0 -25 37q0 23 13 125q13 91 19 220q4 88 7 106t15 29z" />
    <glyph glyph-name="g" unicode="g" horiz-adv-x="510" 
d="M229 564q27 9 68 9q54 0 84 -13q22 -9 35.5 -23.5t13.5 -29.5q0 -13 -10 -20q-5 -4 -15 -4q-20 0 -20 10q0 8 -22 17t-49 12q-6 1 -19 1q-81 0 -141 -79.5t-60 -189.5q0 -94 55 -135q31 -23 46 -30t37 -7q15 0 24 1q31 2 44.5 6t37.5 21q35 24 50 45.5t23 58.5q6 30 6 36
q0 14 -10.5 19t-37.5 5q-5 0 -16 -0.5t-18 -0.5q-5 0 -14 -0.5t-13 -0.5q-62 0 -62 17q0 8 12 20t66 16q30 3 51 3q55 0 77 -32q15 -20 15 -40q0 -13 -1 -22q-8 -65 -36 -107.5t-84 -73.5q-35 -19 -88 -21q-5 0 -13.5 -0.5t-12.5 -0.5q-36 0 -59 9t-55 36q-40 33 -56 68
t-18 94v20q0 109 50.5 192.5t134.5 113.5z" />
    <glyph glyph-name="h" unicode="h" horiz-adv-x="434" 
d="M344 590q9 11 23 11q10 0 13 -6q5 -8 9 -216.5t4 -268.5q0 -42 -20 -42q-5 0 -13 5q-11 7 -15 37.5t-9 130.5l-5 107l-15 -5q-9 -2 -117 -4l-100 -1v-54q0 -56 7 -121q5 -47 5 -56q0 -16 -8 -24q-9 -9 -25 -3q-10 4 -13.5 15.5t-8.5 53.5q-6 55 -12 230q-2 110 -2 118
q0 51 8 58q11 9 25 7q11 -1 12.5 -11.5t3.5 -74.5l2 -84h100q99 0 121 4l19 4v89q0 89 11 101z" />
    <glyph glyph-name="i" unicode="i" horiz-adv-x="165" 
d="M82 570q8 5 16 5q14 0 20 -12q3 -6 3 -19q0 -12 -3 -33q-6 -43 -13 -240q-5 -198 -11 -215q-4 -16 -21 -18h-6q-14 0 -19 12.5t-5 47.5q0 11 2 59q4 106 9 219q8 180 28 194z" />
    <glyph glyph-name="j" unicode="j" horiz-adv-x="411" 
d="M319 577q4 15 8.5 19.5t15.5 4.5q18 0 22 -9q2 -8 2 -33q0 -61 -7.5 -167t-15.5 -140q-35 -165 -91 -212q-12 -10 -24 -13t-44 -3q-54 0 -83 16.5t-46 55.5q-10 24 -10 59q0 24 6 41.5t15 17.5q15 -1 21 -12.5t9 -44.5q3 -31 7 -41.5t17 -22.5q22 -18 46 -18q2 0 7.5 0.5
t9.5 0.5l41 2l19 33q29 51 48.5 158.5t19.5 212.5q0 72 7 95z" />
    <glyph glyph-name="k" unicode="k" horiz-adv-x="407" 
d="M92 566q9 9 15 9q5 0 16 -8q9 -6 9 -22q0 -9 -5 -59q-7 -65 -7 -74q0 -13 5 -13q4 0 31 20q38 30 49 43q9 10 49 39t49 39q17 17 33 17q12 0 15 -3.5t3 -17.5q0 -17 -13.5 -32.5t-49.5 -40.5q-20 -14 -68 -53q-38 -34 -63 -54l-25 -19l67 -66q73 -71 92 -86
q24 -19 46.5 -51t22.5 -46q0 -4 -1 -5q-6 -11 -22 -13h-4q-14 0 -42 39q-29 42 -36 42q-4 0 -73 65q-62 60 -69 60q-4 0 -14 -120q-9 -117 -15 -123q-6 -8 -17 -8q-12 0 -20 9q-6 8 -6 29q0 39 15 253q10 149 16 194t17 56z" />
    <glyph glyph-name="l" unicode="l" horiz-adv-x="388" 
d="M57 517q10 21 24 21q8 0 14 -8q4 -4 4 -78q0 -63 -3 -197.5t-3 -149.5v-10h3q19 0 105 10.5t102 15.5q12 4 19 4q6 0 13 -9q8 -11 8 -16q0 -6 -10 -19q-11 -14 -59 -19q-172 -18 -197 -18q-13 0 -23 8q-7 6 -9.5 19t-2.5 60q0 11 2 149q4 216 13 237z" />
    <glyph glyph-name="m" unicode="m" horiz-adv-x="626" 
d="M425 530q16 7 23 7q17 0 26 -23.5t16 -80.5q9 -71 40 -160q53 -153 53 -207q0 -11 -2 -13q-7 -9 -18 -9q-14 0 -23 14q-8 12 -19 63q-13 60 -26 95q-45 124 -53 188q-8 50 -9 50q-2 0 -15.5 -23t-31.5 -56t-20 -37q-22 -36 -30.5 -45t-20.5 -9q-19 0 -40 27
q-46 56 -71 121q-11 30 -13 28t-24 -111q-23 -114 -46.5 -202t-31.5 -98q-11 -11 -22 -11t-18 9q-3 3 -3 11q0 18 21 98q29 112 48 211q22 108 37 134q16 29 37 29q31 0 58 -68q21 -53 41 -82l22 -34l30 53q9 15 27.5 47.5t23.5 41.5q20 37 34 42z" />
    <glyph glyph-name="n" unicode="n" horiz-adv-x="502" 
d="M417 521q7 10 16 10q11 0 20 -15q7 -10 7 -30q0 -21 -4 -60q-6 -64 -12 -212q-2 -60 -4 -89.5t-6.5 -48t-10 -22.5t-17.5 -4q-25 0 -56.5 47.5t-121.5 218.5q-57 110 -63 110q-5 0 -32 -170q-27 -160 -46 -195q-6 -12 -23 -10q-20 3 -20 28q0 17 9 47q8 27 26 130
q7 49 16 100t15 90q9 79 38 79q17 0 40.5 -35t84.5 -151q102 -192 111 -192l1 1q4 5 9 113q11 246 23 260z" />
    <glyph glyph-name="o" unicode="o" horiz-adv-x="564" 
d="M399 486q-27 12 -76 12q-35 0 -53 -8q-45 -21 -99 -71.5t-67 -86.5q-6 -18 -6 -74q0 -46 7.5 -68.5t36.5 -61.5q34 -47 127 -47q41 0 83 21q26 14 39 25.5t32 39.5q31 47 36 67q8 30 8 89q0 54 -7 75q-8 29 -26 54.5t-35 33.5zM286 550q25 5 36 5q14 0 56 -9
q45 -11 69 -32q74 -66 74 -188q0 -18 -1 -27q-3 -52 -15 -86t-44 -82q-22 -31 -35 -43t-42 -27q-62 -34 -113 -34q-11 0 -41 4q-54 8 -82.5 23t-49.5 46q-37 55 -45.5 79.5t-8.5 79.5q0 68 13 95q28 60 99.5 121.5t129.5 74.5z" />
    <glyph glyph-name="p" unicode="p" horiz-adv-x="390" 
d="M271 499q-28 13 -73 13q-44 0 -80 -13q-15 -6 -20 -26.5t-5 -79.5v-53l18 4q2 0 62 10q41 7 64 19q48 30 56 83l4 30zM121 554q35 8 79 8q52 0 77 -9q31 -11 50 -31t19 -41q-2 -64 -39 -113q-24 -32 -52 -45.5t-94 -23.5l-68 -10l-1 -87q-4 -165 -5 -175t-17 -10
q-12 0 -18 6q-5 5 -6.5 10.5t-2.5 30t-1 82.5v141q0 181 10.5 217t68.5 50z" />
    <glyph glyph-name="q" unicode="q" horiz-adv-x="544" 
d="M387 467q-19 18 -53 18q-52 0 -117 -38q-54 -31 -96 -114q-22 -44 -22 -68q0 -16 1 -27q2 -33 6 -46t21 -38q23 -33 59 -59.5t64 -30.5q2 0 5 -0.5t4 -0.5q26 0 61.5 10.5t35.5 20.5q0 9 -25 46l-25 36q-1 2 -1 7q0 9 6.5 17t14.5 8t28.5 -20t35.5 -43l10 -16l11 20
q13 25 25 80t13 90v13q0 23 -5.5 38t-30.5 64q-10 18 -26 33zM266 529q23 7 60 7h10q30 -1 42 -5t34 -21q38 -29 77 -105q12 -23 12 -75q0 -68 -19 -130q-17 -57 -29 -82q-9 -18 -9 -27q0 -12 22 -28q17 -13 17 -27q0 -24 -19 -24q-18 0 -40 21l-24 21l-35 -18
q-50 -25 -93 -25q-56 0 -114 40q-113 77 -113 188q0 64 38 131q66 120 183 159z" />
    <glyph glyph-name="r" unicode="r" horiz-adv-x="433" 
d="M286 496q-22 9 -74 9h-21q-72 -1 -81 -4q-14 -13 -15 -43v-36q0 -77 4.5 -91.5t30.5 -14.5q104 0 176 64q14 12 19.5 22t7.5 28q1 4 1 12q0 20 -11 32t-37 22zM143 556q36 3 64 3q76 0 133 -32q48 -27 48 -83q0 -30 -15 -61q-12 -24 -47 -53.5t-65 -40.5q-21 -8 -21 -12
q0 -11 40 -82t71 -117q14 -20 14 -38q0 -17 -13 -24q-4 -3 -8 -3q-7 0 -20 16q-13 15 -60.5 94t-64.5 114q-8 16 -14.5 20.5t-23.5 6.5q-2 0 -8 0.5t-9 0.5q-17 0 -29 -3l-22 -4l5 -97q2 -26 2 -73q0 -36 -2 -40q-5 -21 -21 -21q-8 0 -13 4q-7 4 -10 22.5t-6 83.5
q-3 81 -5 238l-1 138l19 19q14 14 26.5 17.5t55.5 6.5z" />
    <glyph glyph-name="s" unicode="s" horiz-adv-x="383" 
d="M205 556q12 3 27 3q31 0 60.5 -12.5t39.5 -31.5q4 -7 4 -14q0 -19 -25 -19q-17 0 -34 11q-18 12 -39 12q-27 0 -67 -22q-33 -19 -44.5 -34t-15.5 -48q-2 -20 -2 -25q0 -20 10 -30t42 -23q41 -16 81 -29q38 -11 60.5 -37.5t34.5 -75.5q4 -18 4 -27q0 -70 -76 -108
q-41 -19 -92 -19q-40 0 -66 13q-61 29 -61 66q0 12 8 19.5t19 7.5q17 0 24 -16q6 -15 35 -29q22 -11 36 -11q7 0 35 5q84 15 84 75q0 40 -21 61t-81 41q-55 18 -74.5 28.5t-35.5 28.5q-10 13 -13 23t-3 36q0 86 36 119q16 15 52 35t58 27z" />
    <glyph glyph-name="t" unicode="t" horiz-adv-x="470" 
d="M152 549q68 5 155 5h22q70 -1 81.5 -2.5t12.5 -12.5q0 -1 0.5 -4t0.5 -4q0 -15 -16 -20t-63 -5h-64l-5 -30q-1 -7 -4 -111t-6.5 -205t-6.5 -108q-6 -14 -18 -14q-13 0 -22 13q-10 14 -10 104q0 88 7 210q5 85 5 119q0 13 -1 14t-9 1q-21 0 -73 -5t-62 -5q-18 0 -24 9
q-7 8 -7 14q0 5 11 18q8 8 25 11.5t71 7.5z" />
    <glyph glyph-name="u" unicode="u" horiz-adv-x="441" 
d="M82 530q11 8 20 8q18 0 18 -28q0 -10 -3 -22q-8 -31 -15 -148l-8 -119l25 -48q23 -44 46 -65.5t53 -24.5q6 -1 14 -1q11 0 19.5 6t27.5 28q32 36 42 68q21 69 23 248q1 55 3 69t10 18q5 3 10 3q22 0 30 -36q1 -4 1 -22q0 -44 -5.5 -128.5t-11.5 -121.5q-12 -80 -63 -136
q-25 -28 -44.5 -37.5t-48.5 -9.5q-96 1 -153 119q-17 36 -22.5 56.5t-5.5 54.5q0 10 4 90q10 161 34 179z" />
    <glyph glyph-name="v" unicode="v" horiz-adv-x="437" 
d="M47 523q8 10 20 10q11 0 17 -8q7 -7 23 -74q8 -35 20.5 -76t29.5 -92t23 -71l14 -48l24 51q16 34 49.5 117.5t53.5 125.5q21 43 29.5 55t19.5 13h6q15 0 15 -15q0 -21 -27 -82q-33 -73 -51 -123q-28 -74 -66.5 -153.5t-48.5 -82.5q-3 -1 -9 -1q-11 0 -20 8.5t-11 21.5
q-8 41 -63 210q-51 153 -51 200q0 11 3 14z" />
    <glyph glyph-name="w" unicode="w" horiz-adv-x="698" 
d="M51 545q8 8 23 6q28 -4 51 -160q14 -87 32 -151q21 -72 29 -103l9 -34l15 21q15 22 38 74q36 83 60 83q17 0 27.5 -17.5t25.5 -70.5q21 -74 26 -74t29 44q162 327 187 353q15 16 29 16q12 0 18 -14q3 -7 3 -12q0 -6 -12 -24q-15 -19 -84 -156q-104 -203 -125.5 -242
t-33.5 -39h-8q-21 0 -35.5 21.5t-32.5 78.5q-16 48 -21 48q-1 0 -2 -3q-14 -36 -35.5 -75t-39.5 -57q-25 -28 -35 -28q-6 0 -19 10q-14 11 -48 133t-46 206q-13 82 -22 107q-10 21 -10 39q0 13 7 20z" />
    <glyph glyph-name="x" unicode="x" horiz-adv-x="442" 
d="M66 532q7 7 14 7q14 0 42 -42q25 -38 63.5 -92.5t40.5 -54.5t57.5 76.5t67.5 96.5q11 17 26 17q22 0 22 -29q0 -10 -43 -74t-81 -110l-22 -26l43 -72q38 -64 74 -111q28 -37 28 -56v-7q-2 -15 -5 -19.5t-14 -5.5q-1 0 -3.5 -0.5t-3.5 -0.5q-11 0 -18 17q-7 15 -37 55
q-26 35 -58 90q-29 50 -36 55h-2q-17 0 -129 -184q-8 -14 -22 -14q-10 0 -17 7.5t-7 20.5q0 11 42.5 82t69.5 104q7 10 18 22l10 13q1 1 1 3q0 10 -17 35q-71 103 -91.5 136t-20.5 46q0 7 8 15z" />
    <glyph glyph-name="y" unicode="y" horiz-adv-x="437" 
d="M45 525q0 10 3.5 12.5t14.5 2.5q17 0 29 -15.5t35 -66.5q30 -66 65 -113q21 -28 27 -28q3 0 6 3q13 11 48.5 65t52.5 88q23 47 32 50q2 1 8 1q10 0 18 -7t8 -16q0 -26 -60.5 -122.5t-85.5 -109.5q-10 -5 -14 -14t-7 -32q-3 -31 -3 -78q0 -38 -11 -49q-10 -10 -15 -10
q-4 0 -15 8q-10 9 -10 45q0 29 1 51l4 87l-33 48q-28 40 -63 111.5t-35 88.5z" />
    <glyph glyph-name="z" unicode="z" horiz-adv-x="462" 
d="M81 536q8 8 28 8q14 0 24 -1q37 -3 154 -7q112 -2 122 -10q8 -7 8 -19q0 -21 -22 -46q-80 -92 -166 -205q-45 -59 -74 -91q-32 -38 -32 -39h5q8 0 77 3t103 3q40 0 45 -4q7 -6 7 -15q0 -17 -18 -25q-12 -6 -100 -11.5t-148 -5.5q-37 0 -40 3q-8 6 -8 23q0 16 10 33
q10 16 43 50q36 38 76 92q23 31 102 127q59 70 59 76q0 3 -24 6.5t-64 5.5t-83 2q-66 0 -80 10q-13 9 -13 19q0 9 9 18z" />
    <glyph glyph-name="braceleft" unicode="{" horiz-adv-x="491" 
d="M295 791q24 14 73 14q76 -1 76 -30q0 -16 -15 -22t-55 -6q-39 0 -47.5 -3t-19.5 -20q-18 -30 -25 -66t-11 -134q-7 -126 -11 -150q-5 -33 -88 -87l-38 -25q18 -17 52 -49.5t52 -48.5l4 -133q3 -93 6 -117t13 -38q31 -42 104 -51q58 -7 58 -28q0 -6 -5 -14q-8 -13 -53 -13
q-28 0 -60 6q-24 4 -54.5 31t-46.5 56q-11 20 -14 45t-4 107l-3 123l-23 23q-24 26 -68 47q-30 14 -37.5 21t-7.5 20q0 14 13 26.5t63 46.5q76 52 79 57q4 8 11 143t23 189t59 80z" />
    <glyph glyph-name="bar" unicode="|" horiz-adv-x="151" 
d="M51 782q9 9 21 9t19 -9q3 -4 5.5 -92.5t4.5 -215t4 -251.5t3 -220.5t1 -102.5v-35q0 -52 -11 -59q-12 -7 -24 5q-8 8 -12 41.5t-10 135.5q-10 188 -10 495q0 290 9 299z" />
    <glyph glyph-name="braceright" unicode="}" horiz-adv-x="446" 
d="M59 791q8 5 43 5h13q45 -4 78 -26q36 -26 43 -39q26 -40 27 -231v-139l45 -21q91 -43 91 -71q0 -17 -52 -66q-45 -42 -54 -67.5t-9 -107.5q0 -175 -103 -209q-38 -13 -83 -13q-40 0 -47 12q-4 5 -4 12q0 26 64 32q42 3 68 19q24 15 35 52.5t15 122.5q3 75 13.5 105
t47.5 69l37 39l-57 27q-36 17 -47 26t-14 23q-5 30 -5 182q0 132 -6 158.5t-40 43.5q-26 11 -55 11q-24 0 -40 9.5t-16 22.5q0 12 12 19z" />
    <glyph glyph-name="asciitilde" unicode="~" horiz-adv-x="552" 
d="M138 355q29 9 56 9h2q23 0 64 -13.5t41 -21.5q0 -9 25 -19t48 -10q21 0 32 5.5t32 26.5q31 32 46 32q10 0 19 -11q4 -5 4 -13q0 -31 -54 -72q-23 -17 -36 -21.5t-41 -4.5q-64 0 -121 45q-21 17 -65 17q-30 0 -42.5 -4.5t-35.5 -23.5q-28 -24 -46 -24q-15 0 -21 16
q-1 2 -1 6q0 20 28.5 44.5t65.5 36.5z" />
    <glyph glyph-name="nbsp" unicode="&#xa0;" 
 />
    <glyph glyph-name="guillemotleft" unicode="&#xab;" horiz-adv-x="550" 
d="M147 424q53 57 77 78.5t38 21.5q8 0 17 -9t9 -16q0 -10 -90 -105t-90 -103q0 -7 73 -77.5t94 -83.5q45 -30 45 -62q0 -7 -3 -13q-8 -14 -23 -14q-13 0 -21 11q-21 21 -46 41q-62 49 -119 108t-62 81q-2 8 -2 11q0 13 16.5 33.5t86.5 97.5zM412 519q12 11 23 11
q13 0 21 -17q3 -6 3 -11q0 -14 -47 -74q-54 -69 -81 -101q-28 -35 -28 -45q0 -8 42 -45.5t104 -83.5q35 -26 45.5 -38t10.5 -25q0 -20 -14 -25q-2 -1 -6 -1q-12 0 -112 76q-50 38 -94 79t-44 54q0 14 22 49t49 65q37 43 58 72q33 45 48 60z" />
    <glyph glyph-name="guillemotright" unicode="&#xbb;" horiz-adv-x="528" 
d="M51 506q8 10 15 10q12 0 47 -31t141 -135q31 -30 43 -45.5t12 -30.5q0 -14 -10.5 -31t-39.5 -55q-45 -56 -87 -113q-40 -54 -56 -54q-5 0 -12 5q-8 8 -8 18q0 19 28 60t102 133q21 24 21 32q0 10 -16 27t-69 65q-5 4 -7.5 6.5l-6.5 6.5t-8 7q-54 50 -74.5 73.5
t-20.5 37.5q0 8 6 14zM231 518q0 8 11 17.5t19 9.5q11 0 104 -104q96 -106 114 -150q5 -12 5 -21q0 -22 -54 -106q-9 -14 -30 -46.5t-28 -43.5q-15 -24 -23 -32t-18 -8h-5q-21 3 -21 17q0 22 59 116q62 100 62 106t-22 35.5t-47 56.5q-126 136 -126 153z" />
    <glyph glyph-name="afii57929" unicode="&#x2bc;" horiz-adv-x="197" 
d="M108 34q6 14 21 14q13 0 21 -15q4 -7 4 -14q0 -12 -16 -48q-28 -67 -42 -91t-25 -26q-15 -2 -22 8q-5 5 -5 11q0 4 7 25q17 48 57 136z" />
    <glyph glyph-name="afii10023" unicode="&#x401;" horiz-adv-x="645" 
d="M526 716q20 5 33 5q39 0 39 -26q0 -36 -163 -36q-129 -1 -235.5 -11t-106.5 -22v-7.5t0.5 -17t0.5 -24v-31.5v-35v-112l68 4q178 10 213 10q21 0 29 -2q21 -5 21 -22q0 -8 -4 -13q-4 -7 -20 -10t-72 -5q-7 0 -162 -8l-75 -4l4 -156q5 -153 11 -196q2 -14 6 -37t4 -25
l2 -22l80 4q105 7 188 17q64 8 118 8q51 0 67 -10q7 -4 7 -16t-7 -18q-4 -4 -103 -10q-62 -4 -125.5 -10.5t-136.5 -10.5l-105 -4l-16 20q-16 20 -20 41q-14 94 -18 175.5t-6 343.5v71q0 146 7 154q14 17 110.5 29.5t220.5 13.5q136 2 146 5zM191 851q17 17 25 17t18.5 -10
t10.5 -18q0 -10 -16 -30.5t-24 -22.5q-1 0 -3 -0.5t-3 -0.5q-23 0 -23 29q0 19 15 36zM377 868q12 12 24 12q13 0 23 -12q7 -8 7 -15t-5 -18q-15 -36 -38 -36h-5q-24 3 -24 30q0 21 18 39z" />
    <glyph glyph-name="afii10053" unicode="&#x404;" horiz-adv-x="723" 
d="M415 743q6 2 46 2q161 0 189 -11q25 -9 25 -28q0 -8 -4 -13q-6 -7 -51 -7q-10 0 -78 2q-28 1 -71 1q-53 0 -81.5 -7.5t-80.5 -33.5q-33 -17 -70 -52.5t-66 -79.5q-14 -21 -43 -96.5t-29 -90.5q0 -6 29 -6q34 0 129 9q92 9 179 9q76 0 94 -8q17 -9 17 -21q0 -9 -5 -15
q-5 -8 -49 -8h-32h-17q-153 0 -325 -21l-28 -4l4 -58q4 -63 27 -119q15 -39 26.5 -57.5t37.5 -45.5q26 -26 43 -37t49 -24q35 -13 57 -17t78 -6q14 -1 40 -1q84 0 158 35q29 13 40 13q17 0 17 -23q0 -25 -62 -48q-90 -34 -175 -34q-66 0 -138 22q-57 18 -86 35t-61 51
q-34 36 -46.5 57.5t-34.5 87.5q-16 47 -19.5 68t-3.5 75q0 75 16 132q28 97 57 150.5t84 109.5q77 77 214 113z" />
    <glyph glyph-name="afii10055" unicode="&#x406;" horiz-adv-x="165" 
d="M79 787q9 11 26 9l16 -2l-1 -60q-3 -92 -21 -380q-6 -81 -6 -271v-55q0 -121 -7 -128q-7 -8 -20 -8q-16 0 -20 10q-4 9 -4 144q0 271 9 397q10 146 13 234q4 97 15 110z" />
    <glyph glyph-name="afii10056" unicode="&#x407;" horiz-adv-x="408" 
d="M201 700q6 8 17 8q13 0 21 -10q7 -8 7 -77q0 -30 -5 -397q-5 -310 -11 -321t-17 -11q-13 0 -21 14q-6 9 -6 99q0 81 3 301q6 387 12 394zM57 829q12 24 29 24q11 0 21 -13q10 -15 10 -24q0 -14 -16 -31q-16 -19 -31 -19q-22 0 -22 29q0 19 9 34zM299 824q1 25 13 46
t31 21h2q7 -1 10 -2.5t4.5 -5.5t1.5 -12q0 -2 -0.5 -9t-0.5 -11q-2 -32 -10 -45.5t-26 -13.5h-6q-9 1 -12 2t-5 5t-2 13v12z" />
    <glyph glyph-name="afii10017" unicode="&#x410;" horiz-adv-x="716" 
d="M388 562q-26 108 -35 108q-7 0 -35 -77q-39 -108 -54 -163q-21 -76 -29 -97q-10 -22 -6 -28q2 -1 4 -1q24 0 81 11q46 8 117 19l36 4l-28 66q-28 66 -51 158zM333 778q10 6 23 6q16 0 22 -8q5 -5 11 -26q3 -11 27.5 -97t31.5 -116q11 -49 41 -120q18 -40 56.5 -163.5
t49.5 -153.5q65 -167 74 -210q1 -3 1 -7q0 -16 -18 -16q-3 0 -15 2q-9 2 -21.5 30.5t-47.5 126.5q-62 174 -70 204l-15 51l-44 -2q-27 -2 -129.5 -17t-105.5 -18q-1 -1 -21 -83q-9 -35 -79 -277q-12 -48 -33 -48q-9 0 -16 10q-7 8 -7 18q0 9 9 45q7 32 38 127q21 64 41 147
q11 51 43.5 149t41.5 133q11 38 46.5 138.5t44.5 131.5q11 38 21 43z" />
    <glyph glyph-name="afii10018" unicode="&#x411;" horiz-adv-x="660" 
d="M341 275q-43 9 -82 9q-54 0 -111 -18l-56 -16v-152q0 -138 4 -179t17 -49q14 -8 85 -8q97 0 150 12q105 25 150 83q31 39 49.5 82.5t18.5 75.5q0 10 -1 14q-8 52 -66 89.5t-158 56.5zM110 799q20 2 73 2q102 0 237 -3.5t139 -7.5q8 -6 8 -18q0 -10 -8 -18q-11 -8 -221 -9
l-211 -2l-5 -69q-2 -48 -13.5 -136.5t-14.5 -139.5l-4 -80l15 -4q2 -1 9 -1q16 0 35 7q36 13 105 13q58 0 104 -10q259 -55 259 -209q0 -22 -6 -46q-17 -75 -64.5 -134t-112.5 -85q-96 -39 -235 -39q-65 0 -101 12q-25 8 -35.5 25.5t-15.5 65.5t-5 153q0 94 1 154
q3 277 17 359q13 85 13 136q0 46 7.5 64t29.5 20z" />
    <glyph glyph-name="afii10019" unicode="&#x412;" horiz-adv-x="537" 
d="M276 341q-46 13 -115 13h-64v-115q0 -114 16 -292l4 -43h44q57 0 120.5 27t108.5 71q23 22 30.5 35t12.5 36q7 35 7 87v7q0 42 -11 67t-40 52q-26 23 -47 33.5t-66 21.5zM262 702q-42 19 -103 23l-62 5v-163q0 -162 6 -162q19 0 84.5 19.5t89.5 32.5q24 14 34.5 24
t21.5 31q18 34 18 71q0 29 -13 55q-12 24 -26 35.5t-50 28.5zM66 778q16 6 45 6q95 0 170 -35q122 -57 122 -164q0 -121 -105 -175l-27 -14l29 -7q73 -18 126 -70q69 -66 69 -158q0 -24 -5 -57q-10 -62 -19.5 -83t-43.5 -55q-53 -52 -124.5 -82.5t-141.5 -30.5
q-48 0 -66.5 7.5t-26.5 30.5q-19 56 -25 556q-1 62 -1 161q0 138 4 147q5 17 20 23z" />
    <glyph glyph-name="afii10020" unicode="&#x413;" horiz-adv-x="543" 
d="M325 762q92 9 123 9q24 0 36 -5q11 -6 11 -20q0 -10 -7 -16q-13 -10 -246 -28q-94 -6 -105 -14q-8 -6 -11 -28q-5 -40 -10 -287q-3 -116 -5 -190t-5 -134.5t-6.5 -91.5t-9 -51.5t-11.5 -26.5t-16 -6q-1 0 -3 0.5t-3 0.5q-8 1 -10.5 5.5t-2.5 20.5q0 20 1 36q2 64 7 120
q6 64 13 342q7 281 13 306q7 22 19 30q13 8 77 13q18 2 73 7.5t78 7.5z" />
    <glyph glyph-name="afii10021" unicode="&#x414;" horiz-adv-x="922" 
d="M574 644v39h-44q-46 0 -47 -4q-1 -1 -20 -65q-10 -36 -35 -113t-38 -128q-18 -73 -37 -115q-18 -39 -29 -88q-8 -35 -36 -110q-24 -64 -23 -65q7 -5 335 -5h26q2 2 -3 48q-20 168 -30 344q-5 110 -13 168q-6 60 -6 94zM625 668q0 -33 9.5 -140t9.5 -139q0 -120 29 -325
l10 -76l88 -3q82 -2 95 -10q11 -8 11 -25q0 -12 -7 -52q-8 -53 -18.5 -74t-27.5 -21q-21 0 -21 25q0 11 4 20q5 11 11 52l4 36l-40 -1h-24q-47 0 -337 4l-320 5l-4 -43q-6 -65 -35 -65h-4q-7 1 -9.5 6t-2.5 22q0 22 1 40q2 67 13.5 78t80.5 11q45 0 58.5 1.5t13.5 7.5
q0 12 25 74q18 42 35 102.5t31 94.5t41 130.5t35 119.5q6 15 29 91q17 60 27 81.5t23 28.5q18 9 93 9q58 0 65 -7q8 -8 8 -58z" />
    <glyph glyph-name="afii10022" unicode="&#x415;" horiz-adv-x="591" 
d="M110 745q14 6 76 6q13 0 139 -2q197 -4 208 -9q11 -6 11 -21q0 -16 -14 -24q-10 -5 -42 -5q-48 0 -258 10q-50 2 -57 2q-33 0 -41 -8q-10 -10 -14 -123q-6 -119 -9 -128l-4 -15l69 6q63 5 174 5h33q53 0 62 -2t11 -12q0 -1 0.5 -4t0.5 -5q0 -15 -20.5 -19.5t-98.5 -7.5
q-120 -4 -170 -7l-64 -4l-4 -48q-4 -52 -4 -224q0 -177 13 -177q14 0 106 9q214 21 242 21q16 0 23 -5q10 -8 8 -24q-2 -15 -23.5 -20t-121.5 -12q-175 -15 -176 -15q-55 -6 -84 -6q-15 0 -19 2q-10 5 -16 26q-4 16 -4 152q0 251 8 320q6 53 14 200q4 61 6 86.5t7.5 45.5
t11.5 24.5t21 11.5z" />
    <glyph glyph-name="afii10024" unicode="&#x416;" horiz-adv-x="1001" 
d="M73 686q8 9 19 9q18 0 60 -23q28 -15 42.5 -28.5t35.5 -42.5q54 -75 75 -214l10 -65h117l4 18q7 37 19 286q2 46 21 46q5 0 13 -5q14 -9 14 -80q0 -49 -6 -137q-6 -116 -6 -121q0 -4 8 -4h6q25 0 64 3l76 4l8 35q15 64 68 153t100 127q57 45 96 45q13 0 21 -4
q15 -7 15 -20q0 -11 -11 -20t-28 -9q-19 0 -51 -25t-59 -61q-88 -116 -111 -254q-12 -71 -12 -113q0 -37 9 -79q23 -111 104 -164q45 -30 45 -45q0 -3 -4 -11q-8 -13 -19 -13q-12 0 -31 12q-154 95 -154 304v22l3 58l-34 5q-18 2 -32 2q-18 0 -42 -2l-40 -5l-4 -87
q-1 -21 -4 -85.5t-4 -92.5q-3 -86 -6.5 -103t-17.5 -17q-18 0 -23.5 11t-5.5 53q0 33 3 96q6 154 6 182v41l-38 2q-30 2 -36 2q-28 0 -36.5 -14.5t-24.5 -82.5q-19 -78 -30 -105.5t-44 -79.5q-35 -55 -80 -95t-70 -40q-7 0 -11 3q-12 8 -12 19q0 15 19 26q53 27 104 104
q33 52 45 80.5t28 92.5q18 73 18 103q0 8 -2 42q-15 240 -144 305q-48 23 -48 43q0 8 5 13z" />
    <glyph glyph-name="afii10025" unicode="&#x417;" horiz-adv-x="603" 
d="M227 762q27 8 70 8q72 0 121 -22q39 -18 56 -40q14 -19 28.5 -59t14.5 -61q0 -34 -41 -87t-90 -82q-28 -17 -28 -20q1 -4 52 -29q31 -15 47 -27t33 -33q71 -86 71 -191q0 -3 -0.5 -9.5t-0.5 -9.5q-6 -107 -122 -179q-43 -27 -77.5 -37t-82.5 -10h-23q-47 2 -63 6t-50 23
q-37 22 -65.5 46t-28.5 34q0 9 9 15.5t20 6.5q13 0 38 -20q38 -33 68 -46t72 -15q9 -1 26 -1q67 0 127 39q78 51 95 106q7 22 7 51q0 62 -35 120.5t-91 87.5q-79 40 -133 40q-46 0 -46 25q0 7 2 11q5 14 10 14q16 1 58 13t59 20q31 15 68.5 49.5t50.5 59.5q12 24 12 32
q0 10 -7 31q-15 48 -44 69.5t-85 26.5q-9 1 -25 1q-57 0 -108 -24q-22 -11 -34 -11q-15 0 -18 17v5q0 33 83 56z" />
    <glyph glyph-name="afii10026" unicode="&#x418;" horiz-adv-x="642" 
d="M62 712q7 9 19 9q10 0 17 -7q8 -8 8 -59q0 -41 6 -143q2 -34 2 -79q0 -117 -6 -272.5t-12 -170.5q-2 -4 -2 -9q0 -1 1 -1q4 0 35 46q8 13 26.5 39.5t23.5 34.5q93 137 160 254q23 41 58 96q23 36 75 129q49 87 66 110t31 25h5q22 0 22 -35q0 -17 -3 -42q-6 -42 -10 -112
q-14 -228 -24 -557q-1 -38 -3 -50t-9 -16q-12 -7 -23 0q-7 4 -8.5 25.5t-1.5 116.5q0 116 8 324q7 143 7 181l-1 12q-1 1 -5.5 -5t-11.5 -17t-14 -24q-20 -36 -69.5 -115t-68.5 -113q-44 -75 -186 -288q-48 -72 -67.5 -96t-32.5 -24q-9 0 -20 11q-11 10 -11 36q0 4 2 54
q15 316 15 441q0 34 -2 118q-2 92 -2 105q0 60 6 68z" />
    <glyph glyph-name="afii10027" unicode="&#x419;" horiz-adv-x="636" 
d="M518 709q15 18 27 18q9 0 20 -11q9 -9 9 -24q0 -3 -4 -39q-3 -24 -3 -44q0 -27 4 -47q6 -34 8 -249q2 -197 10 -303q5 -63 5 -91q0 -11 -1 -12q-3 -9 -17 -9q-19 0 -25 12q-17 35 -22 379q-4 311 -19 311q-2 0 -26 -42q-20 -35 -41 -68q-16 -23 -69.5 -128.5
t-88.5 -181.5q-24 -53 -69 -125t-82 -118q-20 -25 -36 -25h-6q-13 1 -19 5.5t-10 25t-5 50.5t-1 95q0 100 -7 239t-8 226v37q0 83 5 107t21 24q1 0 3.5 -0.5t3.5 -0.5l17 -2l3 -177q13 -542 19 -542t15 18q10 21 35 52q24 31 71 126q92 188 126.5 253t103.5 179q38 63 53 82
zM412 854q9 6 26 6q18 0 21 -6q4 -8 4 -11q0 -22 -62 -55q-50 -26 -79 -48q-22 -18 -34 -18q-8 0 -15 7q-8 8 -8 16q0 24 86 74q56 32 61 35z" />
    <glyph glyph-name="afii10028" unicode="&#x41a;" horiz-adv-x="570" 
d="M90 752q10 14 27 12l17 -2l-2 -94q-2 -93 -11 -167q-9 -70 -9 -79q0 -13 5 -13q7 0 57 47q51 48 166 169q65 70 86 89t33 19h4q12 -2 15.5 -5t3.5 -14t-33 -48.5t-131 -137.5q-165 -168 -167 -175q-2 -6 25 -31q29 -25 79 -86q42 -53 160 -171q108 -108 108 -121
q0 -12 -8.5 -20t-19.5 -8q-16 0 -22 16q-5 14 -39 42q-35 29 -56 52q-115 115 -170 186q-29 36 -59.5 67t-38.5 31q-10 0 -12 -216q0 -95 -5 -152q-3 -29 -6 -35t-14 -8q-2 0 -5.5 -0.5t-4.5 -0.5q-12 0 -16 14.5t-4 62.5q0 68 4 181q8 243 20 344q13 108 13 171q0 67 10 81
z" />
    <glyph glyph-name="afii10029" unicode="&#x41b;" horiz-adv-x="714" 
d="M404 714q14 21 21 27.5t19 6.5q17 0 25 -14t16 -61q5 -35 37 -134q29 -83 45 -179q19 -109 42 -186q59 -209 59 -263q0 -13 -3 -18q-7 -9 -21 -9q-10 0 -14 6q-11 16 -32 122q-7 39 -37 142q-28 101 -44 193q-14 91 -44 180q-28 83 -34 110l-5 26l-14 -22q-9 -14 -33 -70
q-33 -77 -53 -120q-79 -175 -89 -195q-86 -172 -122 -261q-25 -61 -50 -61q-12 0 -19 8.5t-7 20.5q0 16 11 26q14 14 22 37q12 31 58.5 129.5t64.5 130.5q21 38 49 104q104 248 152 324z" />
    <glyph glyph-name="afii10030" unicode="&#x41c;" horiz-adv-x="923" 
d="M639 762q13 11 28 11q14 0 20 -8q8 -8 13 -39q27 -130 54 -216q23 -72 72.5 -313.5t49.5 -278.5q0 -7 -6 -11t-11 -4q-13 0 -22 14t-47 200q-60 296 -79 360q-16 54 -32 119q-21 85 -21 86l-5 18l-28 -41q-30 -46 -46 -65q-37 -48 -91 -155q-34 -68 -53 -68q-10 0 -20 10
q-14 13 -49.5 78t-55.5 114q-18 44 -25 44h-1q-5 -5 -37 -131t-44 -189q-14 -74 -32 -129q-17 -51 -41 -151q-19 -78 -31 -107t-26 -31h-5q-21 0 -21 24q0 5 4 21q62 239 73 269q15 42 32 129q21 105 74 306q10 40 20 71q7 17 34 17q4 0 10 -2q7 -3 27.5 -43.5t38.5 -86.5
q11 -29 38.5 -81t31.5 -52q3 2 37 62q26 47 91 140.5t81 108.5z" />
    <glyph glyph-name="afii10031" unicode="&#x41d;" horiz-adv-x="551" 
d="M465 776q7 9 24 9q13 0 19 -7q3 -3 3 -47t-3 -113q-6 -166 -6 -445v-104q0 -192 -9 -201t-16 -9q-6 0 -14 8t-12 172q-5 148 -5 246v84l-67 -3q-52 -2 -117 -6t-109.5 -8t-45.5 -5q-12 -12 -14 -293q0 -121 -4.5 -153t-22.5 -35q-12 -2 -19 5q-5 5 -5 132q0 180 8 303
q2 31 8.5 131.5t8.5 131.5q11 166 22 177q10 11 22 4q11 -7 11 -75q0 -59 -6 -169l-6 -101l82 5q144 6 170 8l89 4l3 173q4 174 11 181z" />
    <glyph glyph-name="afii10032" unicode="&#x41e;" horiz-adv-x="861" 
d="M606 704q-11 0 -33.5 7t-31.5 8q-30 3 -73 6q-30 2 -36 2q-25 0 -58 -13q-98 -37 -182.5 -156.5t-95.5 -236.5q-1 -8 -1 -27q0 -98 36 -175q18 -40 48 -68q27 -25 69 -51t75 -37q58 -18 136 -18q21 0 26 2q42 12 98.5 62.5t101.5 116.5q61 90 77 220q5 40 5 62
q0 50 -28 138l-22 69l-48 44q-48 45 -63 45zM364 765q40 14 76 14q38 0 90 -6.5t58 -12.5t25 -6q20 0 41 -14t61 -53q37 -36 53.5 -70t37.5 -118q12 -51 12 -80q0 -7 -2 -41q-9 -133 -54 -227q-34 -69 -98 -137t-126 -101q-35 -18 -70 -18h-19q-139 2 -241.5 66.5
t-136.5 170.5q-27 84 -27 161q0 21 1 32q11 136 107 268t212 172z" />
    <glyph glyph-name="afii10033" unicode="&#x41f;" horiz-adv-x="712" 
d="M525 785q54 3 79 3q27 0 36.5 -3.5t18.5 -13.5q9 -11 9 -32t-12 -114q-7 -53 -9 -422q-1 -286 -4.5 -333.5t-23.5 -48.5h-2q-9 0 -13 5t-7 30.5t-3.5 68t-0.5 127.5v125q0 33 0.5 105t1 92.5t1 69t1.5 67t3 53.5t4.5 61.5t6.5 59.5l4 48l-75 -2q-74 -2 -234 -20.5
t-172 -25.5q-9 -6 -14 -165q-3 -81 -10 -218.5t-9 -231.5q0 -115 -6 -159.5t-23 -44.5q-7 0 -17 7q-11 8 -11 27q3 133 15 426t15 324q8 66 28 79q27 14 159 28q36 4 74 9.5t56.5 8t52.5 5.5t81 5z" />
    <glyph glyph-name="afii10034" unicode="&#x420;" horiz-adv-x="592" 
d="M392 731q-36 9 -94 9q-52 0 -102 -8q-68 -13 -93 -40q-10 -10 -10 -45q0 -20 5 -128q7 -158 14 -165q2 -2 11 -2q30 0 98 13t88 23q28 15 74 45q32 21 46.5 35t32.5 45q34 55 34 87q0 26 -18 62q-17 36 -31 47t-55 22zM219 787q9 2 78 4h7q127 0 180 -48q54 -49 61 -135
q1 -9 1 -23q0 -23 -15 -53q-34 -66 -64.5 -98t-98.5 -73q-37 -23 -72 -33t-108 -20l-78 -11l5 -44q2 -19 6 -75t8 -105t7 -73q6 -44 6 -88q0 -51 -7 -58t-17 -7q-13 0 -19 11q-6 14 -6 42q0 22 -10 110q-22 187 -38 567q-2 50 -2 63q0 48 8.5 67.5t34.5 39.5q34 25 133 40z
" />
    <glyph glyph-name="afii10035" unicode="&#x421;" horiz-adv-x="651" 
d="M385 780q32 11 53 11q16 0 57 -6q88 -13 88 -49q0 -25 -20 -25q-9 0 -22 8q-22 13 -84 13q-45 0 -60.5 -3t-46.5 -19q-38 -19 -83 -61t-80 -92q-29 -40 -58 -129q-30 -89 -33 -156q-1 -16 -1 -47q0 -104 31 -169.5t100 -111.5q53 -35 142 -35q60 0 111 18q46 17 75 35
q22 14 34 14q17 0 17 -22q0 -17 -13 -28.5t-50 -28.5q-94 -43 -156 -43q-13 0 -20 1q-80 7 -118.5 21t-90.5 56q-59 47 -86 118t-27 181q0 72 10 124.5t40 133.5q17 48 29 68t58 76q89 111 204 147z" />
    <glyph glyph-name="afii10036" unicode="&#x422;" horiz-adv-x="725" 
d="M522 781q85 9 115 9q31 0 37 -12q3 -6 3 -10q0 -18 -46.5 -27t-167.5 -17l-67 -5l-4 -18q-13 -65 -13 -376q0 -91 3 -130q11 -168 11 -250q0 -52 -4 -59q-7 -13 -20 -13q-11 0 -18 9t-14 99q-7 92 -7 370q0 195 4 270l5 100l-136 -2h-45q-92 0 -101 8q-10 7 -10 19
q0 14 12 20q11 5 198 7q195 0 265 8z" />
    <glyph glyph-name="afii10037" unicode="&#x423;" horiz-adv-x="645" 
d="M52 769q7 9 19 9q10 0 19 -12.5t43 -74.5q137 -247 153 -264q10 -12 33 -48q18 -29 48 -63q22 -23 25 -23q4 0 8 9q15 28 118 344q19 58 31 81t24 23q4 0 10 -3q14 -7 14 -21q0 -12 -64 -204q-71 -213 -93 -254q-7 -14 -39.5 -107t-40.5 -109q-11 -23 -27 -75t-26 -73
q-11 -23 -18 -29t-19 -6q-13 0 -16.5 3.5t-3.5 16.5q0 23 11 45q10 21 27 75t27 74q11 22 32.5 81t21.5 69q0 5 -34 43q-72 80 -166 246q-16 29 -47.5 84t-35.5 62q-39 68 -39 87q0 7 5 14z" />
    <glyph glyph-name="afii10038" unicode="&#x424;" horiz-adv-x="789" 
d="M501 731q-38 9 -48 9h-16l-1 -147q0 -154 -5 -226l-5 -78l42 3q69 6 127.5 42t79.5 86q16 39 16 102q0 46 -3 60.5t-20 43.5q-22 40 -56.5 61.5t-110.5 43.5zM384 590v157h-27q-27 0 -90 -31q-58 -28 -86 -56t-56 -84q-26 -52 -26 -90q0 -30 8 -50.5t34 -56.5
q39 -55 156 -78q48 -10 59 -10q21 0 23 55q1 10 1 16q4 52 4 228zM308 789q35 12 67 12q30 0 88 -9q37 -6 88.5 -23.5t83.5 -35.5q31 -17 49.5 -38.5t37.5 -61.5q23 -51 23 -103q0 -51 -23 -129q-17 -58 -92.5 -105.5t-166.5 -58.5l-32 -4l2 -168q1 -38 1 -92
q0 -63 -4.5 -78.5t-20.5 -15.5t-20.5 20.5t-4.5 97.5q0 119 -4 168l-4 68l-23 4q-101 15 -173 49q-28 13 -43 24t-32 32q-50 61 -60 124q-1 5 -1 15q0 46 30 111t70 104q54 54 164 93z" />
    <glyph glyph-name="afii10039" unicode="&#x425;" horiz-adv-x="697" 
d="M89 782q5 4 13 4q21 0 26 -21q3 -11 57.5 -119.5t81.5 -156.5q21 -40 53 -83l28 -41l20 34q76 127 180 294q50 78 79 78h3q19 -1 19 -15q0 -18 -33 -61q-26 -34 -75.5 -115t-52.5 -86q-25 -38 -71 -115l-45 -73l35 -69q35 -69 49 -89q14 -18 110 -183q20 -35 20 -52
q0 -18 -19 -20h-3q-14 0 -26 19q-10 15 -54.5 90.5t-59.5 98.5q-25 39 -52 94q-27 51 -31 51t-30 -40.5t-44 -76.5q-14 -28 -67.5 -114.5t-70.5 -118.5q-33 -62 -47 -67q-6 -3 -12 -3q-9 0 -15.5 6t-6.5 15q0 11 25.5 60.5t53.5 91.5q80 123 110 181q14 28 45 78l31 53
l-12 26q-20 35 -28 46q-31 40 -108 189.5t-83 179.5q-2 10 -2 13q0 11 9 17z" />
    <glyph glyph-name="afii10040" unicode="&#x426;" horiz-adv-x="726" 
d="M511 776q11 8 19 8q9 0 18 -10q10 -10 10 -41q0 -23 -6 -62q-19 -139 -31 -457q-7 -190 -11 -232l-3 -40h79q54 0 73 -3.5t19 -15.5q0 -7 -4 -15l-6 -15l-275 -5q-178 -2 -192 -2q-85 0 -111 9q-2 1 -5 2q-21 9 -27 23q-13 28 -14 215q-1 40 -2 146v73q0 49 -0.5 132
t-0.5 115q0 159 2 167q3 10 17 10q15 0 24 -10t10 -366q2 -375 3 -403q1 -25 2 -33t10.5 -17t27 -10.5t54.5 -1.5q57 0 97 1q154 2 160 5q13 15 22 284q11 325 32 455q3 21 3 45q0 14 -1 18q-2 12 -2 14q0 9 9 17z" />
    <glyph glyph-name="afii10041" unicode="&#x427;" horiz-adv-x="559" 
d="M80 785q8 12 26 12q12 0 16 -7q4 -8 4 -21q0 -29 -15 -114q-13 -74 -13 -152q0 -72 11 -102q29 -81 107 -100q51 -12 136 -12q31 0 46 3l36 6l4 74q7 140 22 320q7 76 14 84t23 8q15 0 18 -8v-7q0 -40 -10 -175q-13 -157 -19 -420q-4 -181 -8 -235t-13 -65q-8 -8 -17 -8
q-13 0 -18 11q-3 5 -3 55q0 21 2 77q5 112 5 179v30q0 26 -6 26q-1 0 -7 -2q-11 -4 -57 -4q-93 0 -142 11q-82 17 -120.5 60t-52.5 132q-5 35 -5 67q0 68 17 162q13 72 13 87q0 14 6 28z" />
    <glyph glyph-name="afii10042" unicode="&#x428;" horiz-adv-x="720" 
d="M50 745q8 8 17 8q18 0 22 -31.5t4 -183.5q2 -216 6 -263q6 -53 10 -190l5 -127l108 2q106 2 115 4q6 1 9.5 184t8 373.5t12.5 204.5q6 8 18 8q18 0 24 -14q2 -6 2 -31q0 -37 -3 -88q-5 -103 -9 -368l-4 -264l17 -4q4 -1 33 -1q159 0 166 7q4 4 9 26q8 29 8 451
q0 212 -4 235q-2 14 -2 20q0 15 3 20q6 11 17 11q14 0 25 -17q8 -12 10 -66.5t2 -287.5q0 -220 -2 -285t-10 -99q-11 -48 -21 -57q-11 -8 -268 -12q-57 -1 -126 -2t-102 -2t-35 -1q-10 -3 -21 -2q-19 1 -26 33t-10 133q-7 150 -10 193q-6 75 -6 253q0 222 8 230z" />
    <glyph glyph-name="afii10043" unicode="&#x429;" horiz-adv-x="875" 
d="M72 727q9 9 22 9q15 0 17 -11q1 -6 1 -37q0 -157 -8 -255q-5 -72 -7 -307l-2 -231l63 -5q34 -3 88 -3q33 0 47 1q50 3 61 5.5t13 12.5q4 24 10 118t6 140q0 53 10 193q9 126 9 225q0 97 4 113q2 8 11 14t18 6q8 0 13 -5t5 -111q0 -139 -7 -210q-4 -40 -12.5 -226.5
t-11.5 -222.5l-4 -57l75 5q62 3 124 3h49l5 199q1 54 4 197t5 197q3 154 8 186t25 32q10 0 17 -7q3 -5 3 -58q0 -69 -12 -564l-4 -177l44 4q9 1 24 1q42 0 42 -25q0 -15 -21 -22q-25 -8 -189 -13.5t-323 -5.5q-156 0 -188 6q-32 7 -47 23q-11 12 -13 37.5t-4 166.5v51
q0 296 15 412q2 18 2 100q1 56 3 72t10 24z" />
    <glyph glyph-name="afii10044" unicode="&#x42a;" horiz-adv-x="755" 
d="M628 168q-34 38 -104 59.5t-152 21.5q-42 0 -83 -6q-61 -9 -62 -12q-7 -7 -7 -274q0 -59 1 -67l5 -29l78 -4q42 -2 56 -2q86 0 159 37q105 52 130 136q13 40 13 67q0 38 -34 73zM52 768q3 4 88 4q60 0 74 -2.5t27 -14.5q15 -14 15 -26q0 -3 -2 -19q-9 -56 -20 -306
l-4 -106l19 -4q4 -1 16 -1q21 0 40 3q42 7 82 7t74 -6q113 -19 178.5 -69t71.5 -122q0 -2 0.5 -8t0.5 -9q0 -73 -33 -127q-43 -68 -139 -115.5t-187 -47.5q-21 0 -40 3q-40 7 -74 7q-50 0 -64 51q-6 21 -6 135q0 115 6 238q1 29 5.5 128t6.5 142q8 161 10 179l4 39h-69
q-69 0 -77 8q-7 7 -7 24q0 11 4 15z" />
    <glyph glyph-name="afii10045" unicode="&#x42b;" horiz-adv-x="731" 
d="M643 730q9 10 19 10t18 -9t8 -23q0 -4 -0.5 -24t-1 -58.5t-0.5 -68.5q-2 -133 -13 -251q-11 -113 -11 -289q0 -128 -1.5 -153t-11.5 -33t-16 -8q-17 0 -22 44q-2 20 -2 61q0 263 18 473q9 101 9 197v19v43q0 63 7 70zM245 217q-44 9 -63 9q-6 0 -22.5 -1t-30.5 -2l-37 -3
v-106q0 -244 18 -251q20 -8 54 -8q80 0 130 33q76 50 92 190q1 7 1 21q0 48 -53 84q-35 24 -89 34zM74 739q7 7 17 7q13 0 20 -9q6 -6 6 -55q0 -80 -15 -208q-10 -88 -10 -142v-62l57 4q8 1 25 1q47 0 96 -10.5t78 -27.5q30 -17 55 -46t31 -53q4 -13 4 -37q0 -79 -38 -167
q-27 -60 -89 -94.5t-140 -34.5q-37 0 -69 7t-39 15q-15 17 -18 121q-1 31 -2 178q-1 61 -1 149q0 132 11 245q14 119 14 168q0 44 7 51z" />
    <glyph glyph-name="afii10046" unicode="&#x42c;" horiz-adv-x="643" 
d="M351 249q-36 8 -86 8q-53 0 -109 -10l-54 -9l-5 -153q-6 -176 -7 -182l-4 -28l33 -11q30 -10 85 -10q68 0 143 15q89 18 128 44.5t59 83.5q16 44 16 80q0 39 -20 70q-28 43 -67 65t-112 37zM84 782q12 9 15 9q1 0 15 -7q11 -7 11 -31q0 -4 -2 -64q-6 -96 -14 -165
q-9 -76 -9 -154q0 -80 9 -80q8 0 61 11q46 8 92 8q87 0 156 -24q94 -31 139 -89q28 -35 35.5 -56.5t7.5 -64.5q0 -49 -18 -100t-44 -77q-43 -43 -132.5 -69t-198.5 -28h-29q-46 0 -85 16q-43 17 -49 33q-2 6 -2 78q0 143 6 381.5t10 245.5q3 5 9 113q3 70 6 89t11 25z" />
    <glyph glyph-name="afii10047" unicode="&#x42d;" horiz-adv-x="693" 
d="M170 766q12 2 52 2q114 0 165 -12q67 -17 134 -73q38 -31 50 -47t35 -63q45 -93 45 -204q0 -26 -5 -53q-8 -44 -31 -126t-35 -109q-12 -29 -45.5 -77t-59.5 -74q-55 -55 -93.5 -72.5t-117.5 -21.5q-18 -1 -43 -1q-31 0 -68 11q-49 17 -74 31q-20 11 -26 18t-6 19
q0 20 15 20q17 0 58 -20q57 -27 105 -27q30 0 63 4q66 8 90 23q27 16 27 21t16 14q24 13 99 128q13 19 23.5 51t24.5 87.5t16 60.5q14 51 11 54q-1 1 -30 1q-78 0 -178 -4l-206 -7l-11 14q-12 14 -6 26q4 7 31.5 9.5t144.5 5.5q240 6 254 19q1 1 1 6q0 15 -5 50
q-16 118 -97 190q-39 34 -79 54q-26 12 -47.5 14t-109.5 4q-89 2 -113 6.5t-24 18.5q0 10 13.5 18t36.5 11z" />
    <glyph glyph-name="afii10048" unicode="&#x42e;" horiz-adv-x="1032" 
d="M733 647q-35 11 -69 11q-38 0 -63 -12q-47 -22 -108.5 -109t-78.5 -156q-12 -45 -12 -87q0 -43 16 -118q17 -75 49 -132q23 -42 36 -57.5t48 -41.5q42 -31 65.5 -39t76.5 -8q75 1 126 54t85 167q36 118 36 233q0 119 -40 181q-19 29 -70.5 64t-96.5 50zM589 696
q30 12 66 12q3 0 11 -0.5t13 -0.5q43 -2 60 -6.5t66 -29.5q118 -59 153 -134q32 -67 32 -175q0 -66 -12 -141q-17 -109 -50.5 -191.5t-75.5 -119.5q-38 -33 -69.5 -46.5t-79.5 -15.5h-21q-91 0 -145 40q-50 37 -67 56.5t-47 74.5q-24 45 -34 72t-21 75q-17 79 -17 88
q0 11 -21 11q-26 0 -115 -16q-91 -16 -108 -16h-16l4 -166q2 -94 2 -109q0 -54 -5 -70t-19 -16q-9 0 -18 9q-5 7 -9 128.5t-4 261.5q0 149 4 226q7 160 12 174q6 19 26 19q13 0 18 -11q3 -6 3 -29q0 -16 -11 -266q-3 -54 -3 -73q0 -18 2 -22.5t8 -4.5q8 0 104 14.5t131 21.5
q8 2 12.5 10t8.5 33q14 83 76 176q40 60 82 102t74 55z" />
    <glyph glyph-name="afii10049" unicode="&#x42f;" horiz-adv-x="707" 
d="M573 771q-45 15 -110 18q-7 0 -19 0.5t-16 0.5q-36 0 -78 -15q-99 -35 -166 -89t-83 -112q-5 -22 -5 -42q0 -91 52 -151q17 -21 61.5 -43.5t87.5 -34.5q52 -13 166 -13q60 0 99 4l38 5l4 95q3 59 8 229l4 133zM382 838q24 7 62 7q66 0 124 -19q48 -16 66 -16q16 0 24 -8
t8 -92q0 -74 -8 -229q-6 -118 -6 -389v-82q0 -67 -1 -102.5t-4 -56t-7 -25t-12 -4.5q-18 0 -22 20.5t-4 109.5q0 122 -5 205l-3 90l-23 -4q-22 -3 -124 -7q-68 -2 -86.5 -4t-22.5 -9q-67 -110 -97 -189q-21 -52 -62 -128q-25 -46 -36 -63t-20 -19q-2 -1 -7 -1q-10 0 -18.5 6
t-8.5 13q0 9 38 75q41 77 66 136q28 66 64 130q34 61 34 66q0 1 -31 9q-37 11 -87.5 41.5t-66.5 51.5q-62 85 -62 179q0 52 21 93q36 70 119 126.5t198 88.5z" />
    <glyph glyph-name="afii10065" unicode="&#x430;" horiz-adv-x="477" 
d="M262 361q-13 49 -25 75q-5 11 -7 11q-4 0 -15 -27q-13 -30 -28.5 -76t-15.5 -55q0 -6 11 -6q7 0 40 5q55 8 55 12q0 11 -15 61zM207 536q8 7 17 7q19 0 46 -54q23 -45 40 -108q10 -38 38 -100.5t36 -87.5q9 -29 20.5 -50t20.5 -50q8 -27 8 -36q0 -7 -8 -15t-16 -8
q-18 0 -32 41q-11 32 -16 35t-20 46q-30 90 -42 90q-15 0 -73.5 -10.5t-66.5 -14.5q-10 -4 -25.5 -47t-26.5 -93q-14 -62 -35 -62q-8 0 -18 7q-8 6 -8 14q0 5 8 45q11 48 34.5 119.5t31.5 98.5q66 217 87 233z" />
    <glyph glyph-name="afii10066" unicode="&#x431;" horiz-adv-x="427" 
d="M269 261q-39 22 -97 22q-21 0 -39 -5q-9 -4 -18 -4q-2 0 -5.5 0.5t-4.5 0.5q-6 0 -6 -11q0 -1 2 -29q4 -29 8 -110l4 -69h23q20 0 64.5 14.5t83.5 33.5q29 14 39 30t10 49q0 43 -64 78zM97 543q8 2 93 2q155 0 173 -4q8 -3 8 -15q0 -20 -16 -30q-14 -9 -53 -9q-8 0 -80 2
l-117 4l-6 -16q-7 -19 -7 -79q0 -32 4 -56q2 -11 5.5 -15t9.5 -2q17 8 66 8q45 0 69 -7q34 -10 75 -37.5t53 -48.5q11 -19 11 -53q0 -66 -32 -101q-21 -23 -97 -52t-116 -29q-34 2 -54 12l-22 11l-5 66q-16 270 -16 350q0 25 1 30q4 27 18.5 46t34.5 23z" />
    <glyph glyph-name="afii10067" unicode="&#x432;" horiz-adv-x="399" 
d="M237 252q-40 15 -63 15q-14 0 -24 -1q-24 -2 -29 -4.5t-7 -17.5q-17 -117 -17 -159v-24l50 3q54 4 79 14t51 36q28 28 28 43q0 8 -1 14q-3 26 -21.5 48t-45.5 33zM233 484q-23 14 -59 20q-14 2 -18 2q-13 0 -16 -12t-8 -67q-5 -57 -7 -76l-4 -31l51 3q51 5 80 18
q45 19 45 58q0 47 -64 85zM109 553q16 9 32 9q12 0 52 -8q62 -13 109 -56.5t47 -95.5q0 -45 -40 -84l-26 -26l23 -22q22 -21 36.5 -50t14.5 -53q0 -37 -26.5 -73t-69.5 -58q-52 -27 -141 -27q-44 0 -61 10q-15 8 -15 59q0 29 6 70q7 57 23.5 214.5t17.5 176.5q0 5 18 14z
" />
    <glyph glyph-name="afii10068" unicode="&#x433;" horiz-adv-x="389" 
d="M204 545q61 6 92 6q27 0 37 -5t10 -18q0 -17 -23.5 -23.5t-110.5 -11.5q-114 -7 -117 -15v-2q0 -2 -0.5 -5t-0.5 -6q0 -41 7.5 -156t13.5 -162q5 -40 5 -72q0 -18 -1 -24q-2 -20 -5.5 -26.5t-12.5 -7.5q-2 0 -4.5 -0.5t-3.5 -0.5q-14 0 -19 14t-8 57q-3 55 -11 125
q-6 56 -8 188l-1 122l16 13q12 9 28 9q13 0 22 -1q7 -1 28 -1q35 0 67 3z" />
    <glyph glyph-name="afii10069" unicode="&#x434;" horiz-adv-x="602" 
d="M420 387l-4 108h-36q-70 -1 -89 -33q-16 -25 -48 -200q-16 -89 -35 -144l-17 -55q0 -3 120 -3h121l-4 109q-1 28 -4 107.5t-4 110.5zM347 545q39 6 65 6q28 0 41 -8q8 -6 9 -12q5 -19 16 -349l4 -122h20q24 0 39 -7.5t15 -18.5q0 -8 -9 -17q-7 -7 -48 -8.5t-200 -3.5
q-138 -2 -154 -2q-85 0 -93 9q-5 7 -5 16q0 24 19 29q12 3 44 3q19 0 24.5 2t5.5 10q0 11 15 52q10 26 29.5 116t27.5 146q5 29 18.5 64t27.5 52q29 35 89 43z" />
    <glyph glyph-name="afii10070" unicode="&#x435;" horiz-adv-x="384" 
d="M100 513q12 5 72 5q132 0 156 -11q11 -6 11 -19q0 -17 -14 -22q-10 -2 -48 -2q-9 0 -29 0.5t-31 0.5l-95 2l-7 -29q-6 -23 -12 -67l-4 -39h59q59 0 74 -12q9 -7 10.5 -12t-3.5 -13q-5 -10 -16 -12t-57 -2q-65 0 -69 -10q-4 -12 -4 -101v-91l27 3q107 14 135 14
q21 0 27.5 -5.5t6.5 -17.5q0 -13 -14 -19t-59 -11q-99 -12 -124 -12t-37 12q-12 13 -12 53q0 4 2 100q8 293 55 317z" />
    <glyph glyph-name="afii10072" unicode="&#x436;" horiz-adv-x="703" 
d="M590 505q30 33 41 33q4 0 14 -5q12 -6 12 -18q0 -19 -30 -49q-32 -33 -51 -83q-39 -98 -39 -164q0 -3 0.5 -11t0.5 -12q2 -38 6.5 -55t20.5 -45q21 -39 21 -55q0 -13 -12 -21q-4 -3 -11 -3q-18 0 -26 19q-1 2 -5 9t-10 19.5t-11 21.5q-14 27 -18 44t-5 56l-3 59l-42 -4
q-46 -4 -61 -4h-20l-3 -68q-5 -103 -31 -112q-8 -2 -11 -2q-16 0 -16 49q0 29 1 48l4 86q-17 0 -52 -1.5t-53 -2.5l-11 -48q-12 -46 -64 -155q-11 -20 -32 -20t-27 18q-1 2 -1 5q0 13 16 36q42 60 61 140q8 37 8 56q0 7 -4 51q-8 64 -17 85t-44 56q-40 40 -40 54q0 7 7 14
q8 8 18 8q19 0 60 -44q39 -43 47 -62q4 -10 14 -65.5t11 -70.5q0 -5 50 -5q49 0 53 12q4 23 7 108q3 61 6 80.5t11 27.5q11 11 17 11t15 -10q7 -8 7 -35q0 -21 -3 -83q-4 -98 -4 -104q6 -5 7 -5q8 0 60 2l63 5l10 32q35 121 88 177z" />
    <glyph glyph-name="afii10073" unicode="&#x437;" horiz-adv-x="425" 
d="M207 548q27 9 53 9q42 0 73 -20q45 -30 45 -78q0 -52 -52 -104q-29 -29 -29 -32q0 -4 26 -27q49 -44 59 -96q1 -4 1 -13q0 -49 -67 -93q-28 -19 -42.5 -24.5t-44.5 -7.5q-4 0 -14 -0.5t-15 -0.5q-30 0 -45 3q-20 3 -32 11t-38 35q-39 40 -39 55q0 7 7 14t14 7
q13 0 46 -34q22 -23 38 -31.5t40 -8.5q7 0 33 2q40 4 71 27q33 27 33 50q0 17 -15 41q-28 42 -88 42h-15l-42 -2v19q0 12 8 19.5t40 25.5q44 25 74.5 56t34.5 56q2 14 2 16q0 10 -14 23q-18 15 -51 15q-65 0 -110 -42q-15 -15 -30 -15q-19 0 -19 21q0 9 6 21q8 14 38 32.5
t60 28.5z" />
    <glyph glyph-name="afii10074" unicode="&#x438;" horiz-adv-x="460" 
d="M53 516q9 11 23 11q10 0 14 -7q4 -5 4 -185l-2 -177l15 18q124 155 224 292q23 32 36 44.5t25 12.5q6 0 9 -1q17 -6 17 -35q0 -15 -3 -41q-7 -46 -7 -205q0 -154 -4 -166q-3 -10 -19 -10q-13 0 -21 8q-6 10 -8 171l-2 162l-17 -21q-32 -37 -115 -146.5t-108 -147.5
q-22 -31 -34 -31h-5q-23 3 -28 37t-5 200q0 133 2 171t9 46z" />
    <glyph glyph-name="afii10075" unicode="&#x439;" horiz-adv-x="523" 
d="M53 523q6 17 24 17q14 0 20 -12q3 -6 3 -56t-3.5 -173t-3.5 -148q0 -19 1 -19q5 0 78 81t97 113q53 70 106 132.5t67 72.5q8 6 12 6q5 0 15 -10q11 -11 11 -21q0 -6 -1 -9q-14 -55 -20 -290q-3 -126 -8 -152t-26 -26q-13 0 -17.5 12.5t-4.5 55.5q0 38 3 119q6 156 6 177
t-4 21h-1q-7 0 -49 -55q-122 -155 -201 -238q-75 -79 -94 -79q-11 0 -17 17q-4 9 -4 121q0 312 11 343zM333 635q51 30 64 30q10 0 16 -11q4 -10 4 -13q0 -17 -50 -45q-50 -30 -79 -51q-31 -23 -47 -23t-16 21q0 27 108 92z" />
    <glyph glyph-name="afii10076" unicode="&#x43a;" horiz-adv-x="462" 
d="M77 534q10 10 20 10q11 0 19 -10q6 -8 6 -41q0 -8 -2 -56q-1 -21 -3.5 -45.5t-4 -39.5t-1.5 -19q0 -2 1 -2q6 0 52 46q50 50 105.5 99t61.5 49q26 0 26 -25q0 -11 -15.5 -28.5t-64.5 -61.5q-82 -75 -101 -97l-20 -24l56 -49q100 -85 158 -124q44 -31 47 -42q1 -2 1 -8
q0 -9 -6.5 -16t-15.5 -7q-16 0 -75.5 43t-125.5 102q-33 30 -64 52l-27 18l-3 -90q-2 -73 -10 -104.5t-24 -31.5q-5 0 -15 5q-9 5 -9 41q0 34 1 62q1 69 9.5 154.5t10.5 139.5q4 88 13 100z" />
    <glyph glyph-name="afii10077" unicode="&#x43b;" horiz-adv-x="479" 
d="M240 520q14 12 24 12q23 0 36 -62q9 -40 31 -90q13 -32 41 -119t42 -121q21 -52 21 -79q0 -19 -10 -22q-11 -4 -20 2q-12 8 -36.5 73t-51.5 147t-38 106q-21 47 -21 57q0 8 -5 3t-40.5 -90.5t-40.5 -103.5q-5 -16 -38 -83q-35 -68 -35 -77q0 -10 -7 -26q-6 -15 -22 -15
h-5q-9 1 -12.5 2.5t-5 5t-1.5 12.5v9q0 26 31 88q36 77 54 122q93 235 109 249z" />
    <glyph glyph-name="afii10078" unicode="&#x43c;" horiz-adv-x="595" 
d="M440 500q44 45 63 45q11 0 16 -12q4 -9 10 -154q9 -270 23 -306q1 -2 1 -6q0 -9 -7.5 -16.5t-17.5 -7.5q-12 0 -21 15q-19 28 -28 282l-4 122l-57 -64q-57 -64 -69 -85q-16 -28 -37 -28q-3 0 -11 2t-41.5 55t-44.5 80q-2 5 -4 5q-4 0 -29 -78q-67 -216 -82.5 -254.5
t-32.5 -38.5q-21 0 -21 17q0 18 29 111q12 36 39 123.5t28 89.5q33 104 43 112q9 9 27 9t27 -10q8 -10 20 -49q9 -29 27.5 -63.5t25.5 -34.5h1q5 2 45 49q48 54 82 90z" />
    <glyph glyph-name="afii10079" unicode="&#x43d;" horiz-adv-x="452" 
d="M367 559q9 10 21 10q10 0 18 -9q4 -5 4 -44q0 -51 -4 -148q-7 -175 -7 -254q0 -70 -6 -84q-9 -12 -25 -12q-13 0 -18 8q-3 6 -3 86q0 109 5 177l4 46h-37q-79 0 -198 -17l-21 -3l3 -136q1 -39 1 -88q0 -50 -9 -55q-14 -6 -17 -6q-16 0 -21 40.5t-9 175.5q-5 155 -5 237
q0 57 10 63q11 7 22 0t18 -88l8 -85h1q14 0 119 7.5t112 8.5l21 3l2 78q1 78 11 89z" />
    <glyph glyph-name="afii10080" unicode="&#x43e;" horiz-adv-x="543" 
d="M363 465q-44 22 -81 22q-55 0 -115 -61q-23 -25 -50 -82q-23 -51 -23 -73q0 -23 23 -72q21 -44 50 -61q29 -19 52.5 -25t63.5 -6q30 0 42.5 3.5t37.5 20.5q34 23 45.5 37t27.5 50q18 41 18 93q0 64 -19 96t-72 58zM208 521q35 17 80 17q30 0 46 -4t46 -18q78 -38 106 -97
q10 -20 12.5 -38t2.5 -75v-82l-24 -45q-19 -35 -43 -58t-69 -48q-19 -11 -34 -14t-49 -3q-49 0 -80 8.5t-68 32.5q-24 16 -34 28t-28 50q-17 35 -21.5 52.5t-5.5 47.5q0 30 5 47t25 58q50 99 133 141z" />
    <glyph glyph-name="afii10081" unicode="&#x43f;" horiz-adv-x="414" 
d="M206 535q26 2 62 3.5t54 3t21 1.5h5q8 0 12.5 -4t7.5 -18.5t4 -40.5t1 -73q0 -13 -0.5 -50.5t-0.5 -61.5q-2 -230 -5 -243q-5 -17 -22 -17q-10 0 -16 5t-8 19.5t-2 68.5q0 77 1 140l2 220l-107 -4q-108 -6 -112 -10q-5 -5 -7 -208q-1 -84 -2 -125t-4.5 -67t-8 -31.5
t-13.5 -5.5q-16 0 -21 16.5t-5 83.5q0 9 0.5 33t0.5 39q2 186 3 229t7 55q7 17 18 24t37 10.5t98 7.5z" />
    <glyph glyph-name="afii10082" unicode="&#x440;" horiz-adv-x="398" 
d="M286 492q-10 10 -25 12t-70 2h-81v-120h40q100 0 132 37q18 19 18 40q0 17 -14 29zM139 558q62 2 78 2q55 0 77.5 -9.5t41.5 -38.5q18 -28 18 -56q0 -53 -58 -88.5t-150 -35.5h-5h-13q-21 0 -28 -6t-7 -27q0 -7 4 -57q2 -17 2 -53q0 -49 -6 -88.5t-16 -46.5q-11 -7 -22 0
q-7 4 -9 26t-3 110q0 137 8 177q8 52 8 108q0 58 11 69.5t69 13.5z" />
    <glyph glyph-name="afii10083" unicode="&#x441;" horiz-adv-x="432" 
d="M223 525q33 18 58 18q21 0 46 -14q28 -15 28 -31q0 -6 -6 -14q-7 -9 -19 -9t-30 9q-14 6 -19 6q-7 0 -23 -6q-46 -20 -91.5 -72.5t-60.5 -104.5q-10 -34 -10 -82v-50l40 -40q28 -28 39.5 -34.5t38.5 -9.5q7 -1 20 -1q24 0 43 10.5t52 40.5q24 21 32 21q5 0 11 -3
q16 -7 16 -20q0 -25 -69 -72q-44 -30 -80 -30q-24 0 -63 9q-38 10 -71 42q-36 35 -48.5 64t-12.5 76v7q1 93 47.5 168t131.5 122z" />
    <glyph glyph-name="afii10084" unicode="&#x442;" horiz-adv-x="421" 
d="M277 544q58 5 71 5h1q7 0 16.5 -9.5t9.5 -16.5q-1 -16 -14.5 -21.5t-58.5 -8.5q-63 -6 -65 -9q-4 -2 -9 -114q-6 -125 -10 -159q-7 -47 -7 -100q0 -52 -10 -66q-9 -14 -23 -14q-11 0 -17 11q-3 4 -3 30q0 62 14 222q7 74 7 131v56l-57 -5q-13 -1 -32 -1q-26 0 -35 6
q-9 7 -9 19q0 10 8 18q14 10 223 26z" />
    <glyph glyph-name="afii10085" unicode="&#x443;" horiz-adv-x="386" 
d="M49 547q8 10 16 10q17 0 41 -46q33 -65 109 -147l29 -32l7 17q6 14 19 79q14 72 22.5 92.5t24.5 22.5h4q21 0 21 -26q0 -8 -3 -17t-15 -73q-8 -40 -40 -145t-38 -128q-13 -47 -24 -64q-9 -14 -23 -14q-9 0 -17 9q-4 6 -4 12q0 16 36 136l13 42l-36 38q-20 21 -34.5 38
t-36 44.5t-30.5 38.5q-45 57 -45 99q0 10 4 14z" />
    <glyph glyph-name="afii10086" unicode="&#x444;" horiz-adv-x="512" 
d="M379 488q-25 22 -44 24q-13 0 -15.5 -4.5t-2.5 -29.5q0 -38 -7 -115q-4 -39 -4 -70v-6v-5l1 -2q2 -2 6 -2q26 0 55 23q21 17 35 51t14 65q0 15 -5 28q-9 22 -33 43zM264 444l5 68h-19q-32 -1 -79.5 -31.5t-62.5 -60.5q-11 -22 -11 -45q0 -36 32.5 -60.5t93.5 -33.5l29 -4
l4 50q4 31 8 117zM226 561q22 6 62 6q68 0 88 -11t49 -42t36 -51q8 -22 8 -47q0 -39 -15.5 -79t-42.5 -67q-24 -23 -67 -37l-44 -14l-4 -92q-3 -70 -8 -89.5t-21 -19.5q-15 0 -20 14t-5 61v37l3 93l-42 8q-85 16 -126 63q-20 23 -26 39.5t-6 47.5q0 66 67 120q55 44 114 60z
" />
    <glyph glyph-name="afii10087" unicode="&#x445;" horiz-adv-x="471" 
d="M104 517q6 6 16 6q15 0 21 -11q4 -7 34 -76q49 -112 59 -112q3 0 79.5 100.5t89.5 100.5q10 0 16.5 -9t6.5 -20q0 -13 -24 -41q-24 -26 -80 -106l-55 -78l17 -27q19 -28 28 -39q18 -19 46.5 -69t28.5 -62q0 -8 -6.5 -12.5t-14.5 -4.5q-11 0 -23 10q-13 11 -26 37
q-14 28 -46.5 70.5t-39.5 42.5h-1q-8 -8 -49 -65t-63 -90q-18 -27 -28 -37.5t-19 -10.5q-3 0 -13 4q-11 6 -11 14q0 13 21.5 46t91.5 132l45 63l-17 22q-14 19 -41 80t-34 73q-16 31 -16 50q0 12 7 19z" />
    <glyph glyph-name="afii10088" unicode="&#x446;" horiz-adv-x="515" 
d="M311 543q1 7 16 7q17 0 25 -9q6 -8 6 -30q0 -6 -2 -36q-4 -40 -14 -200q-9 -150 -13 -157l-1 -1v-2q0 -8 60 -8q49 0 66.5 -5t17.5 -21q0 -1 -0.5 -3.5t-0.5 -3.5q-1 -11 -12 -13.5t-72 -5.5q-51 -3 -98 -12t-121 -10l-106 -4l-11 17q-8 12 -8 74q0 87 2 167
q5 224 12 239q9 17 24 17q7 0 16 -7q7 -6 7 -59q0 -56 -9 -292l-5 -101l79 2q8 0 23 1q64 2 75 10q9 7 12 44q1 9 2 15q7 64 11 134q11 230 19 253z" />
    <glyph glyph-name="afii10089" unicode="&#x447;" horiz-adv-x="374" 
d="M64 551q6 5 17 5q14 0 19 -8q4 -6 4 -23q0 -6 -4 -58q-3 -33 -3 -55q0 -68 36 -85q22 -11 59 -11q62 0 75 20q5 7 5 88q0 66 8 94t28 31h4q20 0 20 -29q0 -10 -3 -22q-6 -26 -6 -81v-12q0 -53 -9 -171.5t-15 -139.5q-7 -18 -21 -18q-6 0 -17 7q-8 5 -8 35q0 6 2 62l4 90
l-49 -4q-8 -1 -23 -1q-68 0 -106 38q-37 37 -37 111q1 44 7 88.5t13 48.5z" />
    <glyph glyph-name="afii10090" unicode="&#x448;" horiz-adv-x="547" 
d="M467 523q7 10 15 10q13 0 17 -17q6 -27 6 -223q0 -165 -1.5 -197t-11.5 -44q-8 -11 -16.5 -14t-29.5 -3q-33 0 -92 -9q-40 -6 -118.5 -16t-98.5 -13q-19 -3 -33 -3q-19 0 -27 7.5t-13 26.5q-18 67 -21 331v64q0 86 9 95q7 7 16 7q18 0 23 -19q1 -5 7 -193q5 -251 17 -261
h6q27 0 64 4l67 6l5 54q2 28 2 72q0 42 -2 134q-2 74 -2 90q0 52 4.5 67.5t17.5 15.5q21 0 25 -31t4 -190v-202l26 5q6 1 18 2.5t28.5 3t25.5 2.5l47 4l4 212q4 213 12 222z" />
    <glyph glyph-name="afii10091" unicode="&#x449;" horiz-adv-x="600" 
d="M462 532q6 7 17 7q13 0 20 -9q5 -7 5 -21q0 -16 -4 -41q-6 -41 -10 -114q-3 -60 -13 -133q-10 -76 -10 -86q0 -9 2 -12t9 -3q2 0 20 2q5 1 14 1q20 0 30 -5q13 -7 13 -22q0 -9 -7 -15q-14 -12 -170.5 -25.5t-254.5 -13.5q-48 0 -58 5q-13 6 -17.5 24t-4.5 66q0 41 3 116
q3 102 5.5 149t6.5 81.5t9.5 42t15.5 7.5q1 0 3 -0.5t4 -0.5q6 -1 8.5 -3t4 -12.5t1.5 -33.5q0 -15 -7 -211q-3 -84 -3 -122q0 -44 5 -49q7 -6 88 -6q40 0 43 3q3 6 10 133q16 283 27 295q8 8 23 6q8 -1 10.5 -2.5t4 -6.5t1.5 -17v-17q-3 -74 -12 -213q-8 -120 -8 -165
l1 -11q0 -1 6 -1q9 0 61 6l63 8v29q0 30 9 98q11 85 14 142q7 130 22 150z" />
    <glyph glyph-name="afii10092" unicode="&#x44a;" horiz-adv-x="535" 
d="M371 262q-39 19 -85 19q-48 0 -49 -7q-2 -4 -6 -105l-3 -96l16 -4q10 -2 18 -2q29 0 70.5 10t62.5 22q27 15 36.5 31.5t9.5 46.5q0 27 -16 46.5t-54 38.5zM51 531q6 7 33 7q6 0 60 -2q89 -6 98 -10q10 -7 10 -23q0 -5 -10 -125l-4 -46h51q64 0 116.5 -26.5t73.5 -69.5
q14 -28 14 -65q0 -60 -33 -90q-31 -28 -89 -46t-110 -18q-54 0 -73 19q-10 10 -10 40q0 4 2 72q12 281 19 318l4 17l-46 1q-42 0 -78 4q-20 3 -26.5 6.5t-7.5 12.5q-2 14 6 24z" />
    <glyph glyph-name="afii10093" unicode="&#x44b;" horiz-adv-x="546" 
d="M230 232q-34 18 -81 18h-47l3 -76q4 -75 8 -82q3 -6 43 -6q74 0 104 57q12 23 12 39q0 28 -42 50zM50 499q10 15 24 15q9 0 16 -7t7 -99q0 -91 6 -101q4 -6 17 -6q4 0 22 2q6 1 17 1q47 0 92.5 -24t60.5 -58q11 -27 11 -47q0 -42 -40 -89q-44 -51 -132 -51q-57 0 -66 6
q-18 10 -24 58t-14 235q-4 76 -4 116q0 39 7 49zM457 520q6 13 19 13q10 0 19 -10q8 -9 8 -126q0 -245 -19 -347q-1 -9 -10 -14.5t-19 -5.5q-8 0 -12 4q-6 6 -6 42q0 42 11 158q7 69 7 130q0 20 -2 60q-1 18 -1 47q0 39 5 49z" />
    <glyph glyph-name="afii10094" unicode="&#x44c;" horiz-adv-x="377" 
d="M226 264q-33 11 -83 11q-27 0 -30 -5q-5 -9 -10.5 -53.5t-5.5 -75.5v-11l2 -41l52 -2h24q34 0 60 14q31 15 38 33q6 15 6 37q0 29 -10 57q-7 17 -14 23t-29 13zM94 545q10 7 19 7q11 0 18 -8.5t7 -23.5q0 -7 -1 -11q-13 -93 -16 -166q0 -13 5.5 -15.5t37.5 -2.5
q34 0 73.5 -11t54.5 -24q13 -13 28 -52q13 -32 13 -58q0 -23 -11 -61q-7 -21 -33.5 -43.5t-58.5 -34.5q-24 -10 -52 -10q-17 0 -28 1q-93 8 -104 28q-2 4 -2 30q0 42 3 97t7 61q10 16 23 197q8 93 17 100z" />
    <glyph glyph-name="afii10095" unicode="&#x44d;" horiz-adv-x="421" 
d="M138 534q30 6 53 6q40 0 88 -24q39 -20 53.5 -36.5t29.5 -56.5q17 -49 17 -109q0 -50 -12 -87q-26 -77 -58 -109q-23 -23 -44.5 -32t-61.5 -11q-11 -1 -27 -1q-25 0 -76 24q-36 17 -45 23t-9 15v5q3 19 21 19t57 -17q43 -20 69 -20q25 0 50.5 12t39.5 29q11 14 25.5 48.5
t18.5 58.5l4 18l-107 -4q-68 -2 -74 -2q-35 0 -41 7q-5 7 -5 14q0 18 16 24q13 4 107 8q97 4 99 9v1l1 2q0 13 -11 44q-11 37 -28 56.5t-49 31.5q-24 9 -37 9q-10 0 -43 -5t-43 -5q-12 0 -16 4.5t-4 14.5q0 28 42 36z" />
    <glyph glyph-name="afii10096" unicode="&#x44e;" horiz-adv-x="657" 
d="M528 439q-42 44 -97 44q-13 0 -23 -3q-25 -9 -41.5 -22.5t-46.5 -48.5l-35 -42v-54q0 -55 7.5 -79t30.5 -43q17 -14 50.5 -26t57.5 -12q1 0 4 0.5t4 0.5q41 6 67 35t44 87q13 45 13 75q0 53 -35 88zM390 531q20 8 58 8q33 0 40 -7q10 -10 32 -20q26 -13 53 -44t34 -55
t7 -56q0 -93 -54 -182q-31 -52 -107 -70q-12 -3 -26 -3q-48 0 -102 28t-72 64q-13 25 -17 66l-3 42l-67 -5q-67 -4 -68 -5l-4 -100q-2 -77 -7.5 -98t-21.5 -21q-10 0 -14 5t-6.5 26.5t-2.5 69.5q0 70 1 122q4 209 9 223q6 14 21 14q14 0 20 -7t6 -23q0 -11 -1 -18
q-1 -8 -1 -34q0 -36 2 -53l4 -54l39 3q82 8 89 14q5 3 7 15q5 19 42.5 66.5t61.5 63.5q21 15 48 25z" />
    <glyph glyph-name="afii10097" unicode="&#x44f;" horiz-adv-x="383" 
d="M277 507q-5 4 -20 4q-32 0 -77 -16.5t-54 -33.5q-7 -15 -10 -43q-1 -7 -1 -17q0 -15 14 -29q31 -31 110 -31h45l4 42q2 13 2 40q0 77 -13 84zM196 554q32 7 57 7q28 0 53 -11q18 -8 24 -15t9 -22q2 -6 2 -74q0 -91 -2 -145q-3 -157 -8 -191t-27 -34q-14 0 -19 14t-5 55
q0 34 1 56l4 96h-86l-40 -84q-43 -88 -60.5 -115t-31.5 -27h-3q-18 1 -19 19q-2 19 5 26q12 15 51 98.5t39 93.5q-54 39 -60 47q-16 22 -16 64q0 20 5 43q17 74 127 99z" />
    <glyph glyph-name="afii10071" unicode="&#x451;" horiz-adv-x="414" 
d="M85 533q20 2 109 2h39q89 -1 109 -2.5t24 -8.5q7 -12 0 -23q-5 -8 -29 -10.5t-111 -4.5q-32 -1 -66 -2t-52 -2h-17q-1 -1 -1 -9q0 -19 6 -56t10 -39q7 -5 100 -5q64 0 80 -2t24 -11q12 -13 5 -24q-4 -7 -23 -9t-88 -4l-106 -1l-3 -16q0 -1 -0.5 -10.5t-0.5 -17.5
q0 -19 2 -77q2 -60 3.5 -73t7.5 -13q3 0 5 1q12 4 118 8q29 1 67 1q39 0 54 -11q10 -8 11.5 -12.5t-3.5 -11.5q-5 -8 -24 -11t-83 -5q-113 -4 -143 -8q-5 0 -15 -1.5t-14 -1.5q-21 0 -27 25q-7 27 -10 213q-1 51 -1 121q0 55 4 77t10.5 26.5t28.5 7.5zM261 659q11 7 20 7
q19 0 19 -20q0 -17 -18 -35q-15 -15 -28 -15q-11 0 -19 13q-3 5 -3 11q0 21 29 39zM110 655q20 21 30 21q6 0 13 -7q8 -8 8 -18q0 -11 -11 -30q-15 -24 -30 -24q-7 0 -17 8q-11 11 -11 19q0 12 18 31z" />
    <glyph glyph-name="afii10101" unicode="&#x454;" horiz-adv-x="419" 
d="M242 548q20 8 65 8q25 0 43 -3q19 -4 23 -20q1 -4 1 -10q0 -12 -13 -16t-50 -4q-47 0 -70 -10.5t-63 -49.5q-24 -23 -43 -49.5t-19 -36.5q0 -3 71 -3q56 0 107.5 -6.5t61.5 -14.5q8 -8 6 -23q-2 -10 -5 -12.5t-16 -2.5h-16q-16 1 -130 3l-95 2l-2 -54v-17q0 -38 14 -62
q31 -54 101 -54q35 0 55 10q28 14 53 14q16 0 23 -7q6 -8 6 -16q0 -14 -12 -20q-65 -33 -118 -33h-10q-55 2 -89.5 22.5t-56.5 63.5q-13 25 -16 40.5t-4 55.5q0 137 87 230q51 53 111 75z" />
    <glyph glyph-name="afii10103" unicode="&#x456;" horiz-adv-x="165" 
d="M82 529q7 8 18 8q12 0 19 -8q4 -4 4 -43q0 -98 -19 -294q-8 -70 -12 -90.5t-12 -27.5q-11 -10 -24 -5q-12 6 -12 40q0 29 9 115q10 84 16 193q7 106 13 112z" />
    <glyph glyph-name="afii10104" unicode="&#x457;" horiz-adv-x="286" 
d="M140 520q9 11 18 11q6 0 15 -6q8 -5 8 -38q0 -37 -7 -120q-8 -94 -8 -175q0 -93 -5 -106q-8 -21 -26 -21q-6 0 -12 3q-10 6 -10 63q0 40 1 69q1 124 9 216.5t17 103.5zM53 636q8 10 20 10q18 0 21 -16q3 -10 3 -20q0 -17 -7 -29t-18 -12q-6 0 -11 4q-14 8 -14 40
q0 15 6 23zM192 643q8 9 20 9q18 0 23 -14q3 -9 3 -19q0 -17 -8.5 -30t-19.5 -13q-6 0 -10 3q-14 8 -14 40q0 16 6 24z" />
    <glyph glyph-name="afii10050" unicode="&#x490;" horiz-adv-x="613" 
d="M518 802q9 10 21 10q15 0 23 -15q4 -7 4 -39q0 -75 -12 -109q-7 -19 -45.5 -25t-148.5 -6q-112 0 -192 -5l-58 -5l-2 -354q-3 -319 -10 -359q-12 -26 -27 -28q-10 0 -14.5 3.5t-8.5 20t-5 50.5t-1 95q0 31 2 231q5 297 10.5 347.5t33.5 57.5q30 3 209 5q194 2 198 8
q4 4 10 55q4 51 13 62z" />
    <glyph glyph-name="afii10098" unicode="&#x491;" horiz-adv-x="382" 
d="M287 623q7 8 23 8q18 0 22 -11q4 -9 4 -37q0 -40 -7 -55q-7 -20 -27.5 -27t-85.5 -13q-71 -7 -95 -12l-16 -4l2 -210q1 -56 1 -127q0 -54 -2 -69.5t-9 -20.5q-13 -9 -26 0q-9 5 -12.5 36t-9.5 151q-6 118 -6 182q0 93 15 108q7 7 80.5 18.5t119.5 12.5q11 0 17 31
q5 31 12 39z" />
  </font>
</defs>
</svg>
